G04 #@! TF.GenerationSoftware,KiCad,Pcbnew,(5.1.10)-1*
G04 #@! TF.CreationDate,2021-09-06T19:40:46-04:00*
G04 #@! TF.ProjectId,Lithium_Ion_Pack,4c697468-6975-46d5-9f49-6f6e5f506163,A0*
G04 #@! TF.SameCoordinates,Original*
G04 #@! TF.FileFunction,Legend,Bot*
G04 #@! TF.FilePolarity,Positive*
%FSLAX46Y46*%
G04 Gerber Fmt 4.6, Leading zero omitted, Abs format (unit mm)*
G04 Created by KiCad (PCBNEW (5.1.10)-1) date 2021-09-06 19:40:46*
%MOMM*%
%LPD*%
G01*
G04 APERTURE LIST*
%ADD10C,0.300000*%
%ADD11C,0.120000*%
%ADD12C,0.200000*%
%ADD13C,0.150000*%
%ADD14O,1.700000X1.700000*%
%ADD15R,1.700000X1.700000*%
%ADD16C,1.500000*%
%ADD17C,0.650000*%
%ADD18C,5.000000*%
%ADD19C,2.900000*%
%ADD20R,2.000000X2.000000*%
G04 APERTURE END LIST*
D10*
X129828571Y-44978571D02*
X129828571Y-46050000D01*
X129900000Y-46264285D01*
X130042857Y-46407142D01*
X130257142Y-46478571D01*
X130400000Y-46478571D01*
X128400000Y-46478571D02*
X129114285Y-46478571D01*
X129114285Y-44978571D01*
X127042857Y-46335714D02*
X127114285Y-46407142D01*
X127328571Y-46478571D01*
X127471428Y-46478571D01*
X127685714Y-46407142D01*
X127828571Y-46264285D01*
X127900000Y-46121428D01*
X127971428Y-45835714D01*
X127971428Y-45621428D01*
X127900000Y-45335714D01*
X127828571Y-45192857D01*
X127685714Y-45050000D01*
X127471428Y-44978571D01*
X127328571Y-44978571D01*
X127114285Y-45050000D01*
X127042857Y-45121428D01*
X125971428Y-44978571D02*
X125971428Y-46050000D01*
X126042857Y-46264285D01*
X126185714Y-46407142D01*
X126400000Y-46478571D01*
X126542857Y-46478571D01*
X124542857Y-46478571D02*
X125257142Y-46478571D01*
X125257142Y-44978571D01*
X123185714Y-46335714D02*
X123257142Y-46407142D01*
X123471428Y-46478571D01*
X123614285Y-46478571D01*
X123828571Y-46407142D01*
X123971428Y-46264285D01*
X124042857Y-46121428D01*
X124114285Y-45835714D01*
X124114285Y-45621428D01*
X124042857Y-45335714D01*
X123971428Y-45192857D01*
X123828571Y-45050000D01*
X123614285Y-44978571D01*
X123471428Y-44978571D01*
X123257142Y-45050000D01*
X123185714Y-45121428D01*
X122114285Y-44978571D02*
X122114285Y-46050000D01*
X122185714Y-46264285D01*
X122328571Y-46407142D01*
X122542857Y-46478571D01*
X122685714Y-46478571D01*
X120685714Y-46478571D02*
X121400000Y-46478571D01*
X121400000Y-44978571D01*
X119328571Y-46335714D02*
X119400000Y-46407142D01*
X119614285Y-46478571D01*
X119757142Y-46478571D01*
X119971428Y-46407142D01*
X120114285Y-46264285D01*
X120185714Y-46121428D01*
X120257142Y-45835714D01*
X120257142Y-45621428D01*
X120185714Y-45335714D01*
X120114285Y-45192857D01*
X119971428Y-45050000D01*
X119757142Y-44978571D01*
X119614285Y-44978571D01*
X119400000Y-45050000D01*
X119328571Y-45121428D01*
X118257142Y-44978571D02*
X118257142Y-46050000D01*
X118328571Y-46264285D01*
X118471428Y-46407142D01*
X118685714Y-46478571D01*
X118828571Y-46478571D01*
X116828571Y-46478571D02*
X117542857Y-46478571D01*
X117542857Y-44978571D01*
X115471428Y-46335714D02*
X115542857Y-46407142D01*
X115757142Y-46478571D01*
X115900000Y-46478571D01*
X116114285Y-46407142D01*
X116257142Y-46264285D01*
X116328571Y-46121428D01*
X116400000Y-45835714D01*
X116400000Y-45621428D01*
X116328571Y-45335714D01*
X116257142Y-45192857D01*
X116114285Y-45050000D01*
X115900000Y-44978571D01*
X115757142Y-44978571D01*
X115542857Y-45050000D01*
X115471428Y-45121428D01*
D11*
X118750000Y-148750000D02*
X118750000Y-148000000D01*
X118250000Y-149500000D02*
X119250000Y-149500000D01*
X118750000Y-149500000D02*
X119250000Y-148750000D01*
X118750000Y-149500000D02*
X118750000Y-150000000D01*
X119250000Y-148750000D02*
X118250000Y-148750000D01*
X118250000Y-148750000D02*
X118750000Y-149500000D01*
X115500000Y-149500000D02*
X116000000Y-148750000D01*
X115000000Y-149500000D02*
X116000000Y-149500000D01*
X115500000Y-149500000D02*
X115500000Y-150000000D01*
X115500000Y-148750000D02*
X115500000Y-148000000D01*
X116000000Y-148750000D02*
X115000000Y-148750000D01*
X115000000Y-148750000D02*
X115500000Y-149500000D01*
X112250000Y-149500000D02*
X112250000Y-150000000D01*
X112250000Y-148750000D02*
X112250000Y-148000000D01*
X111750000Y-148750000D02*
X112250000Y-149500000D01*
X112750000Y-148750000D02*
X111750000Y-148750000D01*
X112250000Y-149500000D02*
X112750000Y-148750000D01*
X111750000Y-149500000D02*
X112750000Y-149500000D01*
X112250000Y-146000000D02*
X112250000Y-145500000D01*
X115500000Y-146000000D02*
X115500000Y-145500000D01*
X118750000Y-146000000D02*
X118750000Y-145500000D01*
X117750000Y-146000000D02*
X117500000Y-146000000D01*
X120000000Y-146000000D02*
X117750000Y-146000000D01*
X120000000Y-152250000D02*
X120000000Y-146000000D01*
X117500000Y-152250000D02*
X120000000Y-152250000D01*
X117500000Y-146000000D02*
X117500000Y-152250000D01*
X116750000Y-146000000D02*
X114250000Y-146000000D01*
X116750000Y-152250000D02*
X116750000Y-146000000D01*
X114250000Y-152250000D02*
X116750000Y-152250000D01*
X114250000Y-146000000D02*
X114250000Y-152250000D01*
X113500000Y-146000000D02*
X111000000Y-146000000D01*
X113500000Y-152250000D02*
X113500000Y-146000000D01*
X111000000Y-152250000D02*
X113500000Y-152250000D01*
X111000000Y-146000000D02*
X111000000Y-152250000D01*
D12*
X118392857Y-144560476D02*
X118345238Y-144608095D01*
X118297619Y-144750952D01*
X118297619Y-144846190D01*
X118345238Y-144989047D01*
X118440476Y-145084285D01*
X118535714Y-145131904D01*
X118726190Y-145179523D01*
X118869047Y-145179523D01*
X119059523Y-145131904D01*
X119154761Y-145084285D01*
X119250000Y-144989047D01*
X119297619Y-144846190D01*
X119297619Y-144750952D01*
X119250000Y-144608095D01*
X119202380Y-144560476D01*
X118297619Y-144131904D02*
X119297619Y-144131904D01*
X118821428Y-144131904D02*
X118821428Y-143560476D01*
X118297619Y-143560476D02*
X119297619Y-143560476D01*
X119250000Y-142560476D02*
X119297619Y-142655714D01*
X119297619Y-142798571D01*
X119250000Y-142941428D01*
X119154761Y-143036666D01*
X119059523Y-143084285D01*
X118869047Y-143131904D01*
X118726190Y-143131904D01*
X118535714Y-143084285D01*
X118440476Y-143036666D01*
X118345238Y-142941428D01*
X118297619Y-142798571D01*
X118297619Y-142703333D01*
X118345238Y-142560476D01*
X118392857Y-142512857D01*
X118726190Y-142512857D01*
X118726190Y-142703333D01*
X118202380Y-142322380D02*
X118202380Y-141560476D01*
X118297619Y-141322380D02*
X119297619Y-141322380D01*
X119297619Y-141084285D01*
X119250000Y-140941428D01*
X119154761Y-140846190D01*
X119059523Y-140798571D01*
X118869047Y-140750952D01*
X118726190Y-140750952D01*
X118535714Y-140798571D01*
X118440476Y-140846190D01*
X118345238Y-140941428D01*
X118297619Y-141084285D01*
X118297619Y-141322380D01*
X119297619Y-140131904D02*
X119297619Y-139941428D01*
X119250000Y-139846190D01*
X119154761Y-139750952D01*
X118964285Y-139703333D01*
X118630952Y-139703333D01*
X118440476Y-139750952D01*
X118345238Y-139846190D01*
X118297619Y-139941428D01*
X118297619Y-140131904D01*
X118345238Y-140227142D01*
X118440476Y-140322380D01*
X118630952Y-140370000D01*
X118964285Y-140370000D01*
X119154761Y-140322380D01*
X119250000Y-140227142D01*
X119297619Y-140131904D01*
X118297619Y-139274761D02*
X119297619Y-139274761D01*
X118297619Y-138703333D01*
X119297619Y-138703333D01*
X118821428Y-138227142D02*
X118821428Y-137893809D01*
X118297619Y-137750952D02*
X118297619Y-138227142D01*
X119297619Y-138227142D01*
X119297619Y-137750952D01*
X115142857Y-144560476D02*
X115095238Y-144608095D01*
X115047619Y-144750952D01*
X115047619Y-144846190D01*
X115095238Y-144989047D01*
X115190476Y-145084285D01*
X115285714Y-145131904D01*
X115476190Y-145179523D01*
X115619047Y-145179523D01*
X115809523Y-145131904D01*
X115904761Y-145084285D01*
X116000000Y-144989047D01*
X116047619Y-144846190D01*
X116047619Y-144750952D01*
X116000000Y-144608095D01*
X115952380Y-144560476D01*
X115047619Y-144131904D02*
X116047619Y-144131904D01*
X115571428Y-144131904D02*
X115571428Y-143560476D01*
X115047619Y-143560476D02*
X116047619Y-143560476D01*
X116000000Y-142560476D02*
X116047619Y-142655714D01*
X116047619Y-142798571D01*
X116000000Y-142941428D01*
X115904761Y-143036666D01*
X115809523Y-143084285D01*
X115619047Y-143131904D01*
X115476190Y-143131904D01*
X115285714Y-143084285D01*
X115190476Y-143036666D01*
X115095238Y-142941428D01*
X115047619Y-142798571D01*
X115047619Y-142703333D01*
X115095238Y-142560476D01*
X115142857Y-142512857D01*
X115476190Y-142512857D01*
X115476190Y-142703333D01*
X114952380Y-142322380D02*
X114952380Y-141560476D01*
X115142857Y-140750952D02*
X115095238Y-140798571D01*
X115047619Y-140941428D01*
X115047619Y-141036666D01*
X115095238Y-141179523D01*
X115190476Y-141274761D01*
X115285714Y-141322380D01*
X115476190Y-141370000D01*
X115619047Y-141370000D01*
X115809523Y-141322380D01*
X115904761Y-141274761D01*
X116000000Y-141179523D01*
X116047619Y-141036666D01*
X116047619Y-140941428D01*
X116000000Y-140798571D01*
X115952380Y-140750952D01*
X116047619Y-140465238D02*
X115047619Y-140131904D01*
X116047619Y-139798571D01*
X111892857Y-144560476D02*
X111845238Y-144608095D01*
X111797619Y-144750952D01*
X111797619Y-144846190D01*
X111845238Y-144989047D01*
X111940476Y-145084285D01*
X112035714Y-145131904D01*
X112226190Y-145179523D01*
X112369047Y-145179523D01*
X112559523Y-145131904D01*
X112654761Y-145084285D01*
X112750000Y-144989047D01*
X112797619Y-144846190D01*
X112797619Y-144750952D01*
X112750000Y-144608095D01*
X112702380Y-144560476D01*
X111797619Y-144131904D02*
X112797619Y-144131904D01*
X112321428Y-144131904D02*
X112321428Y-143560476D01*
X111797619Y-143560476D02*
X112797619Y-143560476D01*
X112750000Y-142560476D02*
X112797619Y-142655714D01*
X112797619Y-142798571D01*
X112750000Y-142941428D01*
X112654761Y-143036666D01*
X112559523Y-143084285D01*
X112369047Y-143131904D01*
X112226190Y-143131904D01*
X112035714Y-143084285D01*
X111940476Y-143036666D01*
X111845238Y-142941428D01*
X111797619Y-142798571D01*
X111797619Y-142703333D01*
X111845238Y-142560476D01*
X111892857Y-142512857D01*
X112226190Y-142512857D01*
X112226190Y-142703333D01*
X111702380Y-142322380D02*
X111702380Y-141560476D01*
X111892857Y-140750952D02*
X111845238Y-140798571D01*
X111797619Y-140941428D01*
X111797619Y-141036666D01*
X111845238Y-141179523D01*
X111940476Y-141274761D01*
X112035714Y-141322380D01*
X112226190Y-141370000D01*
X112369047Y-141370000D01*
X112559523Y-141322380D01*
X112654761Y-141274761D01*
X112750000Y-141179523D01*
X112797619Y-141036666D01*
X112797619Y-140941428D01*
X112750000Y-140798571D01*
X112702380Y-140750952D01*
X111892857Y-139750952D02*
X111845238Y-139798571D01*
X111797619Y-139941428D01*
X111797619Y-140036666D01*
X111845238Y-140179523D01*
X111940476Y-140274761D01*
X112035714Y-140322380D01*
X112226190Y-140370000D01*
X112369047Y-140370000D01*
X112559523Y-140322380D01*
X112654761Y-140274761D01*
X112750000Y-140179523D01*
X112797619Y-140036666D01*
X112797619Y-139941428D01*
X112750000Y-139798571D01*
X112702380Y-139750952D01*
X116592142Y-111157380D02*
X115973095Y-111157380D01*
X116306428Y-111538333D01*
X116163571Y-111538333D01*
X116068333Y-111585952D01*
X116020714Y-111633571D01*
X115973095Y-111728809D01*
X115973095Y-111966904D01*
X116020714Y-112062142D01*
X116068333Y-112109761D01*
X116163571Y-112157380D01*
X116449285Y-112157380D01*
X116544523Y-112109761D01*
X116592142Y-112062142D01*
X115687380Y-111157380D02*
X115354047Y-112157380D01*
X115020714Y-111157380D01*
X114782619Y-111157380D02*
X114163571Y-111157380D01*
X114496904Y-111538333D01*
X114354047Y-111538333D01*
X114258809Y-111585952D01*
X114211190Y-111633571D01*
X114163571Y-111728809D01*
X114163571Y-111966904D01*
X114211190Y-112062142D01*
X114258809Y-112109761D01*
X114354047Y-112157380D01*
X114639761Y-112157380D01*
X114735000Y-112109761D01*
X114782619Y-112062142D01*
X113735000Y-111776428D02*
X112973095Y-111776428D01*
X113354047Y-112157380D02*
X113354047Y-111395476D01*
X118639761Y-113062380D02*
X118639761Y-113871904D01*
X118592142Y-113967142D01*
X118544523Y-114014761D01*
X118449285Y-114062380D01*
X118258809Y-114062380D01*
X118163571Y-114014761D01*
X118115952Y-113967142D01*
X118068333Y-113871904D01*
X118068333Y-113062380D01*
X117639761Y-113776666D02*
X117163571Y-113776666D01*
X117735000Y-114062380D02*
X117401666Y-113062380D01*
X117068333Y-114062380D01*
X116163571Y-114062380D02*
X116496904Y-113586190D01*
X116735000Y-114062380D02*
X116735000Y-113062380D01*
X116354047Y-113062380D01*
X116258809Y-113110000D01*
X116211190Y-113157619D01*
X116163571Y-113252857D01*
X116163571Y-113395714D01*
X116211190Y-113490952D01*
X116258809Y-113538571D01*
X116354047Y-113586190D01*
X116735000Y-113586190D01*
X115877857Y-113062380D02*
X115306428Y-113062380D01*
X115592142Y-114062380D02*
X115592142Y-113062380D01*
X115211190Y-114157619D02*
X114449285Y-114157619D01*
X114354047Y-113062380D02*
X113782619Y-113062380D01*
X114068333Y-114062380D02*
X114068333Y-113062380D01*
X113544523Y-113062380D02*
X112877857Y-114062380D01*
X112877857Y-113062380D02*
X113544523Y-114062380D01*
X115020714Y-116920000D02*
X115115952Y-116872380D01*
X115258809Y-116872380D01*
X115401666Y-116920000D01*
X115496904Y-117015238D01*
X115544523Y-117110476D01*
X115592142Y-117300952D01*
X115592142Y-117443809D01*
X115544523Y-117634285D01*
X115496904Y-117729523D01*
X115401666Y-117824761D01*
X115258809Y-117872380D01*
X115163571Y-117872380D01*
X115020714Y-117824761D01*
X114973095Y-117777142D01*
X114973095Y-117443809D01*
X115163571Y-117443809D01*
X114544523Y-117872380D02*
X114544523Y-116872380D01*
X113973095Y-117872380D01*
X113973095Y-116872380D01*
X113496904Y-117872380D02*
X113496904Y-116872380D01*
X113258809Y-116872380D01*
X113115952Y-116920000D01*
X113020714Y-117015238D01*
X112973095Y-117110476D01*
X112925476Y-117300952D01*
X112925476Y-117443809D01*
X112973095Y-117634285D01*
X113020714Y-117729523D01*
X113115952Y-117824761D01*
X113258809Y-117872380D01*
X113496904Y-117872380D01*
X118877857Y-114967380D02*
X118877857Y-115776904D01*
X118830238Y-115872142D01*
X118782619Y-115919761D01*
X118687380Y-115967380D01*
X118496904Y-115967380D01*
X118401666Y-115919761D01*
X118354047Y-115872142D01*
X118306428Y-115776904D01*
X118306428Y-114967380D01*
X117877857Y-115681666D02*
X117401666Y-115681666D01*
X117973095Y-115967380D02*
X117639761Y-114967380D01*
X117306428Y-115967380D01*
X116401666Y-115967380D02*
X116735000Y-115491190D01*
X116973095Y-115967380D02*
X116973095Y-114967380D01*
X116592142Y-114967380D01*
X116496904Y-115015000D01*
X116449285Y-115062619D01*
X116401666Y-115157857D01*
X116401666Y-115300714D01*
X116449285Y-115395952D01*
X116496904Y-115443571D01*
X116592142Y-115491190D01*
X116973095Y-115491190D01*
X116115952Y-114967380D02*
X115544523Y-114967380D01*
X115830238Y-115967380D02*
X115830238Y-114967380D01*
X115449285Y-116062619D02*
X114687380Y-116062619D01*
X113877857Y-115967380D02*
X114211190Y-115491190D01*
X114449285Y-115967380D02*
X114449285Y-114967380D01*
X114068333Y-114967380D01*
X113973095Y-115015000D01*
X113925476Y-115062619D01*
X113877857Y-115157857D01*
X113877857Y-115300714D01*
X113925476Y-115395952D01*
X113973095Y-115443571D01*
X114068333Y-115491190D01*
X114449285Y-115491190D01*
X113544523Y-114967380D02*
X112877857Y-115967380D01*
X112877857Y-114967380D02*
X113544523Y-115967380D01*
D11*
X111335000Y-117420000D02*
G75*
G03*
X111335000Y-117420000I-635000J0D01*
G01*
X111335000Y-113610000D02*
G75*
G03*
X111335000Y-113610000I-635000J0D01*
G01*
X111970000Y-110435000D02*
X111970000Y-118690000D01*
X111970000Y-118690000D02*
X109430000Y-118690000D01*
X111335000Y-111705000D02*
G75*
G03*
X111335000Y-111705000I-635000J0D01*
G01*
X111335000Y-115515000D02*
G75*
G03*
X111335000Y-115515000I-635000J0D01*
G01*
X109430000Y-118690000D02*
X109430000Y-110435000D01*
X111335000Y-113610000D02*
X112605000Y-113610000D01*
X111335000Y-117420000D02*
X112605000Y-117420000D01*
X111335000Y-115515000D02*
X112605000Y-115515000D01*
X111335000Y-111705000D02*
X112605000Y-111705000D01*
X109430000Y-110435000D02*
X111970000Y-110435000D01*
X111335000Y-132660000D02*
X112605000Y-132660000D01*
X111335000Y-126945000D02*
X112605000Y-126945000D01*
D12*
X115020714Y-132160000D02*
X115115952Y-132112380D01*
X115258809Y-132112380D01*
X115401666Y-132160000D01*
X115496904Y-132255238D01*
X115544523Y-132350476D01*
X115592142Y-132540952D01*
X115592142Y-132683809D01*
X115544523Y-132874285D01*
X115496904Y-132969523D01*
X115401666Y-133064761D01*
X115258809Y-133112380D01*
X115163571Y-133112380D01*
X115020714Y-133064761D01*
X114973095Y-133017142D01*
X114973095Y-132683809D01*
X115163571Y-132683809D01*
X114544523Y-133112380D02*
X114544523Y-132112380D01*
X113973095Y-133112380D01*
X113973095Y-132112380D01*
X113496904Y-133112380D02*
X113496904Y-132112380D01*
X113258809Y-132112380D01*
X113115952Y-132160000D01*
X113020714Y-132255238D01*
X112973095Y-132350476D01*
X112925476Y-132540952D01*
X112925476Y-132683809D01*
X112973095Y-132874285D01*
X113020714Y-132969523D01*
X113115952Y-133064761D01*
X113258809Y-133112380D01*
X113496904Y-133112380D01*
X116592142Y-126397380D02*
X115973095Y-126397380D01*
X116306428Y-126778333D01*
X116163571Y-126778333D01*
X116068333Y-126825952D01*
X116020714Y-126873571D01*
X115973095Y-126968809D01*
X115973095Y-127206904D01*
X116020714Y-127302142D01*
X116068333Y-127349761D01*
X116163571Y-127397380D01*
X116449285Y-127397380D01*
X116544523Y-127349761D01*
X116592142Y-127302142D01*
X115687380Y-126397380D02*
X115354047Y-127397380D01*
X115020714Y-126397380D01*
X114782619Y-126397380D02*
X114163571Y-126397380D01*
X114496904Y-126778333D01*
X114354047Y-126778333D01*
X114258809Y-126825952D01*
X114211190Y-126873571D01*
X114163571Y-126968809D01*
X114163571Y-127206904D01*
X114211190Y-127302142D01*
X114258809Y-127349761D01*
X114354047Y-127397380D01*
X114639761Y-127397380D01*
X114735000Y-127349761D01*
X114782619Y-127302142D01*
X113735000Y-127016428D02*
X112973095Y-127016428D01*
X113354047Y-127397380D02*
X113354047Y-126635476D01*
D11*
X111335000Y-130755000D02*
X112605000Y-130755000D01*
D12*
X117449285Y-131159761D02*
X117306428Y-131207380D01*
X117068333Y-131207380D01*
X116973095Y-131159761D01*
X116925476Y-131112142D01*
X116877857Y-131016904D01*
X116877857Y-130921666D01*
X116925476Y-130826428D01*
X116973095Y-130778809D01*
X117068333Y-130731190D01*
X117258809Y-130683571D01*
X117354047Y-130635952D01*
X117401666Y-130588333D01*
X117449285Y-130493095D01*
X117449285Y-130397857D01*
X117401666Y-130302619D01*
X117354047Y-130255000D01*
X117258809Y-130207380D01*
X117020714Y-130207380D01*
X116877857Y-130255000D01*
X116544523Y-130207380D02*
X116306428Y-131207380D01*
X116115952Y-130493095D01*
X115925476Y-131207380D01*
X115687380Y-130207380D01*
X114735000Y-131112142D02*
X114782619Y-131159761D01*
X114925476Y-131207380D01*
X115020714Y-131207380D01*
X115163571Y-131159761D01*
X115258809Y-131064523D01*
X115306428Y-130969285D01*
X115354047Y-130778809D01*
X115354047Y-130635952D01*
X115306428Y-130445476D01*
X115258809Y-130350238D01*
X115163571Y-130255000D01*
X115020714Y-130207380D01*
X114925476Y-130207380D01*
X114782619Y-130255000D01*
X114735000Y-130302619D01*
X113830238Y-131207380D02*
X114306428Y-131207380D01*
X114306428Y-130207380D01*
X113496904Y-131207380D02*
X113496904Y-130207380D01*
X112925476Y-131207380D02*
X113354047Y-130635952D01*
X112925476Y-130207380D02*
X113496904Y-130778809D01*
D11*
X111335000Y-128850000D02*
X112605000Y-128850000D01*
X111335000Y-126945000D02*
G75*
G03*
X111335000Y-126945000I-635000J0D01*
G01*
X111335000Y-132660000D02*
G75*
G03*
X111335000Y-132660000I-635000J0D01*
G01*
X111335000Y-130755000D02*
G75*
G03*
X111335000Y-130755000I-635000J0D01*
G01*
X111335000Y-128850000D02*
G75*
G03*
X111335000Y-128850000I-635000J0D01*
G01*
X111970000Y-125675000D02*
X111970000Y-133930000D01*
X109430000Y-125675000D02*
X111970000Y-125675000D01*
X109430000Y-133930000D02*
X109430000Y-125675000D01*
X111970000Y-133930000D02*
X109430000Y-133930000D01*
D12*
X117163571Y-129254761D02*
X117020714Y-129302380D01*
X116782619Y-129302380D01*
X116687380Y-129254761D01*
X116639761Y-129207142D01*
X116592142Y-129111904D01*
X116592142Y-129016666D01*
X116639761Y-128921428D01*
X116687380Y-128873809D01*
X116782619Y-128826190D01*
X116973095Y-128778571D01*
X117068333Y-128730952D01*
X117115952Y-128683333D01*
X117163571Y-128588095D01*
X117163571Y-128492857D01*
X117115952Y-128397619D01*
X117068333Y-128350000D01*
X116973095Y-128302380D01*
X116735000Y-128302380D01*
X116592142Y-128350000D01*
X116258809Y-128302380D02*
X116020714Y-129302380D01*
X115830238Y-128588095D01*
X115639761Y-129302380D01*
X115401666Y-128302380D01*
X115020714Y-129302380D02*
X115020714Y-128302380D01*
X114782619Y-128302380D01*
X114639761Y-128350000D01*
X114544523Y-128445238D01*
X114496904Y-128540476D01*
X114449285Y-128730952D01*
X114449285Y-128873809D01*
X114496904Y-129064285D01*
X114544523Y-129159523D01*
X114639761Y-129254761D01*
X114782619Y-129302380D01*
X115020714Y-129302380D01*
X114020714Y-129302380D02*
X114020714Y-128302380D01*
X113354047Y-128302380D02*
X113163571Y-128302380D01*
X113068333Y-128350000D01*
X112973095Y-128445238D01*
X112925476Y-128635714D01*
X112925476Y-128969047D01*
X112973095Y-129159523D01*
X113068333Y-129254761D01*
X113163571Y-129302380D01*
X113354047Y-129302380D01*
X113449285Y-129254761D01*
X113544523Y-129159523D01*
X113592142Y-128969047D01*
X113592142Y-128635714D01*
X113544523Y-128445238D01*
X113449285Y-128350000D01*
X113354047Y-128302380D01*
D11*
X123490000Y-112603733D02*
X123490000Y-112896267D01*
X124510000Y-112603733D02*
X124510000Y-112896267D01*
X128740000Y-117991233D02*
X128740000Y-118283767D01*
X129760000Y-117991233D02*
X129760000Y-118283767D01*
X117758767Y-119490000D02*
X117466233Y-119490000D01*
X117758767Y-120510000D02*
X117466233Y-120510000D01*
X128533767Y-126990000D02*
X128241233Y-126990000D01*
X128533767Y-128010000D02*
X128241233Y-128010000D01*
D13*
X122927142Y-112107142D02*
X122974761Y-112059523D01*
X123022380Y-111916666D01*
X123022380Y-111821428D01*
X122974761Y-111678571D01*
X122879523Y-111583333D01*
X122784285Y-111535714D01*
X122593809Y-111488095D01*
X122450952Y-111488095D01*
X122260476Y-111535714D01*
X122165238Y-111583333D01*
X122070000Y-111678571D01*
X122022380Y-111821428D01*
X122022380Y-111916666D01*
X122070000Y-112059523D01*
X122117619Y-112107142D01*
X122117619Y-112488095D02*
X122070000Y-112535714D01*
X122022380Y-112630952D01*
X122022380Y-112869047D01*
X122070000Y-112964285D01*
X122117619Y-113011904D01*
X122212857Y-113059523D01*
X122308095Y-113059523D01*
X122450952Y-113011904D01*
X123022380Y-112440476D01*
X123022380Y-113059523D01*
X122022380Y-113964285D02*
X122022380Y-113488095D01*
X122498571Y-113440476D01*
X122450952Y-113488095D01*
X122403333Y-113583333D01*
X122403333Y-113821428D01*
X122450952Y-113916666D01*
X122498571Y-113964285D01*
X122593809Y-114011904D01*
X122831904Y-114011904D01*
X122927142Y-113964285D01*
X122974761Y-113916666D01*
X123022380Y-113821428D01*
X123022380Y-113583333D01*
X122974761Y-113488095D01*
X122927142Y-113440476D01*
X128177142Y-117494642D02*
X128224761Y-117447023D01*
X128272380Y-117304166D01*
X128272380Y-117208928D01*
X128224761Y-117066071D01*
X128129523Y-116970833D01*
X128034285Y-116923214D01*
X127843809Y-116875595D01*
X127700952Y-116875595D01*
X127510476Y-116923214D01*
X127415238Y-116970833D01*
X127320000Y-117066071D01*
X127272380Y-117208928D01*
X127272380Y-117304166D01*
X127320000Y-117447023D01*
X127367619Y-117494642D01*
X127367619Y-117875595D02*
X127320000Y-117923214D01*
X127272380Y-118018452D01*
X127272380Y-118256547D01*
X127320000Y-118351785D01*
X127367619Y-118399404D01*
X127462857Y-118447023D01*
X127558095Y-118447023D01*
X127700952Y-118399404D01*
X128272380Y-117827976D01*
X128272380Y-118447023D01*
X127605714Y-119304166D02*
X128272380Y-119304166D01*
X127224761Y-119066071D02*
X127939047Y-118827976D01*
X127939047Y-119447023D01*
X118255357Y-118927142D02*
X118302976Y-118974761D01*
X118445833Y-119022380D01*
X118541071Y-119022380D01*
X118683928Y-118974761D01*
X118779166Y-118879523D01*
X118826785Y-118784285D01*
X118874404Y-118593809D01*
X118874404Y-118450952D01*
X118826785Y-118260476D01*
X118779166Y-118165238D01*
X118683928Y-118070000D01*
X118541071Y-118022380D01*
X118445833Y-118022380D01*
X118302976Y-118070000D01*
X118255357Y-118117619D01*
X117874404Y-118117619D02*
X117826785Y-118070000D01*
X117731547Y-118022380D01*
X117493452Y-118022380D01*
X117398214Y-118070000D01*
X117350595Y-118117619D01*
X117302976Y-118212857D01*
X117302976Y-118308095D01*
X117350595Y-118450952D01*
X117922023Y-119022380D01*
X117302976Y-119022380D01*
X116969642Y-118022380D02*
X116350595Y-118022380D01*
X116683928Y-118403333D01*
X116541071Y-118403333D01*
X116445833Y-118450952D01*
X116398214Y-118498571D01*
X116350595Y-118593809D01*
X116350595Y-118831904D01*
X116398214Y-118927142D01*
X116445833Y-118974761D01*
X116541071Y-119022380D01*
X116826785Y-119022380D01*
X116922023Y-118974761D01*
X116969642Y-118927142D01*
X129030357Y-126427142D02*
X129077976Y-126474761D01*
X129220833Y-126522380D01*
X129316071Y-126522380D01*
X129458928Y-126474761D01*
X129554166Y-126379523D01*
X129601785Y-126284285D01*
X129649404Y-126093809D01*
X129649404Y-125950952D01*
X129601785Y-125760476D01*
X129554166Y-125665238D01*
X129458928Y-125570000D01*
X129316071Y-125522380D01*
X129220833Y-125522380D01*
X129077976Y-125570000D01*
X129030357Y-125617619D01*
X128649404Y-125617619D02*
X128601785Y-125570000D01*
X128506547Y-125522380D01*
X128268452Y-125522380D01*
X128173214Y-125570000D01*
X128125595Y-125617619D01*
X128077976Y-125712857D01*
X128077976Y-125808095D01*
X128125595Y-125950952D01*
X128697023Y-126522380D01*
X128077976Y-126522380D01*
X127697023Y-125617619D02*
X127649404Y-125570000D01*
X127554166Y-125522380D01*
X127316071Y-125522380D01*
X127220833Y-125570000D01*
X127173214Y-125617619D01*
X127125595Y-125712857D01*
X127125595Y-125808095D01*
X127173214Y-125950952D01*
X127744642Y-126522380D01*
X127125595Y-126522380D01*
%LPC*%
G36*
G01*
X123762500Y-113075000D02*
X124237500Y-113075000D01*
G75*
G02*
X124475000Y-113312500I0J-237500D01*
G01*
X124475000Y-113912500D01*
G75*
G02*
X124237500Y-114150000I-237500J0D01*
G01*
X123762500Y-114150000D01*
G75*
G02*
X123525000Y-113912500I0J237500D01*
G01*
X123525000Y-113312500D01*
G75*
G02*
X123762500Y-113075000I237500J0D01*
G01*
G37*
G36*
G01*
X123762500Y-111350000D02*
X124237500Y-111350000D01*
G75*
G02*
X124475000Y-111587500I0J-237500D01*
G01*
X124475000Y-112187500D01*
G75*
G02*
X124237500Y-112425000I-237500J0D01*
G01*
X123762500Y-112425000D01*
G75*
G02*
X123525000Y-112187500I0J237500D01*
G01*
X123525000Y-111587500D01*
G75*
G02*
X123762500Y-111350000I237500J0D01*
G01*
G37*
G36*
G01*
X129012500Y-118462500D02*
X129487500Y-118462500D01*
G75*
G02*
X129725000Y-118700000I0J-237500D01*
G01*
X129725000Y-119300000D01*
G75*
G02*
X129487500Y-119537500I-237500J0D01*
G01*
X129012500Y-119537500D01*
G75*
G02*
X128775000Y-119300000I0J237500D01*
G01*
X128775000Y-118700000D01*
G75*
G02*
X129012500Y-118462500I237500J0D01*
G01*
G37*
G36*
G01*
X129012500Y-116737500D02*
X129487500Y-116737500D01*
G75*
G02*
X129725000Y-116975000I0J-237500D01*
G01*
X129725000Y-117575000D01*
G75*
G02*
X129487500Y-117812500I-237500J0D01*
G01*
X129012500Y-117812500D01*
G75*
G02*
X128775000Y-117575000I0J237500D01*
G01*
X128775000Y-116975000D01*
G75*
G02*
X129012500Y-116737500I237500J0D01*
G01*
G37*
G36*
G01*
X117287500Y-119762500D02*
X117287500Y-120237500D01*
G75*
G02*
X117050000Y-120475000I-237500J0D01*
G01*
X116450000Y-120475000D01*
G75*
G02*
X116212500Y-120237500I0J237500D01*
G01*
X116212500Y-119762500D01*
G75*
G02*
X116450000Y-119525000I237500J0D01*
G01*
X117050000Y-119525000D01*
G75*
G02*
X117287500Y-119762500I0J-237500D01*
G01*
G37*
G36*
G01*
X119012500Y-119762500D02*
X119012500Y-120237500D01*
G75*
G02*
X118775000Y-120475000I-237500J0D01*
G01*
X118175000Y-120475000D01*
G75*
G02*
X117937500Y-120237500I0J237500D01*
G01*
X117937500Y-119762500D01*
G75*
G02*
X118175000Y-119525000I237500J0D01*
G01*
X118775000Y-119525000D01*
G75*
G02*
X119012500Y-119762500I0J-237500D01*
G01*
G37*
G36*
G01*
X128062500Y-127262500D02*
X128062500Y-127737500D01*
G75*
G02*
X127825000Y-127975000I-237500J0D01*
G01*
X127225000Y-127975000D01*
G75*
G02*
X126987500Y-127737500I0J237500D01*
G01*
X126987500Y-127262500D01*
G75*
G02*
X127225000Y-127025000I237500J0D01*
G01*
X127825000Y-127025000D01*
G75*
G02*
X128062500Y-127262500I0J-237500D01*
G01*
G37*
G36*
G01*
X129787500Y-127262500D02*
X129787500Y-127737500D01*
G75*
G02*
X129550000Y-127975000I-237500J0D01*
G01*
X128950000Y-127975000D01*
G75*
G02*
X128712500Y-127737500I0J237500D01*
G01*
X128712500Y-127262500D01*
G75*
G02*
X128950000Y-127025000I237500J0D01*
G01*
X129550000Y-127025000D01*
G75*
G02*
X129787500Y-127262500I0J-237500D01*
G01*
G37*
D14*
X140290000Y-151750000D03*
D15*
X137750000Y-151750000D03*
D16*
X134750000Y-119370000D03*
X134750000Y-124250000D03*
D14*
X106500000Y-145020000D03*
X106500000Y-142480000D03*
X106500000Y-139940000D03*
X106500000Y-137400000D03*
X106500000Y-134860000D03*
X106500000Y-132320000D03*
X106500000Y-129780000D03*
X106500000Y-127240000D03*
X106500000Y-124700000D03*
X106500000Y-122160000D03*
X106500000Y-119620000D03*
X106500000Y-117080000D03*
X106500000Y-114540000D03*
D15*
X106500000Y-112000000D03*
D14*
X102500000Y-119620000D03*
X102500000Y-117080000D03*
X102500000Y-114540000D03*
D15*
X102500000Y-112000000D03*
D14*
X102500000Y-124630000D03*
X102500000Y-127170000D03*
X102500000Y-129710000D03*
D15*
X102500000Y-132250000D03*
D17*
X125110000Y-148750000D03*
X130890000Y-148750000D03*
D18*
X105500000Y-149250000D03*
D19*
X105500000Y-149250000D03*
D18*
X105500000Y-45250000D03*
D19*
X105500000Y-45250000D03*
D18*
X181500000Y-45250000D03*
D19*
X181500000Y-45250000D03*
D18*
X181500000Y-149250000D03*
D19*
X181500000Y-149250000D03*
D20*
X120500000Y-54250000D03*
X148500000Y-54250000D03*
M02*
