G04 #@! TF.GenerationSoftware,KiCad,Pcbnew,(5.1.10)-1*
G04 #@! TF.CreationDate,2021-09-06T19:40:46-04:00*
G04 #@! TF.ProjectId,Lithium_Ion_Pack,4c697468-6975-46d5-9f49-6f6e5f506163,A0*
G04 #@! TF.SameCoordinates,Original*
G04 #@! TF.FileFunction,Paste,Top*
G04 #@! TF.FilePolarity,Positive*
%FSLAX46Y46*%
G04 Gerber Fmt 4.6, Leading zero omitted, Abs format (unit mm)*
G04 Created by KiCad (PCBNEW (5.1.10)-1) date 2021-09-06 19:40:46*
%MOMM*%
%LPD*%
G01*
G04 APERTURE LIST*
%ADD10R,1.500000X0.450000*%
%ADD11R,1.500000X4.700000*%
%ADD12R,0.900000X1.000000*%
%ADD13R,2.000000X0.650000*%
%ADD14R,10.000000X10.000000*%
%ADD15R,4.550000X5.250000*%
%ADD16R,4.600000X1.100000*%
%ADD17R,0.400000X0.510000*%
%ADD18R,0.510000X0.400000*%
%ADD19R,0.600000X1.150000*%
%ADD20R,0.300000X1.150000*%
%ADD21R,2.180000X2.000000*%
%ADD22R,3.500000X1.800000*%
%ADD23R,0.800000X0.900000*%
%ADD24R,2.300000X3.500000*%
%ADD25R,0.450000X1.500000*%
G04 APERTURE END LIST*
D10*
X165330000Y-121750000D03*
X162670000Y-122400000D03*
X162670000Y-121100000D03*
X165330000Y-108250000D03*
X162670000Y-108900000D03*
X162670000Y-107600000D03*
X165330000Y-94750000D03*
X162670000Y-95400000D03*
X162670000Y-94100000D03*
X165330000Y-81250000D03*
X162670000Y-81900000D03*
X162670000Y-80600000D03*
X170000000Y-144250000D03*
X167340000Y-144900000D03*
X167340000Y-143600000D03*
D11*
X155500000Y-137250000D03*
X159100000Y-137250000D03*
X115800000Y-85250000D03*
X112200000Y-85250000D03*
G36*
G01*
X116850000Y-136125000D02*
X116850000Y-134875000D01*
G75*
G02*
X117100000Y-134625000I250000J0D01*
G01*
X117900000Y-134625000D01*
G75*
G02*
X118150000Y-134875000I0J-250000D01*
G01*
X118150000Y-136125000D01*
G75*
G02*
X117900000Y-136375000I-250000J0D01*
G01*
X117100000Y-136375000D01*
G75*
G02*
X116850000Y-136125000I0J250000D01*
G01*
G37*
G36*
G01*
X113750000Y-136125000D02*
X113750000Y-134875000D01*
G75*
G02*
X114000000Y-134625000I250000J0D01*
G01*
X114800000Y-134625000D01*
G75*
G02*
X115050000Y-134875000I0J-250000D01*
G01*
X115050000Y-136125000D01*
G75*
G02*
X114800000Y-136375000I-250000J0D01*
G01*
X114000000Y-136375000D01*
G75*
G02*
X113750000Y-136125000I0J250000D01*
G01*
G37*
G36*
G01*
X116850000Y-139125000D02*
X116850000Y-137875000D01*
G75*
G02*
X117100000Y-137625000I250000J0D01*
G01*
X117900000Y-137625000D01*
G75*
G02*
X118150000Y-137875000I0J-250000D01*
G01*
X118150000Y-139125000D01*
G75*
G02*
X117900000Y-139375000I-250000J0D01*
G01*
X117100000Y-139375000D01*
G75*
G02*
X116850000Y-139125000I0J250000D01*
G01*
G37*
G36*
G01*
X113750000Y-139125000D02*
X113750000Y-137875000D01*
G75*
G02*
X114000000Y-137625000I250000J0D01*
G01*
X114800000Y-137625000D01*
G75*
G02*
X115050000Y-137875000I0J-250000D01*
G01*
X115050000Y-139125000D01*
G75*
G02*
X114800000Y-139375000I-250000J0D01*
G01*
X114000000Y-139375000D01*
G75*
G02*
X113750000Y-139125000I0J250000D01*
G01*
G37*
G36*
G01*
X116850000Y-142125000D02*
X116850000Y-140875000D01*
G75*
G02*
X117100000Y-140625000I250000J0D01*
G01*
X117900000Y-140625000D01*
G75*
G02*
X118150000Y-140875000I0J-250000D01*
G01*
X118150000Y-142125000D01*
G75*
G02*
X117900000Y-142375000I-250000J0D01*
G01*
X117100000Y-142375000D01*
G75*
G02*
X116850000Y-142125000I0J250000D01*
G01*
G37*
G36*
G01*
X113750000Y-142125000D02*
X113750000Y-140875000D01*
G75*
G02*
X114000000Y-140625000I250000J0D01*
G01*
X114800000Y-140625000D01*
G75*
G02*
X115050000Y-140875000I0J-250000D01*
G01*
X115050000Y-142125000D01*
G75*
G02*
X114800000Y-142375000I-250000J0D01*
G01*
X114000000Y-142375000D01*
G75*
G02*
X113750000Y-142125000I0J250000D01*
G01*
G37*
G36*
G01*
X119375000Y-147987500D02*
X118125000Y-147987500D01*
G75*
G02*
X117875000Y-147737500I0J250000D01*
G01*
X117875000Y-146812500D01*
G75*
G02*
X118125000Y-146562500I250000J0D01*
G01*
X119375000Y-146562500D01*
G75*
G02*
X119625000Y-146812500I0J-250000D01*
G01*
X119625000Y-147737500D01*
G75*
G02*
X119375000Y-147987500I-250000J0D01*
G01*
G37*
G36*
G01*
X119375000Y-150962500D02*
X118125000Y-150962500D01*
G75*
G02*
X117875000Y-150712500I0J250000D01*
G01*
X117875000Y-149787500D01*
G75*
G02*
X118125000Y-149537500I250000J0D01*
G01*
X119375000Y-149537500D01*
G75*
G02*
X119625000Y-149787500I0J-250000D01*
G01*
X119625000Y-150712500D01*
G75*
G02*
X119375000Y-150962500I-250000J0D01*
G01*
G37*
G36*
G01*
X116125000Y-147987500D02*
X114875000Y-147987500D01*
G75*
G02*
X114625000Y-147737500I0J250000D01*
G01*
X114625000Y-146812500D01*
G75*
G02*
X114875000Y-146562500I250000J0D01*
G01*
X116125000Y-146562500D01*
G75*
G02*
X116375000Y-146812500I0J-250000D01*
G01*
X116375000Y-147737500D01*
G75*
G02*
X116125000Y-147987500I-250000J0D01*
G01*
G37*
G36*
G01*
X116125000Y-150962500D02*
X114875000Y-150962500D01*
G75*
G02*
X114625000Y-150712500I0J250000D01*
G01*
X114625000Y-149787500D01*
G75*
G02*
X114875000Y-149537500I250000J0D01*
G01*
X116125000Y-149537500D01*
G75*
G02*
X116375000Y-149787500I0J-250000D01*
G01*
X116375000Y-150712500D01*
G75*
G02*
X116125000Y-150962500I-250000J0D01*
G01*
G37*
G36*
G01*
X112875000Y-147987500D02*
X111625000Y-147987500D01*
G75*
G02*
X111375000Y-147737500I0J250000D01*
G01*
X111375000Y-146812500D01*
G75*
G02*
X111625000Y-146562500I250000J0D01*
G01*
X112875000Y-146562500D01*
G75*
G02*
X113125000Y-146812500I0J-250000D01*
G01*
X113125000Y-147737500D01*
G75*
G02*
X112875000Y-147987500I-250000J0D01*
G01*
G37*
G36*
G01*
X112875000Y-150962500D02*
X111625000Y-150962500D01*
G75*
G02*
X111375000Y-150712500I0J250000D01*
G01*
X111375000Y-149787500D01*
G75*
G02*
X111625000Y-149537500I250000J0D01*
G01*
X112875000Y-149537500D01*
G75*
G02*
X113125000Y-149787500I0J-250000D01*
G01*
X113125000Y-150712500D01*
G75*
G02*
X112875000Y-150962500I-250000J0D01*
G01*
G37*
D12*
X147550000Y-151550000D03*
X147550000Y-149950000D03*
X143450000Y-151550000D03*
X143450000Y-149950000D03*
G36*
G01*
X130200000Y-138375000D02*
X130200000Y-137125000D01*
G75*
G02*
X130450000Y-136875000I250000J0D01*
G01*
X131250000Y-136875000D01*
G75*
G02*
X131500000Y-137125000I0J-250000D01*
G01*
X131500000Y-138375000D01*
G75*
G02*
X131250000Y-138625000I-250000J0D01*
G01*
X130450000Y-138625000D01*
G75*
G02*
X130200000Y-138375000I0J250000D01*
G01*
G37*
G36*
G01*
X127100000Y-138375000D02*
X127100000Y-137125000D01*
G75*
G02*
X127350000Y-136875000I250000J0D01*
G01*
X128150000Y-136875000D01*
G75*
G02*
X128400000Y-137125000I0J-250000D01*
G01*
X128400000Y-138375000D01*
G75*
G02*
X128150000Y-138625000I-250000J0D01*
G01*
X127350000Y-138625000D01*
G75*
G02*
X127100000Y-138375000I0J250000D01*
G01*
G37*
D13*
X141710000Y-131550000D03*
X141710000Y-132500000D03*
X141710000Y-133450000D03*
X138290000Y-133450000D03*
X138290000Y-132500000D03*
X138290000Y-131550000D03*
G36*
G01*
X146125000Y-71300000D02*
X144875000Y-71300000D01*
G75*
G02*
X144625000Y-71050000I0J250000D01*
G01*
X144625000Y-70250000D01*
G75*
G02*
X144875000Y-70000000I250000J0D01*
G01*
X146125000Y-70000000D01*
G75*
G02*
X146375000Y-70250000I0J-250000D01*
G01*
X146375000Y-71050000D01*
G75*
G02*
X146125000Y-71300000I-250000J0D01*
G01*
G37*
G36*
G01*
X146125000Y-74400000D02*
X144875000Y-74400000D01*
G75*
G02*
X144625000Y-74150000I0J250000D01*
G01*
X144625000Y-73350000D01*
G75*
G02*
X144875000Y-73100000I250000J0D01*
G01*
X146125000Y-73100000D01*
G75*
G02*
X146375000Y-73350000I0J-250000D01*
G01*
X146375000Y-74150000D01*
G75*
G02*
X146125000Y-74400000I-250000J0D01*
G01*
G37*
G36*
G01*
X142125000Y-71400000D02*
X140875000Y-71400000D01*
G75*
G02*
X140625000Y-71150000I0J250000D01*
G01*
X140625000Y-70350000D01*
G75*
G02*
X140875000Y-70100000I250000J0D01*
G01*
X142125000Y-70100000D01*
G75*
G02*
X142375000Y-70350000I0J-250000D01*
G01*
X142375000Y-71150000D01*
G75*
G02*
X142125000Y-71400000I-250000J0D01*
G01*
G37*
G36*
G01*
X142125000Y-74500000D02*
X140875000Y-74500000D01*
G75*
G02*
X140625000Y-74250000I0J250000D01*
G01*
X140625000Y-73450000D01*
G75*
G02*
X140875000Y-73200000I250000J0D01*
G01*
X142125000Y-73200000D01*
G75*
G02*
X142375000Y-73450000I0J-250000D01*
G01*
X142375000Y-74250000D01*
G75*
G02*
X142125000Y-74500000I-250000J0D01*
G01*
G37*
G36*
G01*
X152350000Y-103875000D02*
X152350000Y-102625000D01*
G75*
G02*
X152600000Y-102375000I250000J0D01*
G01*
X153400000Y-102375000D01*
G75*
G02*
X153650000Y-102625000I0J-250000D01*
G01*
X153650000Y-103875000D01*
G75*
G02*
X153400000Y-104125000I-250000J0D01*
G01*
X152600000Y-104125000D01*
G75*
G02*
X152350000Y-103875000I0J250000D01*
G01*
G37*
G36*
G01*
X149250000Y-103875000D02*
X149250000Y-102625000D01*
G75*
G02*
X149500000Y-102375000I250000J0D01*
G01*
X150300000Y-102375000D01*
G75*
G02*
X150550000Y-102625000I0J-250000D01*
G01*
X150550000Y-103875000D01*
G75*
G02*
X150300000Y-104125000I-250000J0D01*
G01*
X149500000Y-104125000D01*
G75*
G02*
X149250000Y-103875000I0J250000D01*
G01*
G37*
G36*
G01*
X137840000Y-101750000D02*
X137540000Y-101750000D01*
G75*
G02*
X137390000Y-101600000I0J150000D01*
G01*
X137390000Y-99950000D01*
G75*
G02*
X137540000Y-99800000I150000J0D01*
G01*
X137840000Y-99800000D01*
G75*
G02*
X137990000Y-99950000I0J-150000D01*
G01*
X137990000Y-101600000D01*
G75*
G02*
X137840000Y-101750000I-150000J0D01*
G01*
G37*
G36*
G01*
X139110000Y-101750000D02*
X138810000Y-101750000D01*
G75*
G02*
X138660000Y-101600000I0J150000D01*
G01*
X138660000Y-99950000D01*
G75*
G02*
X138810000Y-99800000I150000J0D01*
G01*
X139110000Y-99800000D01*
G75*
G02*
X139260000Y-99950000I0J-150000D01*
G01*
X139260000Y-101600000D01*
G75*
G02*
X139110000Y-101750000I-150000J0D01*
G01*
G37*
G36*
G01*
X140380000Y-101750000D02*
X140080000Y-101750000D01*
G75*
G02*
X139930000Y-101600000I0J150000D01*
G01*
X139930000Y-99950000D01*
G75*
G02*
X140080000Y-99800000I150000J0D01*
G01*
X140380000Y-99800000D01*
G75*
G02*
X140530000Y-99950000I0J-150000D01*
G01*
X140530000Y-101600000D01*
G75*
G02*
X140380000Y-101750000I-150000J0D01*
G01*
G37*
G36*
G01*
X141650000Y-101750000D02*
X141350000Y-101750000D01*
G75*
G02*
X141200000Y-101600000I0J150000D01*
G01*
X141200000Y-99950000D01*
G75*
G02*
X141350000Y-99800000I150000J0D01*
G01*
X141650000Y-99800000D01*
G75*
G02*
X141800000Y-99950000I0J-150000D01*
G01*
X141800000Y-101600000D01*
G75*
G02*
X141650000Y-101750000I-150000J0D01*
G01*
G37*
G36*
G01*
X142920000Y-101750000D02*
X142620000Y-101750000D01*
G75*
G02*
X142470000Y-101600000I0J150000D01*
G01*
X142470000Y-99950000D01*
G75*
G02*
X142620000Y-99800000I150000J0D01*
G01*
X142920000Y-99800000D01*
G75*
G02*
X143070000Y-99950000I0J-150000D01*
G01*
X143070000Y-101600000D01*
G75*
G02*
X142920000Y-101750000I-150000J0D01*
G01*
G37*
G36*
G01*
X144190000Y-101750000D02*
X143890000Y-101750000D01*
G75*
G02*
X143740000Y-101600000I0J150000D01*
G01*
X143740000Y-99950000D01*
G75*
G02*
X143890000Y-99800000I150000J0D01*
G01*
X144190000Y-99800000D01*
G75*
G02*
X144340000Y-99950000I0J-150000D01*
G01*
X144340000Y-101600000D01*
G75*
G02*
X144190000Y-101750000I-150000J0D01*
G01*
G37*
G36*
G01*
X145460000Y-101750000D02*
X145160000Y-101750000D01*
G75*
G02*
X145010000Y-101600000I0J150000D01*
G01*
X145010000Y-99950000D01*
G75*
G02*
X145160000Y-99800000I150000J0D01*
G01*
X145460000Y-99800000D01*
G75*
G02*
X145610000Y-99950000I0J-150000D01*
G01*
X145610000Y-101600000D01*
G75*
G02*
X145460000Y-101750000I-150000J0D01*
G01*
G37*
G36*
G01*
X145460000Y-106700000D02*
X145160000Y-106700000D01*
G75*
G02*
X145010000Y-106550000I0J150000D01*
G01*
X145010000Y-104900000D01*
G75*
G02*
X145160000Y-104750000I150000J0D01*
G01*
X145460000Y-104750000D01*
G75*
G02*
X145610000Y-104900000I0J-150000D01*
G01*
X145610000Y-106550000D01*
G75*
G02*
X145460000Y-106700000I-150000J0D01*
G01*
G37*
G36*
G01*
X144190000Y-106700000D02*
X143890000Y-106700000D01*
G75*
G02*
X143740000Y-106550000I0J150000D01*
G01*
X143740000Y-104900000D01*
G75*
G02*
X143890000Y-104750000I150000J0D01*
G01*
X144190000Y-104750000D01*
G75*
G02*
X144340000Y-104900000I0J-150000D01*
G01*
X144340000Y-106550000D01*
G75*
G02*
X144190000Y-106700000I-150000J0D01*
G01*
G37*
G36*
G01*
X142920000Y-106700000D02*
X142620000Y-106700000D01*
G75*
G02*
X142470000Y-106550000I0J150000D01*
G01*
X142470000Y-104900000D01*
G75*
G02*
X142620000Y-104750000I150000J0D01*
G01*
X142920000Y-104750000D01*
G75*
G02*
X143070000Y-104900000I0J-150000D01*
G01*
X143070000Y-106550000D01*
G75*
G02*
X142920000Y-106700000I-150000J0D01*
G01*
G37*
G36*
G01*
X141650000Y-106700000D02*
X141350000Y-106700000D01*
G75*
G02*
X141200000Y-106550000I0J150000D01*
G01*
X141200000Y-104900000D01*
G75*
G02*
X141350000Y-104750000I150000J0D01*
G01*
X141650000Y-104750000D01*
G75*
G02*
X141800000Y-104900000I0J-150000D01*
G01*
X141800000Y-106550000D01*
G75*
G02*
X141650000Y-106700000I-150000J0D01*
G01*
G37*
G36*
G01*
X140380000Y-106700000D02*
X140080000Y-106700000D01*
G75*
G02*
X139930000Y-106550000I0J150000D01*
G01*
X139930000Y-104900000D01*
G75*
G02*
X140080000Y-104750000I150000J0D01*
G01*
X140380000Y-104750000D01*
G75*
G02*
X140530000Y-104900000I0J-150000D01*
G01*
X140530000Y-106550000D01*
G75*
G02*
X140380000Y-106700000I-150000J0D01*
G01*
G37*
G36*
G01*
X139110000Y-106700000D02*
X138810000Y-106700000D01*
G75*
G02*
X138660000Y-106550000I0J150000D01*
G01*
X138660000Y-104900000D01*
G75*
G02*
X138810000Y-104750000I150000J0D01*
G01*
X139110000Y-104750000D01*
G75*
G02*
X139260000Y-104900000I0J-150000D01*
G01*
X139260000Y-106550000D01*
G75*
G02*
X139110000Y-106700000I-150000J0D01*
G01*
G37*
G36*
G01*
X137840000Y-106700000D02*
X137540000Y-106700000D01*
G75*
G02*
X137390000Y-106550000I0J150000D01*
G01*
X137390000Y-104900000D01*
G75*
G02*
X137540000Y-104750000I150000J0D01*
G01*
X137840000Y-104750000D01*
G75*
G02*
X137990000Y-104900000I0J-150000D01*
G01*
X137990000Y-106550000D01*
G75*
G02*
X137840000Y-106700000I-150000J0D01*
G01*
G37*
G36*
G01*
X135000000Y-65590000D02*
X135000000Y-65290000D01*
G75*
G02*
X135150000Y-65140000I150000J0D01*
G01*
X136800000Y-65140000D01*
G75*
G02*
X136950000Y-65290000I0J-150000D01*
G01*
X136950000Y-65590000D01*
G75*
G02*
X136800000Y-65740000I-150000J0D01*
G01*
X135150000Y-65740000D01*
G75*
G02*
X135000000Y-65590000I0J150000D01*
G01*
G37*
G36*
G01*
X135000000Y-66860000D02*
X135000000Y-66560000D01*
G75*
G02*
X135150000Y-66410000I150000J0D01*
G01*
X136800000Y-66410000D01*
G75*
G02*
X136950000Y-66560000I0J-150000D01*
G01*
X136950000Y-66860000D01*
G75*
G02*
X136800000Y-67010000I-150000J0D01*
G01*
X135150000Y-67010000D01*
G75*
G02*
X135000000Y-66860000I0J150000D01*
G01*
G37*
G36*
G01*
X135000000Y-68130000D02*
X135000000Y-67830000D01*
G75*
G02*
X135150000Y-67680000I150000J0D01*
G01*
X136800000Y-67680000D01*
G75*
G02*
X136950000Y-67830000I0J-150000D01*
G01*
X136950000Y-68130000D01*
G75*
G02*
X136800000Y-68280000I-150000J0D01*
G01*
X135150000Y-68280000D01*
G75*
G02*
X135000000Y-68130000I0J150000D01*
G01*
G37*
G36*
G01*
X135000000Y-69400000D02*
X135000000Y-69100000D01*
G75*
G02*
X135150000Y-68950000I150000J0D01*
G01*
X136800000Y-68950000D01*
G75*
G02*
X136950000Y-69100000I0J-150000D01*
G01*
X136950000Y-69400000D01*
G75*
G02*
X136800000Y-69550000I-150000J0D01*
G01*
X135150000Y-69550000D01*
G75*
G02*
X135000000Y-69400000I0J150000D01*
G01*
G37*
G36*
G01*
X135000000Y-70670000D02*
X135000000Y-70370000D01*
G75*
G02*
X135150000Y-70220000I150000J0D01*
G01*
X136800000Y-70220000D01*
G75*
G02*
X136950000Y-70370000I0J-150000D01*
G01*
X136950000Y-70670000D01*
G75*
G02*
X136800000Y-70820000I-150000J0D01*
G01*
X135150000Y-70820000D01*
G75*
G02*
X135000000Y-70670000I0J150000D01*
G01*
G37*
G36*
G01*
X135000000Y-71940000D02*
X135000000Y-71640000D01*
G75*
G02*
X135150000Y-71490000I150000J0D01*
G01*
X136800000Y-71490000D01*
G75*
G02*
X136950000Y-71640000I0J-150000D01*
G01*
X136950000Y-71940000D01*
G75*
G02*
X136800000Y-72090000I-150000J0D01*
G01*
X135150000Y-72090000D01*
G75*
G02*
X135000000Y-71940000I0J150000D01*
G01*
G37*
G36*
G01*
X135000000Y-73210000D02*
X135000000Y-72910000D01*
G75*
G02*
X135150000Y-72760000I150000J0D01*
G01*
X136800000Y-72760000D01*
G75*
G02*
X136950000Y-72910000I0J-150000D01*
G01*
X136950000Y-73210000D01*
G75*
G02*
X136800000Y-73360000I-150000J0D01*
G01*
X135150000Y-73360000D01*
G75*
G02*
X135000000Y-73210000I0J150000D01*
G01*
G37*
G36*
G01*
X130050000Y-73210000D02*
X130050000Y-72910000D01*
G75*
G02*
X130200000Y-72760000I150000J0D01*
G01*
X131850000Y-72760000D01*
G75*
G02*
X132000000Y-72910000I0J-150000D01*
G01*
X132000000Y-73210000D01*
G75*
G02*
X131850000Y-73360000I-150000J0D01*
G01*
X130200000Y-73360000D01*
G75*
G02*
X130050000Y-73210000I0J150000D01*
G01*
G37*
G36*
G01*
X130050000Y-71940000D02*
X130050000Y-71640000D01*
G75*
G02*
X130200000Y-71490000I150000J0D01*
G01*
X131850000Y-71490000D01*
G75*
G02*
X132000000Y-71640000I0J-150000D01*
G01*
X132000000Y-71940000D01*
G75*
G02*
X131850000Y-72090000I-150000J0D01*
G01*
X130200000Y-72090000D01*
G75*
G02*
X130050000Y-71940000I0J150000D01*
G01*
G37*
G36*
G01*
X130050000Y-70670000D02*
X130050000Y-70370000D01*
G75*
G02*
X130200000Y-70220000I150000J0D01*
G01*
X131850000Y-70220000D01*
G75*
G02*
X132000000Y-70370000I0J-150000D01*
G01*
X132000000Y-70670000D01*
G75*
G02*
X131850000Y-70820000I-150000J0D01*
G01*
X130200000Y-70820000D01*
G75*
G02*
X130050000Y-70670000I0J150000D01*
G01*
G37*
G36*
G01*
X130050000Y-69400000D02*
X130050000Y-69100000D01*
G75*
G02*
X130200000Y-68950000I150000J0D01*
G01*
X131850000Y-68950000D01*
G75*
G02*
X132000000Y-69100000I0J-150000D01*
G01*
X132000000Y-69400000D01*
G75*
G02*
X131850000Y-69550000I-150000J0D01*
G01*
X130200000Y-69550000D01*
G75*
G02*
X130050000Y-69400000I0J150000D01*
G01*
G37*
G36*
G01*
X130050000Y-68130000D02*
X130050000Y-67830000D01*
G75*
G02*
X130200000Y-67680000I150000J0D01*
G01*
X131850000Y-67680000D01*
G75*
G02*
X132000000Y-67830000I0J-150000D01*
G01*
X132000000Y-68130000D01*
G75*
G02*
X131850000Y-68280000I-150000J0D01*
G01*
X130200000Y-68280000D01*
G75*
G02*
X130050000Y-68130000I0J150000D01*
G01*
G37*
G36*
G01*
X130050000Y-66860000D02*
X130050000Y-66560000D01*
G75*
G02*
X130200000Y-66410000I150000J0D01*
G01*
X131850000Y-66410000D01*
G75*
G02*
X132000000Y-66560000I0J-150000D01*
G01*
X132000000Y-66860000D01*
G75*
G02*
X131850000Y-67010000I-150000J0D01*
G01*
X130200000Y-67010000D01*
G75*
G02*
X130050000Y-66860000I0J150000D01*
G01*
G37*
G36*
G01*
X130050000Y-65590000D02*
X130050000Y-65290000D01*
G75*
G02*
X130200000Y-65140000I150000J0D01*
G01*
X131850000Y-65140000D01*
G75*
G02*
X132000000Y-65290000I0J-150000D01*
G01*
X132000000Y-65590000D01*
G75*
G02*
X131850000Y-65740000I-150000J0D01*
G01*
X130200000Y-65740000D01*
G75*
G02*
X130050000Y-65590000I0J150000D01*
G01*
G37*
X158710000Y-143300000D03*
X158710000Y-144250000D03*
X158710000Y-145200000D03*
X155290000Y-145200000D03*
X155290000Y-144250000D03*
X155290000Y-143300000D03*
G36*
G01*
X115800000Y-90995000D02*
X115800000Y-90695000D01*
G75*
G02*
X115950000Y-90545000I150000J0D01*
G01*
X117300000Y-90545000D01*
G75*
G02*
X117450000Y-90695000I0J-150000D01*
G01*
X117450000Y-90995000D01*
G75*
G02*
X117300000Y-91145000I-150000J0D01*
G01*
X115950000Y-91145000D01*
G75*
G02*
X115800000Y-90995000I0J150000D01*
G01*
G37*
G36*
G01*
X115800000Y-92265000D02*
X115800000Y-91965000D01*
G75*
G02*
X115950000Y-91815000I150000J0D01*
G01*
X117300000Y-91815000D01*
G75*
G02*
X117450000Y-91965000I0J-150000D01*
G01*
X117450000Y-92265000D01*
G75*
G02*
X117300000Y-92415000I-150000J0D01*
G01*
X115950000Y-92415000D01*
G75*
G02*
X115800000Y-92265000I0J150000D01*
G01*
G37*
G36*
G01*
X115800000Y-93535000D02*
X115800000Y-93235000D01*
G75*
G02*
X115950000Y-93085000I150000J0D01*
G01*
X117300000Y-93085000D01*
G75*
G02*
X117450000Y-93235000I0J-150000D01*
G01*
X117450000Y-93535000D01*
G75*
G02*
X117300000Y-93685000I-150000J0D01*
G01*
X115950000Y-93685000D01*
G75*
G02*
X115800000Y-93535000I0J150000D01*
G01*
G37*
G36*
G01*
X115800000Y-94805000D02*
X115800000Y-94505000D01*
G75*
G02*
X115950000Y-94355000I150000J0D01*
G01*
X117300000Y-94355000D01*
G75*
G02*
X117450000Y-94505000I0J-150000D01*
G01*
X117450000Y-94805000D01*
G75*
G02*
X117300000Y-94955000I-150000J0D01*
G01*
X115950000Y-94955000D01*
G75*
G02*
X115800000Y-94805000I0J150000D01*
G01*
G37*
G36*
G01*
X110550000Y-94805000D02*
X110550000Y-94505000D01*
G75*
G02*
X110700000Y-94355000I150000J0D01*
G01*
X112050000Y-94355000D01*
G75*
G02*
X112200000Y-94505000I0J-150000D01*
G01*
X112200000Y-94805000D01*
G75*
G02*
X112050000Y-94955000I-150000J0D01*
G01*
X110700000Y-94955000D01*
G75*
G02*
X110550000Y-94805000I0J150000D01*
G01*
G37*
G36*
G01*
X110550000Y-93535000D02*
X110550000Y-93235000D01*
G75*
G02*
X110700000Y-93085000I150000J0D01*
G01*
X112050000Y-93085000D01*
G75*
G02*
X112200000Y-93235000I0J-150000D01*
G01*
X112200000Y-93535000D01*
G75*
G02*
X112050000Y-93685000I-150000J0D01*
G01*
X110700000Y-93685000D01*
G75*
G02*
X110550000Y-93535000I0J150000D01*
G01*
G37*
G36*
G01*
X110550000Y-92265000D02*
X110550000Y-91965000D01*
G75*
G02*
X110700000Y-91815000I150000J0D01*
G01*
X112050000Y-91815000D01*
G75*
G02*
X112200000Y-91965000I0J-150000D01*
G01*
X112200000Y-92265000D01*
G75*
G02*
X112050000Y-92415000I-150000J0D01*
G01*
X110700000Y-92415000D01*
G75*
G02*
X110550000Y-92265000I0J150000D01*
G01*
G37*
G36*
G01*
X110550000Y-90995000D02*
X110550000Y-90695000D01*
G75*
G02*
X110700000Y-90545000I150000J0D01*
G01*
X112050000Y-90545000D01*
G75*
G02*
X112200000Y-90695000I0J-150000D01*
G01*
X112200000Y-90995000D01*
G75*
G02*
X112050000Y-91145000I-150000J0D01*
G01*
X110700000Y-91145000D01*
G75*
G02*
X110550000Y-90995000I0J150000D01*
G01*
G37*
G36*
G01*
X134415001Y-84665000D02*
X133834999Y-84665000D01*
G75*
G02*
X133585000Y-84415001I0J249999D01*
G01*
X133585000Y-83834999D01*
G75*
G02*
X133834999Y-83585000I249999J0D01*
G01*
X134415001Y-83585000D01*
G75*
G02*
X134665000Y-83834999I0J-249999D01*
G01*
X134665000Y-84415001D01*
G75*
G02*
X134415001Y-84665000I-249999J0D01*
G01*
G37*
G36*
G01*
X133165001Y-84665000D02*
X132584999Y-84665000D01*
G75*
G02*
X132335000Y-84415001I0J249999D01*
G01*
X132335000Y-83834999D01*
G75*
G02*
X132584999Y-83585000I249999J0D01*
G01*
X133165001Y-83585000D01*
G75*
G02*
X133415000Y-83834999I0J-249999D01*
G01*
X133415000Y-84415001D01*
G75*
G02*
X133165001Y-84665000I-249999J0D01*
G01*
G37*
G36*
G01*
X134415001Y-85915000D02*
X133834999Y-85915000D01*
G75*
G02*
X133585000Y-85665001I0J249999D01*
G01*
X133585000Y-85084999D01*
G75*
G02*
X133834999Y-84835000I249999J0D01*
G01*
X134415001Y-84835000D01*
G75*
G02*
X134665000Y-85084999I0J-249999D01*
G01*
X134665000Y-85665001D01*
G75*
G02*
X134415001Y-85915000I-249999J0D01*
G01*
G37*
G36*
G01*
X133165001Y-85915000D02*
X132584999Y-85915000D01*
G75*
G02*
X132335000Y-85665001I0J249999D01*
G01*
X132335000Y-85084999D01*
G75*
G02*
X132584999Y-84835000I249999J0D01*
G01*
X133165001Y-84835000D01*
G75*
G02*
X133415000Y-85084999I0J-249999D01*
G01*
X133415000Y-85665001D01*
G75*
G02*
X133165001Y-85915000I-249999J0D01*
G01*
G37*
G36*
G01*
X131912500Y-85875000D02*
X131212500Y-85875000D01*
G75*
G02*
X131150000Y-85812500I0J62500D01*
G01*
X131150000Y-85687500D01*
G75*
G02*
X131212500Y-85625000I62500J0D01*
G01*
X131912500Y-85625000D01*
G75*
G02*
X131975000Y-85687500I0J-62500D01*
G01*
X131975000Y-85812500D01*
G75*
G02*
X131912500Y-85875000I-62500J0D01*
G01*
G37*
G36*
G01*
X131912500Y-85375000D02*
X131212500Y-85375000D01*
G75*
G02*
X131150000Y-85312500I0J62500D01*
G01*
X131150000Y-85187500D01*
G75*
G02*
X131212500Y-85125000I62500J0D01*
G01*
X131912500Y-85125000D01*
G75*
G02*
X131975000Y-85187500I0J-62500D01*
G01*
X131975000Y-85312500D01*
G75*
G02*
X131912500Y-85375000I-62500J0D01*
G01*
G37*
G36*
G01*
X131912500Y-84875000D02*
X131212500Y-84875000D01*
G75*
G02*
X131150000Y-84812500I0J62500D01*
G01*
X131150000Y-84687500D01*
G75*
G02*
X131212500Y-84625000I62500J0D01*
G01*
X131912500Y-84625000D01*
G75*
G02*
X131975000Y-84687500I0J-62500D01*
G01*
X131975000Y-84812500D01*
G75*
G02*
X131912500Y-84875000I-62500J0D01*
G01*
G37*
G36*
G01*
X131912500Y-84375000D02*
X131212500Y-84375000D01*
G75*
G02*
X131150000Y-84312500I0J62500D01*
G01*
X131150000Y-84187500D01*
G75*
G02*
X131212500Y-84125000I62500J0D01*
G01*
X131912500Y-84125000D01*
G75*
G02*
X131975000Y-84187500I0J-62500D01*
G01*
X131975000Y-84312500D01*
G75*
G02*
X131912500Y-84375000I-62500J0D01*
G01*
G37*
G36*
G01*
X131912500Y-83875000D02*
X131212500Y-83875000D01*
G75*
G02*
X131150000Y-83812500I0J62500D01*
G01*
X131150000Y-83687500D01*
G75*
G02*
X131212500Y-83625000I62500J0D01*
G01*
X131912500Y-83625000D01*
G75*
G02*
X131975000Y-83687500I0J-62500D01*
G01*
X131975000Y-83812500D01*
G75*
G02*
X131912500Y-83875000I-62500J0D01*
G01*
G37*
G36*
G01*
X132562500Y-83225000D02*
X132437500Y-83225000D01*
G75*
G02*
X132375000Y-83162500I0J62500D01*
G01*
X132375000Y-82462500D01*
G75*
G02*
X132437500Y-82400000I62500J0D01*
G01*
X132562500Y-82400000D01*
G75*
G02*
X132625000Y-82462500I0J-62500D01*
G01*
X132625000Y-83162500D01*
G75*
G02*
X132562500Y-83225000I-62500J0D01*
G01*
G37*
G36*
G01*
X133062500Y-83225000D02*
X132937500Y-83225000D01*
G75*
G02*
X132875000Y-83162500I0J62500D01*
G01*
X132875000Y-82462500D01*
G75*
G02*
X132937500Y-82400000I62500J0D01*
G01*
X133062500Y-82400000D01*
G75*
G02*
X133125000Y-82462500I0J-62500D01*
G01*
X133125000Y-83162500D01*
G75*
G02*
X133062500Y-83225000I-62500J0D01*
G01*
G37*
G36*
G01*
X133562500Y-83225000D02*
X133437500Y-83225000D01*
G75*
G02*
X133375000Y-83162500I0J62500D01*
G01*
X133375000Y-82462500D01*
G75*
G02*
X133437500Y-82400000I62500J0D01*
G01*
X133562500Y-82400000D01*
G75*
G02*
X133625000Y-82462500I0J-62500D01*
G01*
X133625000Y-83162500D01*
G75*
G02*
X133562500Y-83225000I-62500J0D01*
G01*
G37*
G36*
G01*
X134062500Y-83225000D02*
X133937500Y-83225000D01*
G75*
G02*
X133875000Y-83162500I0J62500D01*
G01*
X133875000Y-82462500D01*
G75*
G02*
X133937500Y-82400000I62500J0D01*
G01*
X134062500Y-82400000D01*
G75*
G02*
X134125000Y-82462500I0J-62500D01*
G01*
X134125000Y-83162500D01*
G75*
G02*
X134062500Y-83225000I-62500J0D01*
G01*
G37*
G36*
G01*
X134562500Y-83225000D02*
X134437500Y-83225000D01*
G75*
G02*
X134375000Y-83162500I0J62500D01*
G01*
X134375000Y-82462500D01*
G75*
G02*
X134437500Y-82400000I62500J0D01*
G01*
X134562500Y-82400000D01*
G75*
G02*
X134625000Y-82462500I0J-62500D01*
G01*
X134625000Y-83162500D01*
G75*
G02*
X134562500Y-83225000I-62500J0D01*
G01*
G37*
G36*
G01*
X135787500Y-83875000D02*
X135087500Y-83875000D01*
G75*
G02*
X135025000Y-83812500I0J62500D01*
G01*
X135025000Y-83687500D01*
G75*
G02*
X135087500Y-83625000I62500J0D01*
G01*
X135787500Y-83625000D01*
G75*
G02*
X135850000Y-83687500I0J-62500D01*
G01*
X135850000Y-83812500D01*
G75*
G02*
X135787500Y-83875000I-62500J0D01*
G01*
G37*
G36*
G01*
X135787500Y-84375000D02*
X135087500Y-84375000D01*
G75*
G02*
X135025000Y-84312500I0J62500D01*
G01*
X135025000Y-84187500D01*
G75*
G02*
X135087500Y-84125000I62500J0D01*
G01*
X135787500Y-84125000D01*
G75*
G02*
X135850000Y-84187500I0J-62500D01*
G01*
X135850000Y-84312500D01*
G75*
G02*
X135787500Y-84375000I-62500J0D01*
G01*
G37*
G36*
G01*
X135787500Y-84875000D02*
X135087500Y-84875000D01*
G75*
G02*
X135025000Y-84812500I0J62500D01*
G01*
X135025000Y-84687500D01*
G75*
G02*
X135087500Y-84625000I62500J0D01*
G01*
X135787500Y-84625000D01*
G75*
G02*
X135850000Y-84687500I0J-62500D01*
G01*
X135850000Y-84812500D01*
G75*
G02*
X135787500Y-84875000I-62500J0D01*
G01*
G37*
G36*
G01*
X135787500Y-85375000D02*
X135087500Y-85375000D01*
G75*
G02*
X135025000Y-85312500I0J62500D01*
G01*
X135025000Y-85187500D01*
G75*
G02*
X135087500Y-85125000I62500J0D01*
G01*
X135787500Y-85125000D01*
G75*
G02*
X135850000Y-85187500I0J-62500D01*
G01*
X135850000Y-85312500D01*
G75*
G02*
X135787500Y-85375000I-62500J0D01*
G01*
G37*
G36*
G01*
X135787500Y-85875000D02*
X135087500Y-85875000D01*
G75*
G02*
X135025000Y-85812500I0J62500D01*
G01*
X135025000Y-85687500D01*
G75*
G02*
X135087500Y-85625000I62500J0D01*
G01*
X135787500Y-85625000D01*
G75*
G02*
X135850000Y-85687500I0J-62500D01*
G01*
X135850000Y-85812500D01*
G75*
G02*
X135787500Y-85875000I-62500J0D01*
G01*
G37*
G36*
G01*
X134562500Y-87100000D02*
X134437500Y-87100000D01*
G75*
G02*
X134375000Y-87037500I0J62500D01*
G01*
X134375000Y-86337500D01*
G75*
G02*
X134437500Y-86275000I62500J0D01*
G01*
X134562500Y-86275000D01*
G75*
G02*
X134625000Y-86337500I0J-62500D01*
G01*
X134625000Y-87037500D01*
G75*
G02*
X134562500Y-87100000I-62500J0D01*
G01*
G37*
G36*
G01*
X134062500Y-87100000D02*
X133937500Y-87100000D01*
G75*
G02*
X133875000Y-87037500I0J62500D01*
G01*
X133875000Y-86337500D01*
G75*
G02*
X133937500Y-86275000I62500J0D01*
G01*
X134062500Y-86275000D01*
G75*
G02*
X134125000Y-86337500I0J-62500D01*
G01*
X134125000Y-87037500D01*
G75*
G02*
X134062500Y-87100000I-62500J0D01*
G01*
G37*
G36*
G01*
X133562500Y-87100000D02*
X133437500Y-87100000D01*
G75*
G02*
X133375000Y-87037500I0J62500D01*
G01*
X133375000Y-86337500D01*
G75*
G02*
X133437500Y-86275000I62500J0D01*
G01*
X133562500Y-86275000D01*
G75*
G02*
X133625000Y-86337500I0J-62500D01*
G01*
X133625000Y-87037500D01*
G75*
G02*
X133562500Y-87100000I-62500J0D01*
G01*
G37*
G36*
G01*
X133062500Y-87100000D02*
X132937500Y-87100000D01*
G75*
G02*
X132875000Y-87037500I0J62500D01*
G01*
X132875000Y-86337500D01*
G75*
G02*
X132937500Y-86275000I62500J0D01*
G01*
X133062500Y-86275000D01*
G75*
G02*
X133125000Y-86337500I0J-62500D01*
G01*
X133125000Y-87037500D01*
G75*
G02*
X133062500Y-87100000I-62500J0D01*
G01*
G37*
G36*
G01*
X132562500Y-87100000D02*
X132437500Y-87100000D01*
G75*
G02*
X132375000Y-87037500I0J62500D01*
G01*
X132375000Y-86337500D01*
G75*
G02*
X132437500Y-86275000I62500J0D01*
G01*
X132562500Y-86275000D01*
G75*
G02*
X132625000Y-86337500I0J-62500D01*
G01*
X132625000Y-87037500D01*
G75*
G02*
X132562500Y-87100000I-62500J0D01*
G01*
G37*
G36*
G01*
X123065000Y-118885000D02*
X123065000Y-119515000D01*
G75*
G02*
X122815000Y-119765000I-250000J0D01*
G01*
X122185000Y-119765000D01*
G75*
G02*
X121935000Y-119515000I0J250000D01*
G01*
X121935000Y-118885000D01*
G75*
G02*
X122185000Y-118635000I250000J0D01*
G01*
X122815000Y-118635000D01*
G75*
G02*
X123065000Y-118885000I0J-250000D01*
G01*
G37*
G36*
G01*
X123065000Y-120285000D02*
X123065000Y-120915000D01*
G75*
G02*
X122815000Y-121165000I-250000J0D01*
G01*
X122185000Y-121165000D01*
G75*
G02*
X121935000Y-120915000I0J250000D01*
G01*
X121935000Y-120285000D01*
G75*
G02*
X122185000Y-120035000I250000J0D01*
G01*
X122815000Y-120035000D01*
G75*
G02*
X123065000Y-120285000I0J-250000D01*
G01*
G37*
G36*
G01*
X123065000Y-121685000D02*
X123065000Y-122315000D01*
G75*
G02*
X122815000Y-122565000I-250000J0D01*
G01*
X122185000Y-122565000D01*
G75*
G02*
X121935000Y-122315000I0J250000D01*
G01*
X121935000Y-121685000D01*
G75*
G02*
X122185000Y-121435000I250000J0D01*
G01*
X122815000Y-121435000D01*
G75*
G02*
X123065000Y-121685000I0J-250000D01*
G01*
G37*
G36*
G01*
X123065000Y-123085000D02*
X123065000Y-123715000D01*
G75*
G02*
X122815000Y-123965000I-250000J0D01*
G01*
X122185000Y-123965000D01*
G75*
G02*
X121935000Y-123715000I0J250000D01*
G01*
X121935000Y-123085000D01*
G75*
G02*
X122185000Y-122835000I250000J0D01*
G01*
X122815000Y-122835000D01*
G75*
G02*
X123065000Y-123085000I0J-250000D01*
G01*
G37*
G36*
G01*
X124465000Y-118885000D02*
X124465000Y-119515000D01*
G75*
G02*
X124215000Y-119765000I-250000J0D01*
G01*
X123585000Y-119765000D01*
G75*
G02*
X123335000Y-119515000I0J250000D01*
G01*
X123335000Y-118885000D01*
G75*
G02*
X123585000Y-118635000I250000J0D01*
G01*
X124215000Y-118635000D01*
G75*
G02*
X124465000Y-118885000I0J-250000D01*
G01*
G37*
G36*
G01*
X124465000Y-120285000D02*
X124465000Y-120915000D01*
G75*
G02*
X124215000Y-121165000I-250000J0D01*
G01*
X123585000Y-121165000D01*
G75*
G02*
X123335000Y-120915000I0J250000D01*
G01*
X123335000Y-120285000D01*
G75*
G02*
X123585000Y-120035000I250000J0D01*
G01*
X124215000Y-120035000D01*
G75*
G02*
X124465000Y-120285000I0J-250000D01*
G01*
G37*
G36*
G01*
X124465000Y-121685000D02*
X124465000Y-122315000D01*
G75*
G02*
X124215000Y-122565000I-250000J0D01*
G01*
X123585000Y-122565000D01*
G75*
G02*
X123335000Y-122315000I0J250000D01*
G01*
X123335000Y-121685000D01*
G75*
G02*
X123585000Y-121435000I250000J0D01*
G01*
X124215000Y-121435000D01*
G75*
G02*
X124465000Y-121685000I0J-250000D01*
G01*
G37*
G36*
G01*
X124465000Y-123085000D02*
X124465000Y-123715000D01*
G75*
G02*
X124215000Y-123965000I-250000J0D01*
G01*
X123585000Y-123965000D01*
G75*
G02*
X123335000Y-123715000I0J250000D01*
G01*
X123335000Y-123085000D01*
G75*
G02*
X123585000Y-122835000I250000J0D01*
G01*
X124215000Y-122835000D01*
G75*
G02*
X124465000Y-123085000I0J-250000D01*
G01*
G37*
G36*
G01*
X125865000Y-118885000D02*
X125865000Y-119515000D01*
G75*
G02*
X125615000Y-119765000I-250000J0D01*
G01*
X124985000Y-119765000D01*
G75*
G02*
X124735000Y-119515000I0J250000D01*
G01*
X124735000Y-118885000D01*
G75*
G02*
X124985000Y-118635000I250000J0D01*
G01*
X125615000Y-118635000D01*
G75*
G02*
X125865000Y-118885000I0J-250000D01*
G01*
G37*
G36*
G01*
X125865000Y-120285000D02*
X125865000Y-120915000D01*
G75*
G02*
X125615000Y-121165000I-250000J0D01*
G01*
X124985000Y-121165000D01*
G75*
G02*
X124735000Y-120915000I0J250000D01*
G01*
X124735000Y-120285000D01*
G75*
G02*
X124985000Y-120035000I250000J0D01*
G01*
X125615000Y-120035000D01*
G75*
G02*
X125865000Y-120285000I0J-250000D01*
G01*
G37*
G36*
G01*
X125865000Y-121685000D02*
X125865000Y-122315000D01*
G75*
G02*
X125615000Y-122565000I-250000J0D01*
G01*
X124985000Y-122565000D01*
G75*
G02*
X124735000Y-122315000I0J250000D01*
G01*
X124735000Y-121685000D01*
G75*
G02*
X124985000Y-121435000I250000J0D01*
G01*
X125615000Y-121435000D01*
G75*
G02*
X125865000Y-121685000I0J-250000D01*
G01*
G37*
G36*
G01*
X125865000Y-123085000D02*
X125865000Y-123715000D01*
G75*
G02*
X125615000Y-123965000I-250000J0D01*
G01*
X124985000Y-123965000D01*
G75*
G02*
X124735000Y-123715000I0J250000D01*
G01*
X124735000Y-123085000D01*
G75*
G02*
X124985000Y-122835000I250000J0D01*
G01*
X125615000Y-122835000D01*
G75*
G02*
X125865000Y-123085000I0J-250000D01*
G01*
G37*
G36*
G01*
X127265000Y-118885000D02*
X127265000Y-119515000D01*
G75*
G02*
X127015000Y-119765000I-250000J0D01*
G01*
X126385000Y-119765000D01*
G75*
G02*
X126135000Y-119515000I0J250000D01*
G01*
X126135000Y-118885000D01*
G75*
G02*
X126385000Y-118635000I250000J0D01*
G01*
X127015000Y-118635000D01*
G75*
G02*
X127265000Y-118885000I0J-250000D01*
G01*
G37*
G36*
G01*
X127265000Y-120285000D02*
X127265000Y-120915000D01*
G75*
G02*
X127015000Y-121165000I-250000J0D01*
G01*
X126385000Y-121165000D01*
G75*
G02*
X126135000Y-120915000I0J250000D01*
G01*
X126135000Y-120285000D01*
G75*
G02*
X126385000Y-120035000I250000J0D01*
G01*
X127015000Y-120035000D01*
G75*
G02*
X127265000Y-120285000I0J-250000D01*
G01*
G37*
G36*
G01*
X127265000Y-121685000D02*
X127265000Y-122315000D01*
G75*
G02*
X127015000Y-122565000I-250000J0D01*
G01*
X126385000Y-122565000D01*
G75*
G02*
X126135000Y-122315000I0J250000D01*
G01*
X126135000Y-121685000D01*
G75*
G02*
X126385000Y-121435000I250000J0D01*
G01*
X127015000Y-121435000D01*
G75*
G02*
X127265000Y-121685000I0J-250000D01*
G01*
G37*
G36*
G01*
X127265000Y-123085000D02*
X127265000Y-123715000D01*
G75*
G02*
X127015000Y-123965000I-250000J0D01*
G01*
X126385000Y-123965000D01*
G75*
G02*
X126135000Y-123715000I0J250000D01*
G01*
X126135000Y-123085000D01*
G75*
G02*
X126385000Y-122835000I250000J0D01*
G01*
X127015000Y-122835000D01*
G75*
G02*
X127265000Y-123085000I0J-250000D01*
G01*
G37*
G36*
G01*
X127475000Y-124362500D02*
X127475000Y-125112500D01*
G75*
G02*
X127412500Y-125175000I-62500J0D01*
G01*
X127287500Y-125175000D01*
G75*
G02*
X127225000Y-125112500I0J62500D01*
G01*
X127225000Y-124362500D01*
G75*
G02*
X127287500Y-124300000I62500J0D01*
G01*
X127412500Y-124300000D01*
G75*
G02*
X127475000Y-124362500I0J-62500D01*
G01*
G37*
G36*
G01*
X126975000Y-124362500D02*
X126975000Y-125112500D01*
G75*
G02*
X126912500Y-125175000I-62500J0D01*
G01*
X126787500Y-125175000D01*
G75*
G02*
X126725000Y-125112500I0J62500D01*
G01*
X126725000Y-124362500D01*
G75*
G02*
X126787500Y-124300000I62500J0D01*
G01*
X126912500Y-124300000D01*
G75*
G02*
X126975000Y-124362500I0J-62500D01*
G01*
G37*
G36*
G01*
X126475000Y-124362500D02*
X126475000Y-125112500D01*
G75*
G02*
X126412500Y-125175000I-62500J0D01*
G01*
X126287500Y-125175000D01*
G75*
G02*
X126225000Y-125112500I0J62500D01*
G01*
X126225000Y-124362500D01*
G75*
G02*
X126287500Y-124300000I62500J0D01*
G01*
X126412500Y-124300000D01*
G75*
G02*
X126475000Y-124362500I0J-62500D01*
G01*
G37*
G36*
G01*
X125975000Y-124362500D02*
X125975000Y-125112500D01*
G75*
G02*
X125912500Y-125175000I-62500J0D01*
G01*
X125787500Y-125175000D01*
G75*
G02*
X125725000Y-125112500I0J62500D01*
G01*
X125725000Y-124362500D01*
G75*
G02*
X125787500Y-124300000I62500J0D01*
G01*
X125912500Y-124300000D01*
G75*
G02*
X125975000Y-124362500I0J-62500D01*
G01*
G37*
G36*
G01*
X125475000Y-124362500D02*
X125475000Y-125112500D01*
G75*
G02*
X125412500Y-125175000I-62500J0D01*
G01*
X125287500Y-125175000D01*
G75*
G02*
X125225000Y-125112500I0J62500D01*
G01*
X125225000Y-124362500D01*
G75*
G02*
X125287500Y-124300000I62500J0D01*
G01*
X125412500Y-124300000D01*
G75*
G02*
X125475000Y-124362500I0J-62500D01*
G01*
G37*
G36*
G01*
X124975000Y-124362500D02*
X124975000Y-125112500D01*
G75*
G02*
X124912500Y-125175000I-62500J0D01*
G01*
X124787500Y-125175000D01*
G75*
G02*
X124725000Y-125112500I0J62500D01*
G01*
X124725000Y-124362500D01*
G75*
G02*
X124787500Y-124300000I62500J0D01*
G01*
X124912500Y-124300000D01*
G75*
G02*
X124975000Y-124362500I0J-62500D01*
G01*
G37*
G36*
G01*
X124475000Y-124362500D02*
X124475000Y-125112500D01*
G75*
G02*
X124412500Y-125175000I-62500J0D01*
G01*
X124287500Y-125175000D01*
G75*
G02*
X124225000Y-125112500I0J62500D01*
G01*
X124225000Y-124362500D01*
G75*
G02*
X124287500Y-124300000I62500J0D01*
G01*
X124412500Y-124300000D01*
G75*
G02*
X124475000Y-124362500I0J-62500D01*
G01*
G37*
G36*
G01*
X123975000Y-124362500D02*
X123975000Y-125112500D01*
G75*
G02*
X123912500Y-125175000I-62500J0D01*
G01*
X123787500Y-125175000D01*
G75*
G02*
X123725000Y-125112500I0J62500D01*
G01*
X123725000Y-124362500D01*
G75*
G02*
X123787500Y-124300000I62500J0D01*
G01*
X123912500Y-124300000D01*
G75*
G02*
X123975000Y-124362500I0J-62500D01*
G01*
G37*
G36*
G01*
X123475000Y-124362500D02*
X123475000Y-125112500D01*
G75*
G02*
X123412500Y-125175000I-62500J0D01*
G01*
X123287500Y-125175000D01*
G75*
G02*
X123225000Y-125112500I0J62500D01*
G01*
X123225000Y-124362500D01*
G75*
G02*
X123287500Y-124300000I62500J0D01*
G01*
X123412500Y-124300000D01*
G75*
G02*
X123475000Y-124362500I0J-62500D01*
G01*
G37*
G36*
G01*
X122975000Y-124362500D02*
X122975000Y-125112500D01*
G75*
G02*
X122912500Y-125175000I-62500J0D01*
G01*
X122787500Y-125175000D01*
G75*
G02*
X122725000Y-125112500I0J62500D01*
G01*
X122725000Y-124362500D01*
G75*
G02*
X122787500Y-124300000I62500J0D01*
G01*
X122912500Y-124300000D01*
G75*
G02*
X122975000Y-124362500I0J-62500D01*
G01*
G37*
G36*
G01*
X122475000Y-124362500D02*
X122475000Y-125112500D01*
G75*
G02*
X122412500Y-125175000I-62500J0D01*
G01*
X122287500Y-125175000D01*
G75*
G02*
X122225000Y-125112500I0J62500D01*
G01*
X122225000Y-124362500D01*
G75*
G02*
X122287500Y-124300000I62500J0D01*
G01*
X122412500Y-124300000D01*
G75*
G02*
X122475000Y-124362500I0J-62500D01*
G01*
G37*
G36*
G01*
X121975000Y-124362500D02*
X121975000Y-125112500D01*
G75*
G02*
X121912500Y-125175000I-62500J0D01*
G01*
X121787500Y-125175000D01*
G75*
G02*
X121725000Y-125112500I0J62500D01*
G01*
X121725000Y-124362500D01*
G75*
G02*
X121787500Y-124300000I62500J0D01*
G01*
X121912500Y-124300000D01*
G75*
G02*
X121975000Y-124362500I0J-62500D01*
G01*
G37*
G36*
G01*
X121600000Y-123987500D02*
X121600000Y-124112500D01*
G75*
G02*
X121537500Y-124175000I-62500J0D01*
G01*
X120787500Y-124175000D01*
G75*
G02*
X120725000Y-124112500I0J62500D01*
G01*
X120725000Y-123987500D01*
G75*
G02*
X120787500Y-123925000I62500J0D01*
G01*
X121537500Y-123925000D01*
G75*
G02*
X121600000Y-123987500I0J-62500D01*
G01*
G37*
G36*
G01*
X121600000Y-123487500D02*
X121600000Y-123612500D01*
G75*
G02*
X121537500Y-123675000I-62500J0D01*
G01*
X120787500Y-123675000D01*
G75*
G02*
X120725000Y-123612500I0J62500D01*
G01*
X120725000Y-123487500D01*
G75*
G02*
X120787500Y-123425000I62500J0D01*
G01*
X121537500Y-123425000D01*
G75*
G02*
X121600000Y-123487500I0J-62500D01*
G01*
G37*
G36*
G01*
X121600000Y-122987500D02*
X121600000Y-123112500D01*
G75*
G02*
X121537500Y-123175000I-62500J0D01*
G01*
X120787500Y-123175000D01*
G75*
G02*
X120725000Y-123112500I0J62500D01*
G01*
X120725000Y-122987500D01*
G75*
G02*
X120787500Y-122925000I62500J0D01*
G01*
X121537500Y-122925000D01*
G75*
G02*
X121600000Y-122987500I0J-62500D01*
G01*
G37*
G36*
G01*
X121600000Y-122487500D02*
X121600000Y-122612500D01*
G75*
G02*
X121537500Y-122675000I-62500J0D01*
G01*
X120787500Y-122675000D01*
G75*
G02*
X120725000Y-122612500I0J62500D01*
G01*
X120725000Y-122487500D01*
G75*
G02*
X120787500Y-122425000I62500J0D01*
G01*
X121537500Y-122425000D01*
G75*
G02*
X121600000Y-122487500I0J-62500D01*
G01*
G37*
G36*
G01*
X121600000Y-121987500D02*
X121600000Y-122112500D01*
G75*
G02*
X121537500Y-122175000I-62500J0D01*
G01*
X120787500Y-122175000D01*
G75*
G02*
X120725000Y-122112500I0J62500D01*
G01*
X120725000Y-121987500D01*
G75*
G02*
X120787500Y-121925000I62500J0D01*
G01*
X121537500Y-121925000D01*
G75*
G02*
X121600000Y-121987500I0J-62500D01*
G01*
G37*
G36*
G01*
X121600000Y-121487500D02*
X121600000Y-121612500D01*
G75*
G02*
X121537500Y-121675000I-62500J0D01*
G01*
X120787500Y-121675000D01*
G75*
G02*
X120725000Y-121612500I0J62500D01*
G01*
X120725000Y-121487500D01*
G75*
G02*
X120787500Y-121425000I62500J0D01*
G01*
X121537500Y-121425000D01*
G75*
G02*
X121600000Y-121487500I0J-62500D01*
G01*
G37*
G36*
G01*
X121600000Y-120987500D02*
X121600000Y-121112500D01*
G75*
G02*
X121537500Y-121175000I-62500J0D01*
G01*
X120787500Y-121175000D01*
G75*
G02*
X120725000Y-121112500I0J62500D01*
G01*
X120725000Y-120987500D01*
G75*
G02*
X120787500Y-120925000I62500J0D01*
G01*
X121537500Y-120925000D01*
G75*
G02*
X121600000Y-120987500I0J-62500D01*
G01*
G37*
G36*
G01*
X121600000Y-120487500D02*
X121600000Y-120612500D01*
G75*
G02*
X121537500Y-120675000I-62500J0D01*
G01*
X120787500Y-120675000D01*
G75*
G02*
X120725000Y-120612500I0J62500D01*
G01*
X120725000Y-120487500D01*
G75*
G02*
X120787500Y-120425000I62500J0D01*
G01*
X121537500Y-120425000D01*
G75*
G02*
X121600000Y-120487500I0J-62500D01*
G01*
G37*
G36*
G01*
X121600000Y-119987500D02*
X121600000Y-120112500D01*
G75*
G02*
X121537500Y-120175000I-62500J0D01*
G01*
X120787500Y-120175000D01*
G75*
G02*
X120725000Y-120112500I0J62500D01*
G01*
X120725000Y-119987500D01*
G75*
G02*
X120787500Y-119925000I62500J0D01*
G01*
X121537500Y-119925000D01*
G75*
G02*
X121600000Y-119987500I0J-62500D01*
G01*
G37*
G36*
G01*
X121600000Y-119487500D02*
X121600000Y-119612500D01*
G75*
G02*
X121537500Y-119675000I-62500J0D01*
G01*
X120787500Y-119675000D01*
G75*
G02*
X120725000Y-119612500I0J62500D01*
G01*
X120725000Y-119487500D01*
G75*
G02*
X120787500Y-119425000I62500J0D01*
G01*
X121537500Y-119425000D01*
G75*
G02*
X121600000Y-119487500I0J-62500D01*
G01*
G37*
G36*
G01*
X121600000Y-118987500D02*
X121600000Y-119112500D01*
G75*
G02*
X121537500Y-119175000I-62500J0D01*
G01*
X120787500Y-119175000D01*
G75*
G02*
X120725000Y-119112500I0J62500D01*
G01*
X120725000Y-118987500D01*
G75*
G02*
X120787500Y-118925000I62500J0D01*
G01*
X121537500Y-118925000D01*
G75*
G02*
X121600000Y-118987500I0J-62500D01*
G01*
G37*
G36*
G01*
X121600000Y-118487500D02*
X121600000Y-118612500D01*
G75*
G02*
X121537500Y-118675000I-62500J0D01*
G01*
X120787500Y-118675000D01*
G75*
G02*
X120725000Y-118612500I0J62500D01*
G01*
X120725000Y-118487500D01*
G75*
G02*
X120787500Y-118425000I62500J0D01*
G01*
X121537500Y-118425000D01*
G75*
G02*
X121600000Y-118487500I0J-62500D01*
G01*
G37*
G36*
G01*
X121975000Y-117487500D02*
X121975000Y-118237500D01*
G75*
G02*
X121912500Y-118300000I-62500J0D01*
G01*
X121787500Y-118300000D01*
G75*
G02*
X121725000Y-118237500I0J62500D01*
G01*
X121725000Y-117487500D01*
G75*
G02*
X121787500Y-117425000I62500J0D01*
G01*
X121912500Y-117425000D01*
G75*
G02*
X121975000Y-117487500I0J-62500D01*
G01*
G37*
G36*
G01*
X122475000Y-117487500D02*
X122475000Y-118237500D01*
G75*
G02*
X122412500Y-118300000I-62500J0D01*
G01*
X122287500Y-118300000D01*
G75*
G02*
X122225000Y-118237500I0J62500D01*
G01*
X122225000Y-117487500D01*
G75*
G02*
X122287500Y-117425000I62500J0D01*
G01*
X122412500Y-117425000D01*
G75*
G02*
X122475000Y-117487500I0J-62500D01*
G01*
G37*
G36*
G01*
X122975000Y-117487500D02*
X122975000Y-118237500D01*
G75*
G02*
X122912500Y-118300000I-62500J0D01*
G01*
X122787500Y-118300000D01*
G75*
G02*
X122725000Y-118237500I0J62500D01*
G01*
X122725000Y-117487500D01*
G75*
G02*
X122787500Y-117425000I62500J0D01*
G01*
X122912500Y-117425000D01*
G75*
G02*
X122975000Y-117487500I0J-62500D01*
G01*
G37*
G36*
G01*
X123475000Y-117487500D02*
X123475000Y-118237500D01*
G75*
G02*
X123412500Y-118300000I-62500J0D01*
G01*
X123287500Y-118300000D01*
G75*
G02*
X123225000Y-118237500I0J62500D01*
G01*
X123225000Y-117487500D01*
G75*
G02*
X123287500Y-117425000I62500J0D01*
G01*
X123412500Y-117425000D01*
G75*
G02*
X123475000Y-117487500I0J-62500D01*
G01*
G37*
G36*
G01*
X123975000Y-117487500D02*
X123975000Y-118237500D01*
G75*
G02*
X123912500Y-118300000I-62500J0D01*
G01*
X123787500Y-118300000D01*
G75*
G02*
X123725000Y-118237500I0J62500D01*
G01*
X123725000Y-117487500D01*
G75*
G02*
X123787500Y-117425000I62500J0D01*
G01*
X123912500Y-117425000D01*
G75*
G02*
X123975000Y-117487500I0J-62500D01*
G01*
G37*
G36*
G01*
X124475000Y-117487500D02*
X124475000Y-118237500D01*
G75*
G02*
X124412500Y-118300000I-62500J0D01*
G01*
X124287500Y-118300000D01*
G75*
G02*
X124225000Y-118237500I0J62500D01*
G01*
X124225000Y-117487500D01*
G75*
G02*
X124287500Y-117425000I62500J0D01*
G01*
X124412500Y-117425000D01*
G75*
G02*
X124475000Y-117487500I0J-62500D01*
G01*
G37*
G36*
G01*
X124975000Y-117487500D02*
X124975000Y-118237500D01*
G75*
G02*
X124912500Y-118300000I-62500J0D01*
G01*
X124787500Y-118300000D01*
G75*
G02*
X124725000Y-118237500I0J62500D01*
G01*
X124725000Y-117487500D01*
G75*
G02*
X124787500Y-117425000I62500J0D01*
G01*
X124912500Y-117425000D01*
G75*
G02*
X124975000Y-117487500I0J-62500D01*
G01*
G37*
G36*
G01*
X125475000Y-117487500D02*
X125475000Y-118237500D01*
G75*
G02*
X125412500Y-118300000I-62500J0D01*
G01*
X125287500Y-118300000D01*
G75*
G02*
X125225000Y-118237500I0J62500D01*
G01*
X125225000Y-117487500D01*
G75*
G02*
X125287500Y-117425000I62500J0D01*
G01*
X125412500Y-117425000D01*
G75*
G02*
X125475000Y-117487500I0J-62500D01*
G01*
G37*
G36*
G01*
X125975000Y-117487500D02*
X125975000Y-118237500D01*
G75*
G02*
X125912500Y-118300000I-62500J0D01*
G01*
X125787500Y-118300000D01*
G75*
G02*
X125725000Y-118237500I0J62500D01*
G01*
X125725000Y-117487500D01*
G75*
G02*
X125787500Y-117425000I62500J0D01*
G01*
X125912500Y-117425000D01*
G75*
G02*
X125975000Y-117487500I0J-62500D01*
G01*
G37*
G36*
G01*
X126475000Y-117487500D02*
X126475000Y-118237500D01*
G75*
G02*
X126412500Y-118300000I-62500J0D01*
G01*
X126287500Y-118300000D01*
G75*
G02*
X126225000Y-118237500I0J62500D01*
G01*
X126225000Y-117487500D01*
G75*
G02*
X126287500Y-117425000I62500J0D01*
G01*
X126412500Y-117425000D01*
G75*
G02*
X126475000Y-117487500I0J-62500D01*
G01*
G37*
G36*
G01*
X126975000Y-117487500D02*
X126975000Y-118237500D01*
G75*
G02*
X126912500Y-118300000I-62500J0D01*
G01*
X126787500Y-118300000D01*
G75*
G02*
X126725000Y-118237500I0J62500D01*
G01*
X126725000Y-117487500D01*
G75*
G02*
X126787500Y-117425000I62500J0D01*
G01*
X126912500Y-117425000D01*
G75*
G02*
X126975000Y-117487500I0J-62500D01*
G01*
G37*
G36*
G01*
X127475000Y-117487500D02*
X127475000Y-118237500D01*
G75*
G02*
X127412500Y-118300000I-62500J0D01*
G01*
X127287500Y-118300000D01*
G75*
G02*
X127225000Y-118237500I0J62500D01*
G01*
X127225000Y-117487500D01*
G75*
G02*
X127287500Y-117425000I62500J0D01*
G01*
X127412500Y-117425000D01*
G75*
G02*
X127475000Y-117487500I0J-62500D01*
G01*
G37*
G36*
G01*
X128475000Y-118487500D02*
X128475000Y-118612500D01*
G75*
G02*
X128412500Y-118675000I-62500J0D01*
G01*
X127662500Y-118675000D01*
G75*
G02*
X127600000Y-118612500I0J62500D01*
G01*
X127600000Y-118487500D01*
G75*
G02*
X127662500Y-118425000I62500J0D01*
G01*
X128412500Y-118425000D01*
G75*
G02*
X128475000Y-118487500I0J-62500D01*
G01*
G37*
G36*
G01*
X128475000Y-118987500D02*
X128475000Y-119112500D01*
G75*
G02*
X128412500Y-119175000I-62500J0D01*
G01*
X127662500Y-119175000D01*
G75*
G02*
X127600000Y-119112500I0J62500D01*
G01*
X127600000Y-118987500D01*
G75*
G02*
X127662500Y-118925000I62500J0D01*
G01*
X128412500Y-118925000D01*
G75*
G02*
X128475000Y-118987500I0J-62500D01*
G01*
G37*
G36*
G01*
X128475000Y-119487500D02*
X128475000Y-119612500D01*
G75*
G02*
X128412500Y-119675000I-62500J0D01*
G01*
X127662500Y-119675000D01*
G75*
G02*
X127600000Y-119612500I0J62500D01*
G01*
X127600000Y-119487500D01*
G75*
G02*
X127662500Y-119425000I62500J0D01*
G01*
X128412500Y-119425000D01*
G75*
G02*
X128475000Y-119487500I0J-62500D01*
G01*
G37*
G36*
G01*
X128475000Y-119987500D02*
X128475000Y-120112500D01*
G75*
G02*
X128412500Y-120175000I-62500J0D01*
G01*
X127662500Y-120175000D01*
G75*
G02*
X127600000Y-120112500I0J62500D01*
G01*
X127600000Y-119987500D01*
G75*
G02*
X127662500Y-119925000I62500J0D01*
G01*
X128412500Y-119925000D01*
G75*
G02*
X128475000Y-119987500I0J-62500D01*
G01*
G37*
G36*
G01*
X128475000Y-120487500D02*
X128475000Y-120612500D01*
G75*
G02*
X128412500Y-120675000I-62500J0D01*
G01*
X127662500Y-120675000D01*
G75*
G02*
X127600000Y-120612500I0J62500D01*
G01*
X127600000Y-120487500D01*
G75*
G02*
X127662500Y-120425000I62500J0D01*
G01*
X128412500Y-120425000D01*
G75*
G02*
X128475000Y-120487500I0J-62500D01*
G01*
G37*
G36*
G01*
X128475000Y-120987500D02*
X128475000Y-121112500D01*
G75*
G02*
X128412500Y-121175000I-62500J0D01*
G01*
X127662500Y-121175000D01*
G75*
G02*
X127600000Y-121112500I0J62500D01*
G01*
X127600000Y-120987500D01*
G75*
G02*
X127662500Y-120925000I62500J0D01*
G01*
X128412500Y-120925000D01*
G75*
G02*
X128475000Y-120987500I0J-62500D01*
G01*
G37*
G36*
G01*
X128475000Y-121487500D02*
X128475000Y-121612500D01*
G75*
G02*
X128412500Y-121675000I-62500J0D01*
G01*
X127662500Y-121675000D01*
G75*
G02*
X127600000Y-121612500I0J62500D01*
G01*
X127600000Y-121487500D01*
G75*
G02*
X127662500Y-121425000I62500J0D01*
G01*
X128412500Y-121425000D01*
G75*
G02*
X128475000Y-121487500I0J-62500D01*
G01*
G37*
G36*
G01*
X128475000Y-121987500D02*
X128475000Y-122112500D01*
G75*
G02*
X128412500Y-122175000I-62500J0D01*
G01*
X127662500Y-122175000D01*
G75*
G02*
X127600000Y-122112500I0J62500D01*
G01*
X127600000Y-121987500D01*
G75*
G02*
X127662500Y-121925000I62500J0D01*
G01*
X128412500Y-121925000D01*
G75*
G02*
X128475000Y-121987500I0J-62500D01*
G01*
G37*
G36*
G01*
X128475000Y-122487500D02*
X128475000Y-122612500D01*
G75*
G02*
X128412500Y-122675000I-62500J0D01*
G01*
X127662500Y-122675000D01*
G75*
G02*
X127600000Y-122612500I0J62500D01*
G01*
X127600000Y-122487500D01*
G75*
G02*
X127662500Y-122425000I62500J0D01*
G01*
X128412500Y-122425000D01*
G75*
G02*
X128475000Y-122487500I0J-62500D01*
G01*
G37*
G36*
G01*
X128475000Y-122987500D02*
X128475000Y-123112500D01*
G75*
G02*
X128412500Y-123175000I-62500J0D01*
G01*
X127662500Y-123175000D01*
G75*
G02*
X127600000Y-123112500I0J62500D01*
G01*
X127600000Y-122987500D01*
G75*
G02*
X127662500Y-122925000I62500J0D01*
G01*
X128412500Y-122925000D01*
G75*
G02*
X128475000Y-122987500I0J-62500D01*
G01*
G37*
G36*
G01*
X128475000Y-123487500D02*
X128475000Y-123612500D01*
G75*
G02*
X128412500Y-123675000I-62500J0D01*
G01*
X127662500Y-123675000D01*
G75*
G02*
X127600000Y-123612500I0J62500D01*
G01*
X127600000Y-123487500D01*
G75*
G02*
X127662500Y-123425000I62500J0D01*
G01*
X128412500Y-123425000D01*
G75*
G02*
X128475000Y-123487500I0J-62500D01*
G01*
G37*
G36*
G01*
X128475000Y-123987500D02*
X128475000Y-124112500D01*
G75*
G02*
X128412500Y-124175000I-62500J0D01*
G01*
X127662500Y-124175000D01*
G75*
G02*
X127600000Y-124112500I0J62500D01*
G01*
X127600000Y-123987500D01*
G75*
G02*
X127662500Y-123925000I62500J0D01*
G01*
X128412500Y-123925000D01*
G75*
G02*
X128475000Y-123987500I0J-62500D01*
G01*
G37*
D14*
X179500000Y-134750000D03*
X179500000Y-54750000D03*
X179500000Y-115250000D03*
X179500000Y-101750000D03*
X179500000Y-88250000D03*
X179500000Y-74750000D03*
G36*
G01*
X148400000Y-49625000D02*
X148400000Y-50875000D01*
G75*
G02*
X148150000Y-51125000I-250000J0D01*
G01*
X147350000Y-51125000D01*
G75*
G02*
X147100000Y-50875000I0J250000D01*
G01*
X147100000Y-49625000D01*
G75*
G02*
X147350000Y-49375000I250000J0D01*
G01*
X148150000Y-49375000D01*
G75*
G02*
X148400000Y-49625000I0J-250000D01*
G01*
G37*
G36*
G01*
X151500000Y-49625000D02*
X151500000Y-50875000D01*
G75*
G02*
X151250000Y-51125000I-250000J0D01*
G01*
X150450000Y-51125000D01*
G75*
G02*
X150200000Y-50875000I0J250000D01*
G01*
X150200000Y-49625000D01*
G75*
G02*
X150450000Y-49375000I250000J0D01*
G01*
X151250000Y-49375000D01*
G75*
G02*
X151500000Y-49625000I0J-250000D01*
G01*
G37*
G36*
G01*
X147650000Y-45875000D02*
X147650000Y-47125000D01*
G75*
G02*
X147400000Y-47375000I-250000J0D01*
G01*
X146600000Y-47375000D01*
G75*
G02*
X146350000Y-47125000I0J250000D01*
G01*
X146350000Y-45875000D01*
G75*
G02*
X146600000Y-45625000I250000J0D01*
G01*
X147400000Y-45625000D01*
G75*
G02*
X147650000Y-45875000I0J-250000D01*
G01*
G37*
G36*
G01*
X150750000Y-45875000D02*
X150750000Y-47125000D01*
G75*
G02*
X150500000Y-47375000I-250000J0D01*
G01*
X149700000Y-47375000D01*
G75*
G02*
X149450000Y-47125000I0J250000D01*
G01*
X149450000Y-45875000D01*
G75*
G02*
X149700000Y-45625000I250000J0D01*
G01*
X150500000Y-45625000D01*
G75*
G02*
X150750000Y-45875000I0J-250000D01*
G01*
G37*
G36*
G01*
X141875000Y-43900000D02*
X140625000Y-43900000D01*
G75*
G02*
X140375000Y-43650000I0J250000D01*
G01*
X140375000Y-42850000D01*
G75*
G02*
X140625000Y-42600000I250000J0D01*
G01*
X141875000Y-42600000D01*
G75*
G02*
X142125000Y-42850000I0J-250000D01*
G01*
X142125000Y-43650000D01*
G75*
G02*
X141875000Y-43900000I-250000J0D01*
G01*
G37*
G36*
G01*
X141875000Y-47000000D02*
X140625000Y-47000000D01*
G75*
G02*
X140375000Y-46750000I0J250000D01*
G01*
X140375000Y-45950000D01*
G75*
G02*
X140625000Y-45700000I250000J0D01*
G01*
X141875000Y-45700000D01*
G75*
G02*
X142125000Y-45950000I0J-250000D01*
G01*
X142125000Y-46750000D01*
G75*
G02*
X141875000Y-47000000I-250000J0D01*
G01*
G37*
G36*
G01*
X169650000Y-121125000D02*
X169650000Y-122375000D01*
G75*
G02*
X169400000Y-122625000I-250000J0D01*
G01*
X168600000Y-122625000D01*
G75*
G02*
X168350000Y-122375000I0J250000D01*
G01*
X168350000Y-121125000D01*
G75*
G02*
X168600000Y-120875000I250000J0D01*
G01*
X169400000Y-120875000D01*
G75*
G02*
X169650000Y-121125000I0J-250000D01*
G01*
G37*
G36*
G01*
X172750000Y-121125000D02*
X172750000Y-122375000D01*
G75*
G02*
X172500000Y-122625000I-250000J0D01*
G01*
X171700000Y-122625000D01*
G75*
G02*
X171450000Y-122375000I0J250000D01*
G01*
X171450000Y-121125000D01*
G75*
G02*
X171700000Y-120875000I250000J0D01*
G01*
X172500000Y-120875000D01*
G75*
G02*
X172750000Y-121125000I0J-250000D01*
G01*
G37*
G36*
G01*
X169650000Y-107625000D02*
X169650000Y-108875000D01*
G75*
G02*
X169400000Y-109125000I-250000J0D01*
G01*
X168600000Y-109125000D01*
G75*
G02*
X168350000Y-108875000I0J250000D01*
G01*
X168350000Y-107625000D01*
G75*
G02*
X168600000Y-107375000I250000J0D01*
G01*
X169400000Y-107375000D01*
G75*
G02*
X169650000Y-107625000I0J-250000D01*
G01*
G37*
G36*
G01*
X172750000Y-107625000D02*
X172750000Y-108875000D01*
G75*
G02*
X172500000Y-109125000I-250000J0D01*
G01*
X171700000Y-109125000D01*
G75*
G02*
X171450000Y-108875000I0J250000D01*
G01*
X171450000Y-107625000D01*
G75*
G02*
X171700000Y-107375000I250000J0D01*
G01*
X172500000Y-107375000D01*
G75*
G02*
X172750000Y-107625000I0J-250000D01*
G01*
G37*
G36*
G01*
X169650000Y-94125000D02*
X169650000Y-95375000D01*
G75*
G02*
X169400000Y-95625000I-250000J0D01*
G01*
X168600000Y-95625000D01*
G75*
G02*
X168350000Y-95375000I0J250000D01*
G01*
X168350000Y-94125000D01*
G75*
G02*
X168600000Y-93875000I250000J0D01*
G01*
X169400000Y-93875000D01*
G75*
G02*
X169650000Y-94125000I0J-250000D01*
G01*
G37*
G36*
G01*
X172750000Y-94125000D02*
X172750000Y-95375000D01*
G75*
G02*
X172500000Y-95625000I-250000J0D01*
G01*
X171700000Y-95625000D01*
G75*
G02*
X171450000Y-95375000I0J250000D01*
G01*
X171450000Y-94125000D01*
G75*
G02*
X171700000Y-93875000I250000J0D01*
G01*
X172500000Y-93875000D01*
G75*
G02*
X172750000Y-94125000I0J-250000D01*
G01*
G37*
G36*
G01*
X169650000Y-80625000D02*
X169650000Y-81875000D01*
G75*
G02*
X169400000Y-82125000I-250000J0D01*
G01*
X168600000Y-82125000D01*
G75*
G02*
X168350000Y-81875000I0J250000D01*
G01*
X168350000Y-80625000D01*
G75*
G02*
X168600000Y-80375000I250000J0D01*
G01*
X169400000Y-80375000D01*
G75*
G02*
X169650000Y-80625000I0J-250000D01*
G01*
G37*
G36*
G01*
X172750000Y-80625000D02*
X172750000Y-81875000D01*
G75*
G02*
X172500000Y-82125000I-250000J0D01*
G01*
X171700000Y-82125000D01*
G75*
G02*
X171450000Y-81875000I0J250000D01*
G01*
X171450000Y-80625000D01*
G75*
G02*
X171700000Y-80375000I250000J0D01*
G01*
X172500000Y-80375000D01*
G75*
G02*
X172750000Y-80625000I0J-250000D01*
G01*
G37*
G36*
G01*
X164850000Y-117875000D02*
X164850000Y-116625000D01*
G75*
G02*
X165100000Y-116375000I250000J0D01*
G01*
X165900000Y-116375000D01*
G75*
G02*
X166150000Y-116625000I0J-250000D01*
G01*
X166150000Y-117875000D01*
G75*
G02*
X165900000Y-118125000I-250000J0D01*
G01*
X165100000Y-118125000D01*
G75*
G02*
X164850000Y-117875000I0J250000D01*
G01*
G37*
G36*
G01*
X161750000Y-117875000D02*
X161750000Y-116625000D01*
G75*
G02*
X162000000Y-116375000I250000J0D01*
G01*
X162800000Y-116375000D01*
G75*
G02*
X163050000Y-116625000I0J-250000D01*
G01*
X163050000Y-117875000D01*
G75*
G02*
X162800000Y-118125000I-250000J0D01*
G01*
X162000000Y-118125000D01*
G75*
G02*
X161750000Y-117875000I0J250000D01*
G01*
G37*
G36*
G01*
X164850000Y-104375000D02*
X164850000Y-103125000D01*
G75*
G02*
X165100000Y-102875000I250000J0D01*
G01*
X165900000Y-102875000D01*
G75*
G02*
X166150000Y-103125000I0J-250000D01*
G01*
X166150000Y-104375000D01*
G75*
G02*
X165900000Y-104625000I-250000J0D01*
G01*
X165100000Y-104625000D01*
G75*
G02*
X164850000Y-104375000I0J250000D01*
G01*
G37*
G36*
G01*
X161750000Y-104375000D02*
X161750000Y-103125000D01*
G75*
G02*
X162000000Y-102875000I250000J0D01*
G01*
X162800000Y-102875000D01*
G75*
G02*
X163050000Y-103125000I0J-250000D01*
G01*
X163050000Y-104375000D01*
G75*
G02*
X162800000Y-104625000I-250000J0D01*
G01*
X162000000Y-104625000D01*
G75*
G02*
X161750000Y-104375000I0J250000D01*
G01*
G37*
G36*
G01*
X164850000Y-90875000D02*
X164850000Y-89625000D01*
G75*
G02*
X165100000Y-89375000I250000J0D01*
G01*
X165900000Y-89375000D01*
G75*
G02*
X166150000Y-89625000I0J-250000D01*
G01*
X166150000Y-90875000D01*
G75*
G02*
X165900000Y-91125000I-250000J0D01*
G01*
X165100000Y-91125000D01*
G75*
G02*
X164850000Y-90875000I0J250000D01*
G01*
G37*
G36*
G01*
X161750000Y-90875000D02*
X161750000Y-89625000D01*
G75*
G02*
X162000000Y-89375000I250000J0D01*
G01*
X162800000Y-89375000D01*
G75*
G02*
X163050000Y-89625000I0J-250000D01*
G01*
X163050000Y-90875000D01*
G75*
G02*
X162800000Y-91125000I-250000J0D01*
G01*
X162000000Y-91125000D01*
G75*
G02*
X161750000Y-90875000I0J250000D01*
G01*
G37*
G36*
G01*
X164950000Y-77375000D02*
X164950000Y-76125000D01*
G75*
G02*
X165200000Y-75875000I250000J0D01*
G01*
X166000000Y-75875000D01*
G75*
G02*
X166250000Y-76125000I0J-250000D01*
G01*
X166250000Y-77375000D01*
G75*
G02*
X166000000Y-77625000I-250000J0D01*
G01*
X165200000Y-77625000D01*
G75*
G02*
X164950000Y-77375000I0J250000D01*
G01*
G37*
G36*
G01*
X161850000Y-77375000D02*
X161850000Y-76125000D01*
G75*
G02*
X162100000Y-75875000I250000J0D01*
G01*
X162900000Y-75875000D01*
G75*
G02*
X163150000Y-76125000I0J-250000D01*
G01*
X163150000Y-77375000D01*
G75*
G02*
X162900000Y-77625000I-250000J0D01*
G01*
X162100000Y-77625000D01*
G75*
G02*
X161850000Y-77375000I0J250000D01*
G01*
G37*
G36*
G01*
X152350000Y-122375000D02*
X152350000Y-121125000D01*
G75*
G02*
X152600000Y-120875000I250000J0D01*
G01*
X153400000Y-120875000D01*
G75*
G02*
X153650000Y-121125000I0J-250000D01*
G01*
X153650000Y-122375000D01*
G75*
G02*
X153400000Y-122625000I-250000J0D01*
G01*
X152600000Y-122625000D01*
G75*
G02*
X152350000Y-122375000I0J250000D01*
G01*
G37*
G36*
G01*
X149250000Y-122375000D02*
X149250000Y-121125000D01*
G75*
G02*
X149500000Y-120875000I250000J0D01*
G01*
X150300000Y-120875000D01*
G75*
G02*
X150550000Y-121125000I0J-250000D01*
G01*
X150550000Y-122375000D01*
G75*
G02*
X150300000Y-122625000I-250000J0D01*
G01*
X149500000Y-122625000D01*
G75*
G02*
X149250000Y-122375000I0J250000D01*
G01*
G37*
G36*
G01*
X152350000Y-108875000D02*
X152350000Y-107625000D01*
G75*
G02*
X152600000Y-107375000I250000J0D01*
G01*
X153400000Y-107375000D01*
G75*
G02*
X153650000Y-107625000I0J-250000D01*
G01*
X153650000Y-108875000D01*
G75*
G02*
X153400000Y-109125000I-250000J0D01*
G01*
X152600000Y-109125000D01*
G75*
G02*
X152350000Y-108875000I0J250000D01*
G01*
G37*
G36*
G01*
X149250000Y-108875000D02*
X149250000Y-107625000D01*
G75*
G02*
X149500000Y-107375000I250000J0D01*
G01*
X150300000Y-107375000D01*
G75*
G02*
X150550000Y-107625000I0J-250000D01*
G01*
X150550000Y-108875000D01*
G75*
G02*
X150300000Y-109125000I-250000J0D01*
G01*
X149500000Y-109125000D01*
G75*
G02*
X149250000Y-108875000I0J250000D01*
G01*
G37*
G36*
G01*
X152350000Y-95375000D02*
X152350000Y-94125000D01*
G75*
G02*
X152600000Y-93875000I250000J0D01*
G01*
X153400000Y-93875000D01*
G75*
G02*
X153650000Y-94125000I0J-250000D01*
G01*
X153650000Y-95375000D01*
G75*
G02*
X153400000Y-95625000I-250000J0D01*
G01*
X152600000Y-95625000D01*
G75*
G02*
X152350000Y-95375000I0J250000D01*
G01*
G37*
G36*
G01*
X149250000Y-95375000D02*
X149250000Y-94125000D01*
G75*
G02*
X149500000Y-93875000I250000J0D01*
G01*
X150300000Y-93875000D01*
G75*
G02*
X150550000Y-94125000I0J-250000D01*
G01*
X150550000Y-95375000D01*
G75*
G02*
X150300000Y-95625000I-250000J0D01*
G01*
X149500000Y-95625000D01*
G75*
G02*
X149250000Y-95375000I0J250000D01*
G01*
G37*
G36*
G01*
X152350000Y-81875000D02*
X152350000Y-80625000D01*
G75*
G02*
X152600000Y-80375000I250000J0D01*
G01*
X153400000Y-80375000D01*
G75*
G02*
X153650000Y-80625000I0J-250000D01*
G01*
X153650000Y-81875000D01*
G75*
G02*
X153400000Y-82125000I-250000J0D01*
G01*
X152600000Y-82125000D01*
G75*
G02*
X152350000Y-81875000I0J250000D01*
G01*
G37*
G36*
G01*
X149250000Y-81875000D02*
X149250000Y-80625000D01*
G75*
G02*
X149500000Y-80375000I250000J0D01*
G01*
X150300000Y-80375000D01*
G75*
G02*
X150550000Y-80625000I0J-250000D01*
G01*
X150550000Y-81875000D01*
G75*
G02*
X150300000Y-82125000I-250000J0D01*
G01*
X149500000Y-82125000D01*
G75*
G02*
X149250000Y-81875000I0J250000D01*
G01*
G37*
G36*
G01*
X138625000Y-92400000D02*
X137375000Y-92400000D01*
G75*
G02*
X137125000Y-92150000I0J250000D01*
G01*
X137125000Y-91350000D01*
G75*
G02*
X137375000Y-91100000I250000J0D01*
G01*
X138625000Y-91100000D01*
G75*
G02*
X138875000Y-91350000I0J-250000D01*
G01*
X138875000Y-92150000D01*
G75*
G02*
X138625000Y-92400000I-250000J0D01*
G01*
G37*
G36*
G01*
X138625000Y-95500000D02*
X137375000Y-95500000D01*
G75*
G02*
X137125000Y-95250000I0J250000D01*
G01*
X137125000Y-94450000D01*
G75*
G02*
X137375000Y-94200000I250000J0D01*
G01*
X138625000Y-94200000D01*
G75*
G02*
X138875000Y-94450000I0J-250000D01*
G01*
X138875000Y-95250000D01*
G75*
G02*
X138625000Y-95500000I-250000J0D01*
G01*
G37*
G36*
G01*
X135375000Y-112100000D02*
X136625000Y-112100000D01*
G75*
G02*
X136875000Y-112350000I0J-250000D01*
G01*
X136875000Y-113150000D01*
G75*
G02*
X136625000Y-113400000I-250000J0D01*
G01*
X135375000Y-113400000D01*
G75*
G02*
X135125000Y-113150000I0J250000D01*
G01*
X135125000Y-112350000D01*
G75*
G02*
X135375000Y-112100000I250000J0D01*
G01*
G37*
G36*
G01*
X135375000Y-109000000D02*
X136625000Y-109000000D01*
G75*
G02*
X136875000Y-109250000I0J-250000D01*
G01*
X136875000Y-110050000D01*
G75*
G02*
X136625000Y-110300000I-250000J0D01*
G01*
X135375000Y-110300000D01*
G75*
G02*
X135125000Y-110050000I0J250000D01*
G01*
X135125000Y-109250000D01*
G75*
G02*
X135375000Y-109000000I250000J0D01*
G01*
G37*
G36*
G01*
X144375000Y-113100000D02*
X145625000Y-113100000D01*
G75*
G02*
X145875000Y-113350000I0J-250000D01*
G01*
X145875000Y-114150000D01*
G75*
G02*
X145625000Y-114400000I-250000J0D01*
G01*
X144375000Y-114400000D01*
G75*
G02*
X144125000Y-114150000I0J250000D01*
G01*
X144125000Y-113350000D01*
G75*
G02*
X144375000Y-113100000I250000J0D01*
G01*
G37*
G36*
G01*
X144375000Y-110000000D02*
X145625000Y-110000000D01*
G75*
G02*
X145875000Y-110250000I0J-250000D01*
G01*
X145875000Y-111050000D01*
G75*
G02*
X145625000Y-111300000I-250000J0D01*
G01*
X144375000Y-111300000D01*
G75*
G02*
X144125000Y-111050000I0J250000D01*
G01*
X144125000Y-110250000D01*
G75*
G02*
X144375000Y-110000000I250000J0D01*
G01*
G37*
G36*
G01*
X158350000Y-89875000D02*
X158350000Y-88625000D01*
G75*
G02*
X158600000Y-88375000I250000J0D01*
G01*
X159400000Y-88375000D01*
G75*
G02*
X159650000Y-88625000I0J-250000D01*
G01*
X159650000Y-89875000D01*
G75*
G02*
X159400000Y-90125000I-250000J0D01*
G01*
X158600000Y-90125000D01*
G75*
G02*
X158350000Y-89875000I0J250000D01*
G01*
G37*
G36*
G01*
X155250000Y-89875000D02*
X155250000Y-88625000D01*
G75*
G02*
X155500000Y-88375000I250000J0D01*
G01*
X156300000Y-88375000D01*
G75*
G02*
X156550000Y-88625000I0J-250000D01*
G01*
X156550000Y-89875000D01*
G75*
G02*
X156300000Y-90125000I-250000J0D01*
G01*
X155500000Y-90125000D01*
G75*
G02*
X155250000Y-89875000I0J250000D01*
G01*
G37*
G36*
G01*
X158350000Y-130375000D02*
X158350000Y-129125000D01*
G75*
G02*
X158600000Y-128875000I250000J0D01*
G01*
X159400000Y-128875000D01*
G75*
G02*
X159650000Y-129125000I0J-250000D01*
G01*
X159650000Y-130375000D01*
G75*
G02*
X159400000Y-130625000I-250000J0D01*
G01*
X158600000Y-130625000D01*
G75*
G02*
X158350000Y-130375000I0J250000D01*
G01*
G37*
G36*
G01*
X155250000Y-130375000D02*
X155250000Y-129125000D01*
G75*
G02*
X155500000Y-128875000I250000J0D01*
G01*
X156300000Y-128875000D01*
G75*
G02*
X156550000Y-129125000I0J-250000D01*
G01*
X156550000Y-130375000D01*
G75*
G02*
X156300000Y-130625000I-250000J0D01*
G01*
X155500000Y-130625000D01*
G75*
G02*
X155250000Y-130375000I0J250000D01*
G01*
G37*
G36*
G01*
X158350000Y-116875000D02*
X158350000Y-115625000D01*
G75*
G02*
X158600000Y-115375000I250000J0D01*
G01*
X159400000Y-115375000D01*
G75*
G02*
X159650000Y-115625000I0J-250000D01*
G01*
X159650000Y-116875000D01*
G75*
G02*
X159400000Y-117125000I-250000J0D01*
G01*
X158600000Y-117125000D01*
G75*
G02*
X158350000Y-116875000I0J250000D01*
G01*
G37*
G36*
G01*
X155250000Y-116875000D02*
X155250000Y-115625000D01*
G75*
G02*
X155500000Y-115375000I250000J0D01*
G01*
X156300000Y-115375000D01*
G75*
G02*
X156550000Y-115625000I0J-250000D01*
G01*
X156550000Y-116875000D01*
G75*
G02*
X156300000Y-117125000I-250000J0D01*
G01*
X155500000Y-117125000D01*
G75*
G02*
X155250000Y-116875000I0J250000D01*
G01*
G37*
G36*
G01*
X158350000Y-103875000D02*
X158350000Y-102625000D01*
G75*
G02*
X158600000Y-102375000I250000J0D01*
G01*
X159400000Y-102375000D01*
G75*
G02*
X159650000Y-102625000I0J-250000D01*
G01*
X159650000Y-103875000D01*
G75*
G02*
X159400000Y-104125000I-250000J0D01*
G01*
X158600000Y-104125000D01*
G75*
G02*
X158350000Y-103875000I0J250000D01*
G01*
G37*
G36*
G01*
X155250000Y-103875000D02*
X155250000Y-102625000D01*
G75*
G02*
X155500000Y-102375000I250000J0D01*
G01*
X156300000Y-102375000D01*
G75*
G02*
X156550000Y-102625000I0J-250000D01*
G01*
X156550000Y-103875000D01*
G75*
G02*
X156300000Y-104125000I-250000J0D01*
G01*
X155500000Y-104125000D01*
G75*
G02*
X155250000Y-103875000I0J250000D01*
G01*
G37*
G36*
G01*
X158350000Y-126375000D02*
X158350000Y-125125000D01*
G75*
G02*
X158600000Y-124875000I250000J0D01*
G01*
X159400000Y-124875000D01*
G75*
G02*
X159650000Y-125125000I0J-250000D01*
G01*
X159650000Y-126375000D01*
G75*
G02*
X159400000Y-126625000I-250000J0D01*
G01*
X158600000Y-126625000D01*
G75*
G02*
X158350000Y-126375000I0J250000D01*
G01*
G37*
G36*
G01*
X155250000Y-126375000D02*
X155250000Y-125125000D01*
G75*
G02*
X155500000Y-124875000I250000J0D01*
G01*
X156300000Y-124875000D01*
G75*
G02*
X156550000Y-125125000I0J-250000D01*
G01*
X156550000Y-126375000D01*
G75*
G02*
X156300000Y-126625000I-250000J0D01*
G01*
X155500000Y-126625000D01*
G75*
G02*
X155250000Y-126375000I0J250000D01*
G01*
G37*
G36*
G01*
X139375000Y-112100000D02*
X140625000Y-112100000D01*
G75*
G02*
X140875000Y-112350000I0J-250000D01*
G01*
X140875000Y-113150000D01*
G75*
G02*
X140625000Y-113400000I-250000J0D01*
G01*
X139375000Y-113400000D01*
G75*
G02*
X139125000Y-113150000I0J250000D01*
G01*
X139125000Y-112350000D01*
G75*
G02*
X139375000Y-112100000I250000J0D01*
G01*
G37*
G36*
G01*
X139375000Y-109000000D02*
X140625000Y-109000000D01*
G75*
G02*
X140875000Y-109250000I0J-250000D01*
G01*
X140875000Y-110050000D01*
G75*
G02*
X140625000Y-110300000I-250000J0D01*
G01*
X139375000Y-110300000D01*
G75*
G02*
X139125000Y-110050000I0J250000D01*
G01*
X139125000Y-109250000D01*
G75*
G02*
X139375000Y-109000000I250000J0D01*
G01*
G37*
G36*
G01*
X158350000Y-112875000D02*
X158350000Y-111625000D01*
G75*
G02*
X158600000Y-111375000I250000J0D01*
G01*
X159400000Y-111375000D01*
G75*
G02*
X159650000Y-111625000I0J-250000D01*
G01*
X159650000Y-112875000D01*
G75*
G02*
X159400000Y-113125000I-250000J0D01*
G01*
X158600000Y-113125000D01*
G75*
G02*
X158350000Y-112875000I0J250000D01*
G01*
G37*
G36*
G01*
X155250000Y-112875000D02*
X155250000Y-111625000D01*
G75*
G02*
X155500000Y-111375000I250000J0D01*
G01*
X156300000Y-111375000D01*
G75*
G02*
X156550000Y-111625000I0J-250000D01*
G01*
X156550000Y-112875000D01*
G75*
G02*
X156300000Y-113125000I-250000J0D01*
G01*
X155500000Y-113125000D01*
G75*
G02*
X155250000Y-112875000I0J250000D01*
G01*
G37*
G36*
G01*
X152350000Y-126375000D02*
X152350000Y-125125000D01*
G75*
G02*
X152600000Y-124875000I250000J0D01*
G01*
X153400000Y-124875000D01*
G75*
G02*
X153650000Y-125125000I0J-250000D01*
G01*
X153650000Y-126375000D01*
G75*
G02*
X153400000Y-126625000I-250000J0D01*
G01*
X152600000Y-126625000D01*
G75*
G02*
X152350000Y-126375000I0J250000D01*
G01*
G37*
G36*
G01*
X149250000Y-126375000D02*
X149250000Y-125125000D01*
G75*
G02*
X149500000Y-124875000I250000J0D01*
G01*
X150300000Y-124875000D01*
G75*
G02*
X150550000Y-125125000I0J-250000D01*
G01*
X150550000Y-126375000D01*
G75*
G02*
X150300000Y-126625000I-250000J0D01*
G01*
X149500000Y-126625000D01*
G75*
G02*
X149250000Y-126375000I0J250000D01*
G01*
G37*
G36*
G01*
X158350000Y-99375000D02*
X158350000Y-98125000D01*
G75*
G02*
X158600000Y-97875000I250000J0D01*
G01*
X159400000Y-97875000D01*
G75*
G02*
X159650000Y-98125000I0J-250000D01*
G01*
X159650000Y-99375000D01*
G75*
G02*
X159400000Y-99625000I-250000J0D01*
G01*
X158600000Y-99625000D01*
G75*
G02*
X158350000Y-99375000I0J250000D01*
G01*
G37*
G36*
G01*
X155250000Y-99375000D02*
X155250000Y-98125000D01*
G75*
G02*
X155500000Y-97875000I250000J0D01*
G01*
X156300000Y-97875000D01*
G75*
G02*
X156550000Y-98125000I0J-250000D01*
G01*
X156550000Y-99375000D01*
G75*
G02*
X156300000Y-99625000I-250000J0D01*
G01*
X155500000Y-99625000D01*
G75*
G02*
X155250000Y-99375000I0J250000D01*
G01*
G37*
G36*
G01*
X152350000Y-112875000D02*
X152350000Y-111625000D01*
G75*
G02*
X152600000Y-111375000I250000J0D01*
G01*
X153400000Y-111375000D01*
G75*
G02*
X153650000Y-111625000I0J-250000D01*
G01*
X153650000Y-112875000D01*
G75*
G02*
X153400000Y-113125000I-250000J0D01*
G01*
X152600000Y-113125000D01*
G75*
G02*
X152350000Y-112875000I0J250000D01*
G01*
G37*
G36*
G01*
X149250000Y-112875000D02*
X149250000Y-111625000D01*
G75*
G02*
X149500000Y-111375000I250000J0D01*
G01*
X150300000Y-111375000D01*
G75*
G02*
X150550000Y-111625000I0J-250000D01*
G01*
X150550000Y-112875000D01*
G75*
G02*
X150300000Y-113125000I-250000J0D01*
G01*
X149500000Y-113125000D01*
G75*
G02*
X149250000Y-112875000I0J250000D01*
G01*
G37*
G36*
G01*
X152350000Y-85875000D02*
X152350000Y-84625000D01*
G75*
G02*
X152600000Y-84375000I250000J0D01*
G01*
X153400000Y-84375000D01*
G75*
G02*
X153650000Y-84625000I0J-250000D01*
G01*
X153650000Y-85875000D01*
G75*
G02*
X153400000Y-86125000I-250000J0D01*
G01*
X152600000Y-86125000D01*
G75*
G02*
X152350000Y-85875000I0J250000D01*
G01*
G37*
G36*
G01*
X149250000Y-85875000D02*
X149250000Y-84625000D01*
G75*
G02*
X149500000Y-84375000I250000J0D01*
G01*
X150300000Y-84375000D01*
G75*
G02*
X150550000Y-84625000I0J-250000D01*
G01*
X150550000Y-85875000D01*
G75*
G02*
X150300000Y-86125000I-250000J0D01*
G01*
X149500000Y-86125000D01*
G75*
G02*
X149250000Y-85875000I0J250000D01*
G01*
G37*
G36*
G01*
X152350000Y-99375000D02*
X152350000Y-98125000D01*
G75*
G02*
X152600000Y-97875000I250000J0D01*
G01*
X153400000Y-97875000D01*
G75*
G02*
X153650000Y-98125000I0J-250000D01*
G01*
X153650000Y-99375000D01*
G75*
G02*
X153400000Y-99625000I-250000J0D01*
G01*
X152600000Y-99625000D01*
G75*
G02*
X152350000Y-99375000I0J250000D01*
G01*
G37*
G36*
G01*
X149250000Y-99375000D02*
X149250000Y-98125000D01*
G75*
G02*
X149500000Y-97875000I250000J0D01*
G01*
X150300000Y-97875000D01*
G75*
G02*
X150550000Y-98125000I0J-250000D01*
G01*
X150550000Y-99375000D01*
G75*
G02*
X150300000Y-99625000I-250000J0D01*
G01*
X149500000Y-99625000D01*
G75*
G02*
X149250000Y-99375000I0J250000D01*
G01*
G37*
G36*
G01*
X132450000Y-142125000D02*
X132450000Y-143375000D01*
G75*
G02*
X132200000Y-143625000I-250000J0D01*
G01*
X131400000Y-143625000D01*
G75*
G02*
X131150000Y-143375000I0J250000D01*
G01*
X131150000Y-142125000D01*
G75*
G02*
X131400000Y-141875000I250000J0D01*
G01*
X132200000Y-141875000D01*
G75*
G02*
X132450000Y-142125000I0J-250000D01*
G01*
G37*
G36*
G01*
X135550000Y-142125000D02*
X135550000Y-143375000D01*
G75*
G02*
X135300000Y-143625000I-250000J0D01*
G01*
X134500000Y-143625000D01*
G75*
G02*
X134250000Y-143375000I0J250000D01*
G01*
X134250000Y-142125000D01*
G75*
G02*
X134500000Y-141875000I250000J0D01*
G01*
X135300000Y-141875000D01*
G75*
G02*
X135550000Y-142125000I0J-250000D01*
G01*
G37*
G36*
G01*
X139775000Y-141700000D02*
X138525000Y-141700000D01*
G75*
G02*
X138275000Y-141450000I0J250000D01*
G01*
X138275000Y-140650000D01*
G75*
G02*
X138525000Y-140400000I250000J0D01*
G01*
X139775000Y-140400000D01*
G75*
G02*
X140025000Y-140650000I0J-250000D01*
G01*
X140025000Y-141450000D01*
G75*
G02*
X139775000Y-141700000I-250000J0D01*
G01*
G37*
G36*
G01*
X139775000Y-144800000D02*
X138525000Y-144800000D01*
G75*
G02*
X138275000Y-144550000I0J250000D01*
G01*
X138275000Y-143750000D01*
G75*
G02*
X138525000Y-143500000I250000J0D01*
G01*
X139775000Y-143500000D01*
G75*
G02*
X140025000Y-143750000I0J-250000D01*
G01*
X140025000Y-144550000D01*
G75*
G02*
X139775000Y-144800000I-250000J0D01*
G01*
G37*
G36*
G01*
X123950000Y-143375000D02*
X123950000Y-142125000D01*
G75*
G02*
X124200000Y-141875000I250000J0D01*
G01*
X125000000Y-141875000D01*
G75*
G02*
X125250000Y-142125000I0J-250000D01*
G01*
X125250000Y-143375000D01*
G75*
G02*
X125000000Y-143625000I-250000J0D01*
G01*
X124200000Y-143625000D01*
G75*
G02*
X123950000Y-143375000I0J250000D01*
G01*
G37*
G36*
G01*
X120850000Y-143375000D02*
X120850000Y-142125000D01*
G75*
G02*
X121100000Y-141875000I250000J0D01*
G01*
X121900000Y-141875000D01*
G75*
G02*
X122150000Y-142125000I0J-250000D01*
G01*
X122150000Y-143375000D01*
G75*
G02*
X121900000Y-143625000I-250000J0D01*
G01*
X121100000Y-143625000D01*
G75*
G02*
X120850000Y-143375000I0J250000D01*
G01*
G37*
G36*
G01*
X128750000Y-77375000D02*
X128750000Y-76125000D01*
G75*
G02*
X129000000Y-75875000I250000J0D01*
G01*
X129800000Y-75875000D01*
G75*
G02*
X130050000Y-76125000I0J-250000D01*
G01*
X130050000Y-77375000D01*
G75*
G02*
X129800000Y-77625000I-250000J0D01*
G01*
X129000000Y-77625000D01*
G75*
G02*
X128750000Y-77375000I0J250000D01*
G01*
G37*
G36*
G01*
X125650000Y-77375000D02*
X125650000Y-76125000D01*
G75*
G02*
X125900000Y-75875000I250000J0D01*
G01*
X126700000Y-75875000D01*
G75*
G02*
X126950000Y-76125000I0J-250000D01*
G01*
X126950000Y-77375000D01*
G75*
G02*
X126700000Y-77625000I-250000J0D01*
G01*
X125900000Y-77625000D01*
G75*
G02*
X125650000Y-77375000I0J250000D01*
G01*
G37*
G36*
G01*
X138125000Y-60900000D02*
X136875000Y-60900000D01*
G75*
G02*
X136625000Y-60650000I0J250000D01*
G01*
X136625000Y-59850000D01*
G75*
G02*
X136875000Y-59600000I250000J0D01*
G01*
X138125000Y-59600000D01*
G75*
G02*
X138375000Y-59850000I0J-250000D01*
G01*
X138375000Y-60650000D01*
G75*
G02*
X138125000Y-60900000I-250000J0D01*
G01*
G37*
G36*
G01*
X138125000Y-64000000D02*
X136875000Y-64000000D01*
G75*
G02*
X136625000Y-63750000I0J250000D01*
G01*
X136625000Y-62950000D01*
G75*
G02*
X136875000Y-62700000I250000J0D01*
G01*
X138125000Y-62700000D01*
G75*
G02*
X138375000Y-62950000I0J-250000D01*
G01*
X138375000Y-63750000D01*
G75*
G02*
X138125000Y-64000000I-250000J0D01*
G01*
G37*
G36*
G01*
X134350000Y-77375000D02*
X134350000Y-76125000D01*
G75*
G02*
X134600000Y-75875000I250000J0D01*
G01*
X135400000Y-75875000D01*
G75*
G02*
X135650000Y-76125000I0J-250000D01*
G01*
X135650000Y-77375000D01*
G75*
G02*
X135400000Y-77625000I-250000J0D01*
G01*
X134600000Y-77625000D01*
G75*
G02*
X134350000Y-77375000I0J250000D01*
G01*
G37*
G36*
G01*
X131250000Y-77375000D02*
X131250000Y-76125000D01*
G75*
G02*
X131500000Y-75875000I250000J0D01*
G01*
X132300000Y-75875000D01*
G75*
G02*
X132550000Y-76125000I0J-250000D01*
G01*
X132550000Y-77375000D01*
G75*
G02*
X132300000Y-77625000I-250000J0D01*
G01*
X131500000Y-77625000D01*
G75*
G02*
X131250000Y-77375000I0J250000D01*
G01*
G37*
G36*
G01*
X121625000Y-71300000D02*
X120375000Y-71300000D01*
G75*
G02*
X120125000Y-71050000I0J250000D01*
G01*
X120125000Y-70250000D01*
G75*
G02*
X120375000Y-70000000I250000J0D01*
G01*
X121625000Y-70000000D01*
G75*
G02*
X121875000Y-70250000I0J-250000D01*
G01*
X121875000Y-71050000D01*
G75*
G02*
X121625000Y-71300000I-250000J0D01*
G01*
G37*
G36*
G01*
X121625000Y-74400000D02*
X120375000Y-74400000D01*
G75*
G02*
X120125000Y-74150000I0J250000D01*
G01*
X120125000Y-73350000D01*
G75*
G02*
X120375000Y-73100000I250000J0D01*
G01*
X121625000Y-73100000D01*
G75*
G02*
X121875000Y-73350000I0J-250000D01*
G01*
X121875000Y-74150000D01*
G75*
G02*
X121625000Y-74400000I-250000J0D01*
G01*
G37*
G36*
G01*
X125625000Y-71300000D02*
X124375000Y-71300000D01*
G75*
G02*
X124125000Y-71050000I0J250000D01*
G01*
X124125000Y-70250000D01*
G75*
G02*
X124375000Y-70000000I250000J0D01*
G01*
X125625000Y-70000000D01*
G75*
G02*
X125875000Y-70250000I0J-250000D01*
G01*
X125875000Y-71050000D01*
G75*
G02*
X125625000Y-71300000I-250000J0D01*
G01*
G37*
G36*
G01*
X125625000Y-74400000D02*
X124375000Y-74400000D01*
G75*
G02*
X124125000Y-74150000I0J250000D01*
G01*
X124125000Y-73350000D01*
G75*
G02*
X124375000Y-73100000I250000J0D01*
G01*
X125625000Y-73100000D01*
G75*
G02*
X125875000Y-73350000I0J-250000D01*
G01*
X125875000Y-74150000D01*
G75*
G02*
X125625000Y-74400000I-250000J0D01*
G01*
G37*
G36*
G01*
X146125000Y-63400000D02*
X144875000Y-63400000D01*
G75*
G02*
X144625000Y-63150000I0J250000D01*
G01*
X144625000Y-62350000D01*
G75*
G02*
X144875000Y-62100000I250000J0D01*
G01*
X146125000Y-62100000D01*
G75*
G02*
X146375000Y-62350000I0J-250000D01*
G01*
X146375000Y-63150000D01*
G75*
G02*
X146125000Y-63400000I-250000J0D01*
G01*
G37*
G36*
G01*
X146125000Y-66500000D02*
X144875000Y-66500000D01*
G75*
G02*
X144625000Y-66250000I0J250000D01*
G01*
X144625000Y-65450000D01*
G75*
G02*
X144875000Y-65200000I250000J0D01*
G01*
X146125000Y-65200000D01*
G75*
G02*
X146375000Y-65450000I0J-250000D01*
G01*
X146375000Y-66250000D01*
G75*
G02*
X146125000Y-66500000I-250000J0D01*
G01*
G37*
G36*
G01*
X142125000Y-63400000D02*
X140875000Y-63400000D01*
G75*
G02*
X140625000Y-63150000I0J250000D01*
G01*
X140625000Y-62350000D01*
G75*
G02*
X140875000Y-62100000I250000J0D01*
G01*
X142125000Y-62100000D01*
G75*
G02*
X142375000Y-62350000I0J-250000D01*
G01*
X142375000Y-63150000D01*
G75*
G02*
X142125000Y-63400000I-250000J0D01*
G01*
G37*
G36*
G01*
X142125000Y-66500000D02*
X140875000Y-66500000D01*
G75*
G02*
X140625000Y-66250000I0J250000D01*
G01*
X140625000Y-65450000D01*
G75*
G02*
X140875000Y-65200000I250000J0D01*
G01*
X142125000Y-65200000D01*
G75*
G02*
X142375000Y-65450000I0J-250000D01*
G01*
X142375000Y-66250000D01*
G75*
G02*
X142125000Y-66500000I-250000J0D01*
G01*
G37*
G36*
G01*
X143862400Y-78140000D02*
X142612400Y-78140000D01*
G75*
G02*
X142362400Y-77890000I0J250000D01*
G01*
X142362400Y-77090000D01*
G75*
G02*
X142612400Y-76840000I250000J0D01*
G01*
X143862400Y-76840000D01*
G75*
G02*
X144112400Y-77090000I0J-250000D01*
G01*
X144112400Y-77890000D01*
G75*
G02*
X143862400Y-78140000I-250000J0D01*
G01*
G37*
G36*
G01*
X143862400Y-81240000D02*
X142612400Y-81240000D01*
G75*
G02*
X142362400Y-80990000I0J250000D01*
G01*
X142362400Y-80190000D01*
G75*
G02*
X142612400Y-79940000I250000J0D01*
G01*
X143862400Y-79940000D01*
G75*
G02*
X144112400Y-80190000I0J-250000D01*
G01*
X144112400Y-80990000D01*
G75*
G02*
X143862400Y-81240000I-250000J0D01*
G01*
G37*
G36*
G01*
X120375000Y-67200000D02*
X121625000Y-67200000D01*
G75*
G02*
X121875000Y-67450000I0J-250000D01*
G01*
X121875000Y-68250000D01*
G75*
G02*
X121625000Y-68500000I-250000J0D01*
G01*
X120375000Y-68500000D01*
G75*
G02*
X120125000Y-68250000I0J250000D01*
G01*
X120125000Y-67450000D01*
G75*
G02*
X120375000Y-67200000I250000J0D01*
G01*
G37*
G36*
G01*
X120375000Y-64100000D02*
X121625000Y-64100000D01*
G75*
G02*
X121875000Y-64350000I0J-250000D01*
G01*
X121875000Y-65150000D01*
G75*
G02*
X121625000Y-65400000I-250000J0D01*
G01*
X120375000Y-65400000D01*
G75*
G02*
X120125000Y-65150000I0J250000D01*
G01*
X120125000Y-64350000D01*
G75*
G02*
X120375000Y-64100000I250000J0D01*
G01*
G37*
G36*
G01*
X124375000Y-67200000D02*
X125625000Y-67200000D01*
G75*
G02*
X125875000Y-67450000I0J-250000D01*
G01*
X125875000Y-68250000D01*
G75*
G02*
X125625000Y-68500000I-250000J0D01*
G01*
X124375000Y-68500000D01*
G75*
G02*
X124125000Y-68250000I0J250000D01*
G01*
X124125000Y-67450000D01*
G75*
G02*
X124375000Y-67200000I250000J0D01*
G01*
G37*
G36*
G01*
X124375000Y-64100000D02*
X125625000Y-64100000D01*
G75*
G02*
X125875000Y-64350000I0J-250000D01*
G01*
X125875000Y-65150000D01*
G75*
G02*
X125625000Y-65400000I-250000J0D01*
G01*
X124375000Y-65400000D01*
G75*
G02*
X124125000Y-65150000I0J250000D01*
G01*
X124125000Y-64350000D01*
G75*
G02*
X124375000Y-64100000I250000J0D01*
G01*
G37*
G36*
G01*
X133875000Y-133350000D02*
X135125000Y-133350000D01*
G75*
G02*
X135375000Y-133600000I0J-250000D01*
G01*
X135375000Y-134400000D01*
G75*
G02*
X135125000Y-134650000I-250000J0D01*
G01*
X133875000Y-134650000D01*
G75*
G02*
X133625000Y-134400000I0J250000D01*
G01*
X133625000Y-133600000D01*
G75*
G02*
X133875000Y-133350000I250000J0D01*
G01*
G37*
G36*
G01*
X133875000Y-130250000D02*
X135125000Y-130250000D01*
G75*
G02*
X135375000Y-130500000I0J-250000D01*
G01*
X135375000Y-131300000D01*
G75*
G02*
X135125000Y-131550000I-250000J0D01*
G01*
X133875000Y-131550000D01*
G75*
G02*
X133625000Y-131300000I0J250000D01*
G01*
X133625000Y-130500000D01*
G75*
G02*
X133875000Y-130250000I250000J0D01*
G01*
G37*
G36*
G01*
X149375000Y-144600000D02*
X150625000Y-144600000D01*
G75*
G02*
X150875000Y-144850000I0J-250000D01*
G01*
X150875000Y-145650000D01*
G75*
G02*
X150625000Y-145900000I-250000J0D01*
G01*
X149375000Y-145900000D01*
G75*
G02*
X149125000Y-145650000I0J250000D01*
G01*
X149125000Y-144850000D01*
G75*
G02*
X149375000Y-144600000I250000J0D01*
G01*
G37*
G36*
G01*
X149375000Y-141500000D02*
X150625000Y-141500000D01*
G75*
G02*
X150875000Y-141750000I0J-250000D01*
G01*
X150875000Y-142550000D01*
G75*
G02*
X150625000Y-142800000I-250000J0D01*
G01*
X149375000Y-142800000D01*
G75*
G02*
X149125000Y-142550000I0J250000D01*
G01*
X149125000Y-141750000D01*
G75*
G02*
X149375000Y-141500000I250000J0D01*
G01*
G37*
G36*
G01*
X146625000Y-142900000D02*
X145375000Y-142900000D01*
G75*
G02*
X145125000Y-142650000I0J250000D01*
G01*
X145125000Y-141850000D01*
G75*
G02*
X145375000Y-141600000I250000J0D01*
G01*
X146625000Y-141600000D01*
G75*
G02*
X146875000Y-141850000I0J-250000D01*
G01*
X146875000Y-142650000D01*
G75*
G02*
X146625000Y-142900000I-250000J0D01*
G01*
G37*
G36*
G01*
X146625000Y-146000000D02*
X145375000Y-146000000D01*
G75*
G02*
X145125000Y-145750000I0J250000D01*
G01*
X145125000Y-144950000D01*
G75*
G02*
X145375000Y-144700000I250000J0D01*
G01*
X146625000Y-144700000D01*
G75*
G02*
X146875000Y-144950000I0J-250000D01*
G01*
X146875000Y-145750000D01*
G75*
G02*
X146625000Y-146000000I-250000J0D01*
G01*
G37*
G36*
G01*
X124875000Y-94600000D02*
X126125000Y-94600000D01*
G75*
G02*
X126375000Y-94850000I0J-250000D01*
G01*
X126375000Y-95650000D01*
G75*
G02*
X126125000Y-95900000I-250000J0D01*
G01*
X124875000Y-95900000D01*
G75*
G02*
X124625000Y-95650000I0J250000D01*
G01*
X124625000Y-94850000D01*
G75*
G02*
X124875000Y-94600000I250000J0D01*
G01*
G37*
G36*
G01*
X124875000Y-91500000D02*
X126125000Y-91500000D01*
G75*
G02*
X126375000Y-91750000I0J-250000D01*
G01*
X126375000Y-92550000D01*
G75*
G02*
X126125000Y-92800000I-250000J0D01*
G01*
X124875000Y-92800000D01*
G75*
G02*
X124625000Y-92550000I0J250000D01*
G01*
X124625000Y-91750000D01*
G75*
G02*
X124875000Y-91500000I250000J0D01*
G01*
G37*
G36*
G01*
X158875000Y-150600000D02*
X160125000Y-150600000D01*
G75*
G02*
X160375000Y-150850000I0J-250000D01*
G01*
X160375000Y-151650000D01*
G75*
G02*
X160125000Y-151900000I-250000J0D01*
G01*
X158875000Y-151900000D01*
G75*
G02*
X158625000Y-151650000I0J250000D01*
G01*
X158625000Y-150850000D01*
G75*
G02*
X158875000Y-150600000I250000J0D01*
G01*
G37*
G36*
G01*
X158875000Y-147500000D02*
X160125000Y-147500000D01*
G75*
G02*
X160375000Y-147750000I0J-250000D01*
G01*
X160375000Y-148550000D01*
G75*
G02*
X160125000Y-148800000I-250000J0D01*
G01*
X158875000Y-148800000D01*
G75*
G02*
X158625000Y-148550000I0J250000D01*
G01*
X158625000Y-147750000D01*
G75*
G02*
X158875000Y-147500000I250000J0D01*
G01*
G37*
G36*
G01*
X169350000Y-148875000D02*
X169350000Y-147625000D01*
G75*
G02*
X169600000Y-147375000I250000J0D01*
G01*
X170400000Y-147375000D01*
G75*
G02*
X170650000Y-147625000I0J-250000D01*
G01*
X170650000Y-148875000D01*
G75*
G02*
X170400000Y-149125000I-250000J0D01*
G01*
X169600000Y-149125000D01*
G75*
G02*
X169350000Y-148875000I0J250000D01*
G01*
G37*
G36*
G01*
X166250000Y-148875000D02*
X166250000Y-147625000D01*
G75*
G02*
X166500000Y-147375000I250000J0D01*
G01*
X167300000Y-147375000D01*
G75*
G02*
X167550000Y-147625000I0J-250000D01*
G01*
X167550000Y-148875000D01*
G75*
G02*
X167300000Y-149125000I-250000J0D01*
G01*
X166500000Y-149125000D01*
G75*
G02*
X166250000Y-148875000I0J250000D01*
G01*
G37*
G36*
G01*
X122625000Y-98900000D02*
X121375000Y-98900000D01*
G75*
G02*
X121125000Y-98650000I0J250000D01*
G01*
X121125000Y-97850000D01*
G75*
G02*
X121375000Y-97600000I250000J0D01*
G01*
X122625000Y-97600000D01*
G75*
G02*
X122875000Y-97850000I0J-250000D01*
G01*
X122875000Y-98650000D01*
G75*
G02*
X122625000Y-98900000I-250000J0D01*
G01*
G37*
G36*
G01*
X122625000Y-102000000D02*
X121375000Y-102000000D01*
G75*
G02*
X121125000Y-101750000I0J250000D01*
G01*
X121125000Y-100950000D01*
G75*
G02*
X121375000Y-100700000I250000J0D01*
G01*
X122625000Y-100700000D01*
G75*
G02*
X122875000Y-100950000I0J-250000D01*
G01*
X122875000Y-101750000D01*
G75*
G02*
X122625000Y-102000000I-250000J0D01*
G01*
G37*
G36*
G01*
X164125000Y-143400000D02*
X162875000Y-143400000D01*
G75*
G02*
X162625000Y-143150000I0J250000D01*
G01*
X162625000Y-142350000D01*
G75*
G02*
X162875000Y-142100000I250000J0D01*
G01*
X164125000Y-142100000D01*
G75*
G02*
X164375000Y-142350000I0J-250000D01*
G01*
X164375000Y-143150000D01*
G75*
G02*
X164125000Y-143400000I-250000J0D01*
G01*
G37*
G36*
G01*
X164125000Y-146500000D02*
X162875000Y-146500000D01*
G75*
G02*
X162625000Y-146250000I0J250000D01*
G01*
X162625000Y-145450000D01*
G75*
G02*
X162875000Y-145200000I250000J0D01*
G01*
X164125000Y-145200000D01*
G75*
G02*
X164375000Y-145450000I0J-250000D01*
G01*
X164375000Y-146250000D01*
G75*
G02*
X164125000Y-146500000I-250000J0D01*
G01*
G37*
G36*
G01*
X152350000Y-150375000D02*
X152350000Y-149125000D01*
G75*
G02*
X152600000Y-148875000I250000J0D01*
G01*
X153400000Y-148875000D01*
G75*
G02*
X153650000Y-149125000I0J-250000D01*
G01*
X153650000Y-150375000D01*
G75*
G02*
X153400000Y-150625000I-250000J0D01*
G01*
X152600000Y-150625000D01*
G75*
G02*
X152350000Y-150375000I0J250000D01*
G01*
G37*
G36*
G01*
X149250000Y-150375000D02*
X149250000Y-149125000D01*
G75*
G02*
X149500000Y-148875000I250000J0D01*
G01*
X150300000Y-148875000D01*
G75*
G02*
X150550000Y-149125000I0J-250000D01*
G01*
X150550000Y-150375000D01*
G75*
G02*
X150300000Y-150625000I-250000J0D01*
G01*
X149500000Y-150625000D01*
G75*
G02*
X149250000Y-150375000I0J250000D01*
G01*
G37*
D15*
X162650000Y-57300000D03*
X167500000Y-51750000D03*
X162650000Y-51750000D03*
X167500000Y-57300000D03*
D16*
X155925000Y-57065000D03*
X155925000Y-51985000D03*
D17*
X159000000Y-44250000D03*
X159500000Y-45540000D03*
X160000000Y-44250000D03*
D10*
X158830000Y-121750000D03*
X156170000Y-122400000D03*
X156170000Y-121100000D03*
X158830000Y-108250000D03*
X156170000Y-108900000D03*
X156170000Y-107600000D03*
X158830000Y-94750000D03*
X156170000Y-95400000D03*
X156170000Y-94100000D03*
X158830000Y-81250000D03*
X156170000Y-81900000D03*
X156170000Y-80600000D03*
D18*
X155355000Y-150250000D03*
X156645000Y-149750000D03*
X155355000Y-149250000D03*
D19*
X124800000Y-147675000D03*
X125600000Y-147675000D03*
X130400000Y-147675000D03*
X131200000Y-147675000D03*
D20*
X126250000Y-147675000D03*
X129750000Y-147675000D03*
X126750000Y-147675000D03*
X129250000Y-147675000D03*
X127250000Y-147675000D03*
X128750000Y-147675000D03*
X127750000Y-147675000D03*
X128250000Y-147675000D03*
D21*
X122890000Y-148250000D03*
X133110000Y-148250000D03*
X122890000Y-152180000D03*
X133110000Y-152180000D03*
G36*
G01*
X124300000Y-134050000D02*
X125700000Y-134050000D01*
G75*
G02*
X125950000Y-134300000I0J-250000D01*
G01*
X125950000Y-135025000D01*
G75*
G02*
X125700000Y-135275000I-250000J0D01*
G01*
X124300000Y-135275000D01*
G75*
G02*
X124050000Y-135025000I0J250000D01*
G01*
X124050000Y-134300000D01*
G75*
G02*
X124300000Y-134050000I250000J0D01*
G01*
G37*
G36*
G01*
X124300000Y-130725000D02*
X125700000Y-130725000D01*
G75*
G02*
X125950000Y-130975000I0J-250000D01*
G01*
X125950000Y-131700000D01*
G75*
G02*
X125700000Y-131950000I-250000J0D01*
G01*
X124300000Y-131950000D01*
G75*
G02*
X124050000Y-131700000I0J250000D01*
G01*
X124050000Y-130975000D01*
G75*
G02*
X124300000Y-130725000I250000J0D01*
G01*
G37*
D22*
X151000000Y-43250000D03*
X146000000Y-43250000D03*
D23*
X128200000Y-143750000D03*
X127250000Y-141750000D03*
X129150000Y-141750000D03*
D24*
X115400000Y-60650000D03*
X115400000Y-55250000D03*
X122000000Y-87150000D03*
X122000000Y-81750000D03*
D25*
X163500000Y-151080000D03*
X162850000Y-148420000D03*
X164150000Y-148420000D03*
G36*
G01*
X167425001Y-64950000D02*
X164574999Y-64950000D01*
G75*
G02*
X164325000Y-64700001I0J249999D01*
G01*
X164325000Y-63799999D01*
G75*
G02*
X164574999Y-63550000I249999J0D01*
G01*
X167425001Y-63550000D01*
G75*
G02*
X167675000Y-63799999I0J-249999D01*
G01*
X167675000Y-64700001D01*
G75*
G02*
X167425001Y-64950000I-249999J0D01*
G01*
G37*
G36*
G01*
X167425001Y-71050000D02*
X164574999Y-71050000D01*
G75*
G02*
X164325000Y-70800001I0J249999D01*
G01*
X164325000Y-69899999D01*
G75*
G02*
X164574999Y-69650000I249999J0D01*
G01*
X167425001Y-69650000D01*
G75*
G02*
X167675000Y-69899999I0J-249999D01*
G01*
X167675000Y-70800001D01*
G75*
G02*
X167425001Y-71050000I-249999J0D01*
G01*
G37*
G36*
G01*
X156425001Y-64950000D02*
X153574999Y-64950000D01*
G75*
G02*
X153325000Y-64700001I0J249999D01*
G01*
X153325000Y-63799999D01*
G75*
G02*
X153574999Y-63550000I249999J0D01*
G01*
X156425001Y-63550000D01*
G75*
G02*
X156675000Y-63799999I0J-249999D01*
G01*
X156675000Y-64700001D01*
G75*
G02*
X156425001Y-64950000I-249999J0D01*
G01*
G37*
G36*
G01*
X156425001Y-71050000D02*
X153574999Y-71050000D01*
G75*
G02*
X153325000Y-70800001I0J249999D01*
G01*
X153325000Y-69899999D01*
G75*
G02*
X153574999Y-69650000I249999J0D01*
G01*
X156425001Y-69650000D01*
G75*
G02*
X156675000Y-69899999I0J-249999D01*
G01*
X156675000Y-70800001D01*
G75*
G02*
X156425001Y-71050000I-249999J0D01*
G01*
G37*
G36*
G01*
X161925001Y-64900000D02*
X159074999Y-64900000D01*
G75*
G02*
X158825000Y-64650001I0J249999D01*
G01*
X158825000Y-63749999D01*
G75*
G02*
X159074999Y-63500000I249999J0D01*
G01*
X161925001Y-63500000D01*
G75*
G02*
X162175000Y-63749999I0J-249999D01*
G01*
X162175000Y-64650001D01*
G75*
G02*
X161925001Y-64900000I-249999J0D01*
G01*
G37*
G36*
G01*
X161925001Y-71000000D02*
X159074999Y-71000000D01*
G75*
G02*
X158825000Y-70750001I0J249999D01*
G01*
X158825000Y-69849999D01*
G75*
G02*
X159074999Y-69600000I249999J0D01*
G01*
X161925001Y-69600000D01*
G75*
G02*
X162175000Y-69849999I0J-249999D01*
G01*
X162175000Y-70750001D01*
G75*
G02*
X161925001Y-71000000I-249999J0D01*
G01*
G37*
G36*
G01*
X150925001Y-64900000D02*
X148074999Y-64900000D01*
G75*
G02*
X147825000Y-64650001I0J249999D01*
G01*
X147825000Y-63749999D01*
G75*
G02*
X148074999Y-63500000I249999J0D01*
G01*
X150925001Y-63500000D01*
G75*
G02*
X151175000Y-63749999I0J-249999D01*
G01*
X151175000Y-64650001D01*
G75*
G02*
X150925001Y-64900000I-249999J0D01*
G01*
G37*
G36*
G01*
X150925001Y-71000000D02*
X148074999Y-71000000D01*
G75*
G02*
X147825000Y-70750001I0J249999D01*
G01*
X147825000Y-69849999D01*
G75*
G02*
X148074999Y-69600000I249999J0D01*
G01*
X150925001Y-69600000D01*
G75*
G02*
X151175000Y-69849999I0J-249999D01*
G01*
X151175000Y-70750001D01*
G75*
G02*
X150925001Y-71000000I-249999J0D01*
G01*
G37*
G36*
G01*
X156650001Y-44162500D02*
X155349999Y-44162500D01*
G75*
G02*
X155100000Y-43912501I0J249999D01*
G01*
X155100000Y-43087499D01*
G75*
G02*
X155349999Y-42837500I249999J0D01*
G01*
X156650001Y-42837500D01*
G75*
G02*
X156900000Y-43087499I0J-249999D01*
G01*
X156900000Y-43912501D01*
G75*
G02*
X156650001Y-44162500I-249999J0D01*
G01*
G37*
G36*
G01*
X156650001Y-47287500D02*
X155349999Y-47287500D01*
G75*
G02*
X155100000Y-47037501I0J249999D01*
G01*
X155100000Y-46212499D01*
G75*
G02*
X155349999Y-45962500I249999J0D01*
G01*
X156650001Y-45962500D01*
G75*
G02*
X156900000Y-46212499I0J-249999D01*
G01*
X156900000Y-47037501D01*
G75*
G02*
X156650001Y-47287500I-249999J0D01*
G01*
G37*
G36*
G01*
X134737500Y-102787500D02*
X134262500Y-102787500D01*
G75*
G02*
X134025000Y-102550000I0J237500D01*
G01*
X134025000Y-101950000D01*
G75*
G02*
X134262500Y-101712500I237500J0D01*
G01*
X134737500Y-101712500D01*
G75*
G02*
X134975000Y-101950000I0J-237500D01*
G01*
X134975000Y-102550000D01*
G75*
G02*
X134737500Y-102787500I-237500J0D01*
G01*
G37*
G36*
G01*
X134737500Y-104512500D02*
X134262500Y-104512500D01*
G75*
G02*
X134025000Y-104275000I0J237500D01*
G01*
X134025000Y-103675000D01*
G75*
G02*
X134262500Y-103437500I237500J0D01*
G01*
X134737500Y-103437500D01*
G75*
G02*
X134975000Y-103675000I0J-237500D01*
G01*
X134975000Y-104275000D01*
G75*
G02*
X134737500Y-104512500I-237500J0D01*
G01*
G37*
G36*
G01*
X141912500Y-142912500D02*
X142387500Y-142912500D01*
G75*
G02*
X142625000Y-143150000I0J-237500D01*
G01*
X142625000Y-143750000D01*
G75*
G02*
X142387500Y-143987500I-237500J0D01*
G01*
X141912500Y-143987500D01*
G75*
G02*
X141675000Y-143750000I0J237500D01*
G01*
X141675000Y-143150000D01*
G75*
G02*
X141912500Y-142912500I237500J0D01*
G01*
G37*
G36*
G01*
X141912500Y-141187500D02*
X142387500Y-141187500D01*
G75*
G02*
X142625000Y-141425000I0J-237500D01*
G01*
X142625000Y-142025000D01*
G75*
G02*
X142387500Y-142262500I-237500J0D01*
G01*
X141912500Y-142262500D01*
G75*
G02*
X141675000Y-142025000I0J237500D01*
G01*
X141675000Y-141425000D01*
G75*
G02*
X141912500Y-141187500I237500J0D01*
G01*
G37*
G36*
G01*
X127537500Y-79512500D02*
X127537500Y-79987500D01*
G75*
G02*
X127300000Y-80225000I-237500J0D01*
G01*
X126700000Y-80225000D01*
G75*
G02*
X126462500Y-79987500I0J237500D01*
G01*
X126462500Y-79512500D01*
G75*
G02*
X126700000Y-79275000I237500J0D01*
G01*
X127300000Y-79275000D01*
G75*
G02*
X127537500Y-79512500I0J-237500D01*
G01*
G37*
G36*
G01*
X129262500Y-79512500D02*
X129262500Y-79987500D01*
G75*
G02*
X129025000Y-80225000I-237500J0D01*
G01*
X128425000Y-80225000D01*
G75*
G02*
X128187500Y-79987500I0J237500D01*
G01*
X128187500Y-79512500D01*
G75*
G02*
X128425000Y-79275000I237500J0D01*
G01*
X129025000Y-79275000D01*
G75*
G02*
X129262500Y-79512500I0J-237500D01*
G01*
G37*
G36*
G01*
X146853100Y-78689100D02*
X146378100Y-78689100D01*
G75*
G02*
X146140600Y-78451600I0J237500D01*
G01*
X146140600Y-77851600D01*
G75*
G02*
X146378100Y-77614100I237500J0D01*
G01*
X146853100Y-77614100D01*
G75*
G02*
X147090600Y-77851600I0J-237500D01*
G01*
X147090600Y-78451600D01*
G75*
G02*
X146853100Y-78689100I-237500J0D01*
G01*
G37*
G36*
G01*
X146853100Y-80414100D02*
X146378100Y-80414100D01*
G75*
G02*
X146140600Y-80176600I0J237500D01*
G01*
X146140600Y-79576600D01*
G75*
G02*
X146378100Y-79339100I237500J0D01*
G01*
X146853100Y-79339100D01*
G75*
G02*
X147090600Y-79576600I0J-237500D01*
G01*
X147090600Y-80176600D01*
G75*
G02*
X146853100Y-80414100I-237500J0D01*
G01*
G37*
G36*
G01*
X133325000Y-62487500D02*
X133325000Y-62012500D01*
G75*
G02*
X133562500Y-61775000I237500J0D01*
G01*
X134162500Y-61775000D01*
G75*
G02*
X134400000Y-62012500I0J-237500D01*
G01*
X134400000Y-62487500D01*
G75*
G02*
X134162500Y-62725000I-237500J0D01*
G01*
X133562500Y-62725000D01*
G75*
G02*
X133325000Y-62487500I0J237500D01*
G01*
G37*
G36*
G01*
X131600000Y-62487500D02*
X131600000Y-62012500D01*
G75*
G02*
X131837500Y-61775000I237500J0D01*
G01*
X132437500Y-61775000D01*
G75*
G02*
X132675000Y-62012500I0J-237500D01*
G01*
X132675000Y-62487500D01*
G75*
G02*
X132437500Y-62725000I-237500J0D01*
G01*
X131837500Y-62725000D01*
G75*
G02*
X131600000Y-62487500I0J237500D01*
G01*
G37*
G36*
G01*
X139812500Y-136262500D02*
X139812500Y-136737500D01*
G75*
G02*
X139575000Y-136975000I-237500J0D01*
G01*
X138975000Y-136975000D01*
G75*
G02*
X138737500Y-136737500I0J237500D01*
G01*
X138737500Y-136262500D01*
G75*
G02*
X138975000Y-136025000I237500J0D01*
G01*
X139575000Y-136025000D01*
G75*
G02*
X139812500Y-136262500I0J-237500D01*
G01*
G37*
G36*
G01*
X141537500Y-136262500D02*
X141537500Y-136737500D01*
G75*
G02*
X141300000Y-136975000I-237500J0D01*
G01*
X140700000Y-136975000D01*
G75*
G02*
X140462500Y-136737500I0J237500D01*
G01*
X140462500Y-136262500D01*
G75*
G02*
X140700000Y-136025000I237500J0D01*
G01*
X141300000Y-136025000D01*
G75*
G02*
X141537500Y-136262500I0J-237500D01*
G01*
G37*
G36*
G01*
X145099999Y-134837500D02*
X146400001Y-134837500D01*
G75*
G02*
X146650000Y-135087499I0J-249999D01*
G01*
X146650000Y-135912501D01*
G75*
G02*
X146400001Y-136162500I-249999J0D01*
G01*
X145099999Y-136162500D01*
G75*
G02*
X144850000Y-135912501I0J249999D01*
G01*
X144850000Y-135087499D01*
G75*
G02*
X145099999Y-134837500I249999J0D01*
G01*
G37*
G36*
G01*
X145099999Y-131712500D02*
X146400001Y-131712500D01*
G75*
G02*
X146650000Y-131962499I0J-249999D01*
G01*
X146650000Y-132787501D01*
G75*
G02*
X146400001Y-133037500I-249999J0D01*
G01*
X145099999Y-133037500D01*
G75*
G02*
X144850000Y-132787501I0J249999D01*
G01*
X144850000Y-131962499D01*
G75*
G02*
X145099999Y-131712500I249999J0D01*
G01*
G37*
G36*
G01*
X149099999Y-134837500D02*
X150400001Y-134837500D01*
G75*
G02*
X150650000Y-135087499I0J-249999D01*
G01*
X150650000Y-135912501D01*
G75*
G02*
X150400001Y-136162500I-249999J0D01*
G01*
X149099999Y-136162500D01*
G75*
G02*
X148850000Y-135912501I0J249999D01*
G01*
X148850000Y-135087499D01*
G75*
G02*
X149099999Y-134837500I249999J0D01*
G01*
G37*
G36*
G01*
X149099999Y-131712500D02*
X150400001Y-131712500D01*
G75*
G02*
X150650000Y-131962499I0J-249999D01*
G01*
X150650000Y-132787501D01*
G75*
G02*
X150400001Y-133037500I-249999J0D01*
G01*
X149099999Y-133037500D01*
G75*
G02*
X148850000Y-132787501I0J249999D01*
G01*
X148850000Y-131962499D01*
G75*
G02*
X149099999Y-131712500I249999J0D01*
G01*
G37*
G36*
G01*
X145537500Y-139512500D02*
X145537500Y-139987500D01*
G75*
G02*
X145300000Y-140225000I-237500J0D01*
G01*
X144700000Y-140225000D01*
G75*
G02*
X144462500Y-139987500I0J237500D01*
G01*
X144462500Y-139512500D01*
G75*
G02*
X144700000Y-139275000I237500J0D01*
G01*
X145300000Y-139275000D01*
G75*
G02*
X145537500Y-139512500I0J-237500D01*
G01*
G37*
G36*
G01*
X147262500Y-139512500D02*
X147262500Y-139987500D01*
G75*
G02*
X147025000Y-140225000I-237500J0D01*
G01*
X146425000Y-140225000D01*
G75*
G02*
X146187500Y-139987500I0J237500D01*
G01*
X146187500Y-139512500D01*
G75*
G02*
X146425000Y-139275000I237500J0D01*
G01*
X147025000Y-139275000D01*
G75*
G02*
X147262500Y-139512500I0J-237500D01*
G01*
G37*
G36*
G01*
X109900000Y-68450000D02*
X109900000Y-70050000D01*
G75*
G02*
X109650000Y-70300000I-250000J0D01*
G01*
X105550000Y-70300000D01*
G75*
G02*
X105300000Y-70050000I0J250000D01*
G01*
X105300000Y-68450000D01*
G75*
G02*
X105550000Y-68200000I250000J0D01*
G01*
X109650000Y-68200000D01*
G75*
G02*
X109900000Y-68450000I0J-250000D01*
G01*
G37*
G36*
G01*
X118700000Y-68450000D02*
X118700000Y-70050000D01*
G75*
G02*
X118450000Y-70300000I-250000J0D01*
G01*
X114350000Y-70300000D01*
G75*
G02*
X114100000Y-70050000I0J250000D01*
G01*
X114100000Y-68450000D01*
G75*
G02*
X114350000Y-68200000I250000J0D01*
G01*
X118450000Y-68200000D01*
G75*
G02*
X118700000Y-68450000I0J-250000D01*
G01*
G37*
G36*
G01*
X111037500Y-77099999D02*
X111037500Y-78400001D01*
G75*
G02*
X110787501Y-78650000I-249999J0D01*
G01*
X109962499Y-78650000D01*
G75*
G02*
X109712500Y-78400001I0J249999D01*
G01*
X109712500Y-77099999D01*
G75*
G02*
X109962499Y-76850000I249999J0D01*
G01*
X110787501Y-76850000D01*
G75*
G02*
X111037500Y-77099999I0J-249999D01*
G01*
G37*
G36*
G01*
X114162500Y-77099999D02*
X114162500Y-78400001D01*
G75*
G02*
X113912501Y-78650000I-249999J0D01*
G01*
X113087499Y-78650000D01*
G75*
G02*
X112837500Y-78400001I0J249999D01*
G01*
X112837500Y-77099999D01*
G75*
G02*
X113087499Y-76850000I249999J0D01*
G01*
X113912501Y-76850000D01*
G75*
G02*
X114162500Y-77099999I0J-249999D01*
G01*
G37*
G36*
G01*
X149537500Y-139512500D02*
X149537500Y-139987500D01*
G75*
G02*
X149300000Y-140225000I-237500J0D01*
G01*
X148700000Y-140225000D01*
G75*
G02*
X148462500Y-139987500I0J237500D01*
G01*
X148462500Y-139512500D01*
G75*
G02*
X148700000Y-139275000I237500J0D01*
G01*
X149300000Y-139275000D01*
G75*
G02*
X149537500Y-139512500I0J-237500D01*
G01*
G37*
G36*
G01*
X151262500Y-139512500D02*
X151262500Y-139987500D01*
G75*
G02*
X151025000Y-140225000I-237500J0D01*
G01*
X150425000Y-140225000D01*
G75*
G02*
X150187500Y-139987500I0J237500D01*
G01*
X150187500Y-139512500D01*
G75*
G02*
X150425000Y-139275000I237500J0D01*
G01*
X151025000Y-139275000D01*
G75*
G02*
X151262500Y-139512500I0J-237500D01*
G01*
G37*
G36*
G01*
X122737500Y-93062500D02*
X122262500Y-93062500D01*
G75*
G02*
X122025000Y-92825000I0J237500D01*
G01*
X122025000Y-92225000D01*
G75*
G02*
X122262500Y-91987500I237500J0D01*
G01*
X122737500Y-91987500D01*
G75*
G02*
X122975000Y-92225000I0J-237500D01*
G01*
X122975000Y-92825000D01*
G75*
G02*
X122737500Y-93062500I-237500J0D01*
G01*
G37*
G36*
G01*
X122737500Y-94787500D02*
X122262500Y-94787500D01*
G75*
G02*
X122025000Y-94550000I0J237500D01*
G01*
X122025000Y-93950000D01*
G75*
G02*
X122262500Y-93712500I237500J0D01*
G01*
X122737500Y-93712500D01*
G75*
G02*
X122975000Y-93950000I0J-237500D01*
G01*
X122975000Y-94550000D01*
G75*
G02*
X122737500Y-94787500I-237500J0D01*
G01*
G37*
G36*
G01*
X125537500Y-101012500D02*
X125537500Y-101487500D01*
G75*
G02*
X125300000Y-101725000I-237500J0D01*
G01*
X124700000Y-101725000D01*
G75*
G02*
X124462500Y-101487500I0J237500D01*
G01*
X124462500Y-101012500D01*
G75*
G02*
X124700000Y-100775000I237500J0D01*
G01*
X125300000Y-100775000D01*
G75*
G02*
X125537500Y-101012500I0J-237500D01*
G01*
G37*
G36*
G01*
X127262500Y-101012500D02*
X127262500Y-101487500D01*
G75*
G02*
X127025000Y-101725000I-237500J0D01*
G01*
X126425000Y-101725000D01*
G75*
G02*
X126187500Y-101487500I0J237500D01*
G01*
X126187500Y-101012500D01*
G75*
G02*
X126425000Y-100775000I237500J0D01*
G01*
X127025000Y-100775000D01*
G75*
G02*
X127262500Y-101012500I0J-237500D01*
G01*
G37*
G36*
G01*
X108150001Y-91412500D02*
X106849999Y-91412500D01*
G75*
G02*
X106600000Y-91162501I0J249999D01*
G01*
X106600000Y-90337499D01*
G75*
G02*
X106849999Y-90087500I249999J0D01*
G01*
X108150001Y-90087500D01*
G75*
G02*
X108400000Y-90337499I0J-249999D01*
G01*
X108400000Y-91162501D01*
G75*
G02*
X108150001Y-91412500I-249999J0D01*
G01*
G37*
G36*
G01*
X108150001Y-94537500D02*
X106849999Y-94537500D01*
G75*
G02*
X106600000Y-94287501I0J249999D01*
G01*
X106600000Y-93462499D01*
G75*
G02*
X106849999Y-93212500I249999J0D01*
G01*
X108150001Y-93212500D01*
G75*
G02*
X108400000Y-93462499I0J-249999D01*
G01*
X108400000Y-94287501D01*
G75*
G02*
X108150001Y-94537500I-249999J0D01*
G01*
G37*
G36*
G01*
X125537500Y-98012500D02*
X125537500Y-98487500D01*
G75*
G02*
X125300000Y-98725000I-237500J0D01*
G01*
X124700000Y-98725000D01*
G75*
G02*
X124462500Y-98487500I0J237500D01*
G01*
X124462500Y-98012500D01*
G75*
G02*
X124700000Y-97775000I237500J0D01*
G01*
X125300000Y-97775000D01*
G75*
G02*
X125537500Y-98012500I0J-237500D01*
G01*
G37*
G36*
G01*
X127262500Y-98012500D02*
X127262500Y-98487500D01*
G75*
G02*
X127025000Y-98725000I-237500J0D01*
G01*
X126425000Y-98725000D01*
G75*
G02*
X126187500Y-98487500I0J237500D01*
G01*
X126187500Y-98012500D01*
G75*
G02*
X126425000Y-97775000I237500J0D01*
G01*
X127025000Y-97775000D01*
G75*
G02*
X127262500Y-98012500I0J-237500D01*
G01*
G37*
G36*
G01*
X114500000Y-103550000D02*
X114500000Y-101950000D01*
G75*
G02*
X114750000Y-101700000I250000J0D01*
G01*
X118850000Y-101700000D01*
G75*
G02*
X119100000Y-101950000I0J-250000D01*
G01*
X119100000Y-103550000D01*
G75*
G02*
X118850000Y-103800000I-250000J0D01*
G01*
X114750000Y-103800000D01*
G75*
G02*
X114500000Y-103550000I0J250000D01*
G01*
G37*
G36*
G01*
X105700000Y-103550000D02*
X105700000Y-101950000D01*
G75*
G02*
X105950000Y-101700000I250000J0D01*
G01*
X110050000Y-101700000D01*
G75*
G02*
X110300000Y-101950000I0J-250000D01*
G01*
X110300000Y-103550000D01*
G75*
G02*
X110050000Y-103800000I-250000J0D01*
G01*
X105950000Y-103800000D01*
G75*
G02*
X105700000Y-103550000I0J250000D01*
G01*
G37*
G36*
G01*
X133687500Y-79987500D02*
X133687500Y-79512500D01*
G75*
G02*
X133925000Y-79275000I237500J0D01*
G01*
X134525000Y-79275000D01*
G75*
G02*
X134762500Y-79512500I0J-237500D01*
G01*
X134762500Y-79987500D01*
G75*
G02*
X134525000Y-80225000I-237500J0D01*
G01*
X133925000Y-80225000D01*
G75*
G02*
X133687500Y-79987500I0J237500D01*
G01*
G37*
G36*
G01*
X131962500Y-79987500D02*
X131962500Y-79512500D01*
G75*
G02*
X132200000Y-79275000I237500J0D01*
G01*
X132800000Y-79275000D01*
G75*
G02*
X133037500Y-79512500I0J-237500D01*
G01*
X133037500Y-79987500D01*
G75*
G02*
X132800000Y-80225000I-237500J0D01*
G01*
X132200000Y-80225000D01*
G75*
G02*
X131962500Y-79987500I0J237500D01*
G01*
G37*
G36*
G01*
X138512500Y-119937500D02*
X138987500Y-119937500D01*
G75*
G02*
X139225000Y-120175000I0J-237500D01*
G01*
X139225000Y-120775000D01*
G75*
G02*
X138987500Y-121012500I-237500J0D01*
G01*
X138512500Y-121012500D01*
G75*
G02*
X138275000Y-120775000I0J237500D01*
G01*
X138275000Y-120175000D01*
G75*
G02*
X138512500Y-119937500I237500J0D01*
G01*
G37*
G36*
G01*
X138512500Y-118212500D02*
X138987500Y-118212500D01*
G75*
G02*
X139225000Y-118450000I0J-237500D01*
G01*
X139225000Y-119050000D01*
G75*
G02*
X138987500Y-119287500I-237500J0D01*
G01*
X138512500Y-119287500D01*
G75*
G02*
X138275000Y-119050000I0J237500D01*
G01*
X138275000Y-118450000D01*
G75*
G02*
X138512500Y-118212500I237500J0D01*
G01*
G37*
G36*
G01*
X138987500Y-123787500D02*
X138512500Y-123787500D01*
G75*
G02*
X138275000Y-123550000I0J237500D01*
G01*
X138275000Y-122950000D01*
G75*
G02*
X138512500Y-122712500I237500J0D01*
G01*
X138987500Y-122712500D01*
G75*
G02*
X139225000Y-122950000I0J-237500D01*
G01*
X139225000Y-123550000D01*
G75*
G02*
X138987500Y-123787500I-237500J0D01*
G01*
G37*
G36*
G01*
X138987500Y-125512500D02*
X138512500Y-125512500D01*
G75*
G02*
X138275000Y-125275000I0J237500D01*
G01*
X138275000Y-124675000D01*
G75*
G02*
X138512500Y-124437500I237500J0D01*
G01*
X138987500Y-124437500D01*
G75*
G02*
X139225000Y-124675000I0J-237500D01*
G01*
X139225000Y-125275000D01*
G75*
G02*
X138987500Y-125512500I-237500J0D01*
G01*
G37*
M02*
