G04 #@! TF.GenerationSoftware,KiCad,Pcbnew,(5.1.10)-1*
G04 #@! TF.CreationDate,2021-09-06T19:40:46-04:00*
G04 #@! TF.ProjectId,Lithium_Ion_Pack,4c697468-6975-46d5-9f49-6f6e5f506163,A0*
G04 #@! TF.SameCoordinates,Original*
G04 #@! TF.FileFunction,Soldermask,Bot*
G04 #@! TF.FilePolarity,Negative*
%FSLAX46Y46*%
G04 Gerber Fmt 4.6, Leading zero omitted, Abs format (unit mm)*
G04 Created by KiCad (PCBNEW (5.1.10)-1) date 2021-09-06 19:40:46*
%MOMM*%
%LPD*%
G01*
G04 APERTURE LIST*
%ADD10O,1.700000X1.700000*%
%ADD11R,1.700000X1.700000*%
%ADD12C,1.500000*%
%ADD13C,0.650000*%
%ADD14C,5.000000*%
%ADD15C,2.900000*%
%ADD16R,2.000000X2.000000*%
G04 APERTURE END LIST*
G36*
G01*
X123762500Y-113075000D02*
X124237500Y-113075000D01*
G75*
G02*
X124475000Y-113312500I0J-237500D01*
G01*
X124475000Y-113912500D01*
G75*
G02*
X124237500Y-114150000I-237500J0D01*
G01*
X123762500Y-114150000D01*
G75*
G02*
X123525000Y-113912500I0J237500D01*
G01*
X123525000Y-113312500D01*
G75*
G02*
X123762500Y-113075000I237500J0D01*
G01*
G37*
G36*
G01*
X123762500Y-111350000D02*
X124237500Y-111350000D01*
G75*
G02*
X124475000Y-111587500I0J-237500D01*
G01*
X124475000Y-112187500D01*
G75*
G02*
X124237500Y-112425000I-237500J0D01*
G01*
X123762500Y-112425000D01*
G75*
G02*
X123525000Y-112187500I0J237500D01*
G01*
X123525000Y-111587500D01*
G75*
G02*
X123762500Y-111350000I237500J0D01*
G01*
G37*
G36*
G01*
X129012500Y-118462500D02*
X129487500Y-118462500D01*
G75*
G02*
X129725000Y-118700000I0J-237500D01*
G01*
X129725000Y-119300000D01*
G75*
G02*
X129487500Y-119537500I-237500J0D01*
G01*
X129012500Y-119537500D01*
G75*
G02*
X128775000Y-119300000I0J237500D01*
G01*
X128775000Y-118700000D01*
G75*
G02*
X129012500Y-118462500I237500J0D01*
G01*
G37*
G36*
G01*
X129012500Y-116737500D02*
X129487500Y-116737500D01*
G75*
G02*
X129725000Y-116975000I0J-237500D01*
G01*
X129725000Y-117575000D01*
G75*
G02*
X129487500Y-117812500I-237500J0D01*
G01*
X129012500Y-117812500D01*
G75*
G02*
X128775000Y-117575000I0J237500D01*
G01*
X128775000Y-116975000D01*
G75*
G02*
X129012500Y-116737500I237500J0D01*
G01*
G37*
G36*
G01*
X117287500Y-119762500D02*
X117287500Y-120237500D01*
G75*
G02*
X117050000Y-120475000I-237500J0D01*
G01*
X116450000Y-120475000D01*
G75*
G02*
X116212500Y-120237500I0J237500D01*
G01*
X116212500Y-119762500D01*
G75*
G02*
X116450000Y-119525000I237500J0D01*
G01*
X117050000Y-119525000D01*
G75*
G02*
X117287500Y-119762500I0J-237500D01*
G01*
G37*
G36*
G01*
X119012500Y-119762500D02*
X119012500Y-120237500D01*
G75*
G02*
X118775000Y-120475000I-237500J0D01*
G01*
X118175000Y-120475000D01*
G75*
G02*
X117937500Y-120237500I0J237500D01*
G01*
X117937500Y-119762500D01*
G75*
G02*
X118175000Y-119525000I237500J0D01*
G01*
X118775000Y-119525000D01*
G75*
G02*
X119012500Y-119762500I0J-237500D01*
G01*
G37*
G36*
G01*
X128062500Y-127262500D02*
X128062500Y-127737500D01*
G75*
G02*
X127825000Y-127975000I-237500J0D01*
G01*
X127225000Y-127975000D01*
G75*
G02*
X126987500Y-127737500I0J237500D01*
G01*
X126987500Y-127262500D01*
G75*
G02*
X127225000Y-127025000I237500J0D01*
G01*
X127825000Y-127025000D01*
G75*
G02*
X128062500Y-127262500I0J-237500D01*
G01*
G37*
G36*
G01*
X129787500Y-127262500D02*
X129787500Y-127737500D01*
G75*
G02*
X129550000Y-127975000I-237500J0D01*
G01*
X128950000Y-127975000D01*
G75*
G02*
X128712500Y-127737500I0J237500D01*
G01*
X128712500Y-127262500D01*
G75*
G02*
X128950000Y-127025000I237500J0D01*
G01*
X129550000Y-127025000D01*
G75*
G02*
X129787500Y-127262500I0J-237500D01*
G01*
G37*
D10*
X140290000Y-151750000D03*
D11*
X137750000Y-151750000D03*
D12*
X134750000Y-119370000D03*
X134750000Y-124250000D03*
D10*
X106500000Y-145020000D03*
X106500000Y-142480000D03*
X106500000Y-139940000D03*
X106500000Y-137400000D03*
X106500000Y-134860000D03*
X106500000Y-132320000D03*
X106500000Y-129780000D03*
X106500000Y-127240000D03*
X106500000Y-124700000D03*
X106500000Y-122160000D03*
X106500000Y-119620000D03*
X106500000Y-117080000D03*
X106500000Y-114540000D03*
D11*
X106500000Y-112000000D03*
D10*
X102500000Y-119620000D03*
X102500000Y-117080000D03*
X102500000Y-114540000D03*
D11*
X102500000Y-112000000D03*
D10*
X102500000Y-124630000D03*
X102500000Y-127170000D03*
X102500000Y-129710000D03*
D11*
X102500000Y-132250000D03*
D13*
X125110000Y-148750000D03*
X130890000Y-148750000D03*
D14*
X105500000Y-149250000D03*
D15*
X105500000Y-149250000D03*
D14*
X105500000Y-45250000D03*
D15*
X105500000Y-45250000D03*
D14*
X181500000Y-45250000D03*
D15*
X181500000Y-45250000D03*
D14*
X181500000Y-149250000D03*
D15*
X181500000Y-149250000D03*
D16*
X120500000Y-54250000D03*
X148500000Y-54250000D03*
M02*
