G04 #@! TF.GenerationSoftware,KiCad,Pcbnew,(5.1.10)-1*
G04 #@! TF.CreationDate,2021-09-06T19:40:46-04:00*
G04 #@! TF.ProjectId,Lithium_Ion_Pack,4c697468-6975-46d5-9f49-6f6e5f506163,A0*
G04 #@! TF.SameCoordinates,Original*
G04 #@! TF.FileFunction,Paste,Bot*
G04 #@! TF.FilePolarity,Positive*
%FSLAX46Y46*%
G04 Gerber Fmt 4.6, Leading zero omitted, Abs format (unit mm)*
G04 Created by KiCad (PCBNEW (5.1.10)-1) date 2021-09-06 19:40:46*
%MOMM*%
%LPD*%
G01*
G04 APERTURE LIST*
G04 APERTURE END LIST*
G36*
G01*
X123762500Y-113075000D02*
X124237500Y-113075000D01*
G75*
G02*
X124475000Y-113312500I0J-237500D01*
G01*
X124475000Y-113912500D01*
G75*
G02*
X124237500Y-114150000I-237500J0D01*
G01*
X123762500Y-114150000D01*
G75*
G02*
X123525000Y-113912500I0J237500D01*
G01*
X123525000Y-113312500D01*
G75*
G02*
X123762500Y-113075000I237500J0D01*
G01*
G37*
G36*
G01*
X123762500Y-111350000D02*
X124237500Y-111350000D01*
G75*
G02*
X124475000Y-111587500I0J-237500D01*
G01*
X124475000Y-112187500D01*
G75*
G02*
X124237500Y-112425000I-237500J0D01*
G01*
X123762500Y-112425000D01*
G75*
G02*
X123525000Y-112187500I0J237500D01*
G01*
X123525000Y-111587500D01*
G75*
G02*
X123762500Y-111350000I237500J0D01*
G01*
G37*
G36*
G01*
X129012500Y-118462500D02*
X129487500Y-118462500D01*
G75*
G02*
X129725000Y-118700000I0J-237500D01*
G01*
X129725000Y-119300000D01*
G75*
G02*
X129487500Y-119537500I-237500J0D01*
G01*
X129012500Y-119537500D01*
G75*
G02*
X128775000Y-119300000I0J237500D01*
G01*
X128775000Y-118700000D01*
G75*
G02*
X129012500Y-118462500I237500J0D01*
G01*
G37*
G36*
G01*
X129012500Y-116737500D02*
X129487500Y-116737500D01*
G75*
G02*
X129725000Y-116975000I0J-237500D01*
G01*
X129725000Y-117575000D01*
G75*
G02*
X129487500Y-117812500I-237500J0D01*
G01*
X129012500Y-117812500D01*
G75*
G02*
X128775000Y-117575000I0J237500D01*
G01*
X128775000Y-116975000D01*
G75*
G02*
X129012500Y-116737500I237500J0D01*
G01*
G37*
G36*
G01*
X117287500Y-119762500D02*
X117287500Y-120237500D01*
G75*
G02*
X117050000Y-120475000I-237500J0D01*
G01*
X116450000Y-120475000D01*
G75*
G02*
X116212500Y-120237500I0J237500D01*
G01*
X116212500Y-119762500D01*
G75*
G02*
X116450000Y-119525000I237500J0D01*
G01*
X117050000Y-119525000D01*
G75*
G02*
X117287500Y-119762500I0J-237500D01*
G01*
G37*
G36*
G01*
X119012500Y-119762500D02*
X119012500Y-120237500D01*
G75*
G02*
X118775000Y-120475000I-237500J0D01*
G01*
X118175000Y-120475000D01*
G75*
G02*
X117937500Y-120237500I0J237500D01*
G01*
X117937500Y-119762500D01*
G75*
G02*
X118175000Y-119525000I237500J0D01*
G01*
X118775000Y-119525000D01*
G75*
G02*
X119012500Y-119762500I0J-237500D01*
G01*
G37*
G36*
G01*
X128062500Y-127262500D02*
X128062500Y-127737500D01*
G75*
G02*
X127825000Y-127975000I-237500J0D01*
G01*
X127225000Y-127975000D01*
G75*
G02*
X126987500Y-127737500I0J237500D01*
G01*
X126987500Y-127262500D01*
G75*
G02*
X127225000Y-127025000I237500J0D01*
G01*
X127825000Y-127025000D01*
G75*
G02*
X128062500Y-127262500I0J-237500D01*
G01*
G37*
G36*
G01*
X129787500Y-127262500D02*
X129787500Y-127737500D01*
G75*
G02*
X129550000Y-127975000I-237500J0D01*
G01*
X128950000Y-127975000D01*
G75*
G02*
X128712500Y-127737500I0J237500D01*
G01*
X128712500Y-127262500D01*
G75*
G02*
X128950000Y-127025000I237500J0D01*
G01*
X129550000Y-127025000D01*
G75*
G02*
X129787500Y-127262500I0J-237500D01*
G01*
G37*
M02*
