M48
; DRILL file {KiCad (5.1.10)-1} date 09/06/21 19:41:02
; FORMAT={-:-/ absolute / metric / decimal}
; #@! TF.CreationDate,2021-09-06T19:41:02-04:00
; #@! TF.GenerationSoftware,Kicad,Pcbnew,(5.1.10)-1
; #@! TF.FileFunction,Plated,1,2,PTH
FMAT,2
METRIC
T1C0.200
T2C0.400
T3C0.800
T4C1.000
T5C2.500
%
G90
G05
T1
X107.947Y-120.843
X107.962Y-118.219
X108.0Y-119.0
X115.932Y-115.845
X115.958Y-114.55
X115.958Y-115.15
X116.0Y-112.25
X118.525Y-112.275
X119.05Y-116.75
X119.107Y-114.55
X119.107Y-115.82
X119.133Y-115.159
X119.637Y-127.0
X122.25Y-126.475
X122.87Y-127.38
X123.3Y-116.5
X124.25Y-114.5
X124.375Y-125.726
X124.822Y-126.126
X125.1Y-107.85
X125.5Y-104.45
X125.6Y-106.15
X126.3Y-104.05
X126.375Y-125.675
X127.25Y-125.75
X127.8Y-82.95
X127.8Y-84.95
X128.0Y-98.75
X128.25Y-73.75
X128.7Y-82.95
X129.25Y-120.5
X130.969Y-96.592
X131.0Y-64.65
X131.0Y-95.75
X131.0Y-97.35
X132.5Y-83.75
X132.5Y-85.75
X133.025Y-81.183
X133.3Y-98.45
X133.4Y-99.35
X133.509Y-81.708
X134.5Y-83.75
X134.5Y-85.75
X134.75Y-87.75
X135.0Y-91.45
X135.5Y-89.95
X136.125Y-93.493
X139.0Y-77.165
X141.358Y-93.646
X141.663Y-77.212
X147.75Y-148.5
X148.292Y-108.352
X148.343Y-121.687
X161.75Y-142.75
T2
X104.75Y-77.75
X105.5Y-88.0
X105.75Y-67.25
X105.75Y-71.25
X106.75Y-100.75
X106.75Y-104.75
X107.5Y-67.25
X107.5Y-71.25
X107.5Y-95.25
X108.0Y-100.75
X108.0Y-104.75
X109.0Y-67.25
X109.0Y-71.25
X109.0Y-77.75
X109.25Y-100.75
X109.25Y-104.75
X109.5Y-92.0
X110.75Y-83.5
X110.75Y-85.25
X110.75Y-87.0
X112.25Y-88.25
X112.25Y-151.75
X112.5Y-106.0
X112.75Y-92.0
X112.857Y-123.607
X113.0Y-135.5
X113.0Y-138.5
X113.0Y-141.5
X113.75Y-109.0
X113.846Y-123.752
X114.5Y-113.0
X115.5Y-100.75
X115.5Y-104.5
X115.5Y-151.75
X115.75Y-119.0
X116.75Y-100.75
X116.75Y-104.5
X117.75Y-124.0
X118.0Y-100.75
X118.0Y-104.5
X118.25Y-132.25
X118.5Y-94.75
X118.75Y-151.75
X119.0Y-110.5
X119.0Y-133.0
X120.0Y-142.75
X120.25Y-131.0
X121.0Y-63.0
X121.0Y-75.25
X121.0Y-131.75
X122.75Y-78.0
X123.25Y-131.25
X124.0Y-110.5
X124.5Y-96.5
X124.75Y-146.25
X124.75Y-119.25
X124.75Y-121.0
X124.75Y-123.0
X125.0Y-132.75
X125.009Y-130.023
X125.5Y-80.0
X126.75Y-119.25
X126.75Y-121.0
X126.75Y-123.0
X127.0Y-131.25
X127.129Y-140.121
X127.871Y-139.379
X128.25Y-100.5
X128.25Y-142.75
X128.5Y-126.0
X128.8Y-66.65
X128.8Y-71.85
X130.25Y-78.5
X130.75Y-113.5
X130.75Y-118.0
X131.25Y-146.5
X132.0Y-78.25
X132.25Y-137.75
X132.5Y-130.75
X132.75Y-104.175
X133.25Y-102.25
X135.0Y-81.25
X135.5Y-100.75
X135.75Y-80.25
X136.25Y-131.0
X136.5Y-132.5
X136.5Y-142.75
X137.5Y-74.75
X138.0Y-68.75
X138.0Y-136.5
X138.75Y-81.75
X138.75Y-121.75
X139.25Y-139.5
X139.5Y-46.5
X139.5Y-69.5
X140.0Y-114.25
X140.23Y-98.52
X140.5Y-95.75
X141.0Y-76.25
X141.0Y-103.25
X141.5Y-98.25
X142.25Y-103.75
X142.25Y-140.25
X143.5Y-73.75
X143.75Y-132.5
X144.0Y-107.75
X144.0Y-115.75
X144.0Y-136.0
X144.25Y-142.25
X144.5Y-102.75
X145.75Y-130.75
X146.5Y-76.75
X148.75Y-151.5
X149.5Y-62.5
X149.75Y-130.75
X151.75Y-128.5
X152.25Y-62.5
X153.263Y-144.013
X154.25Y-89.25
X154.25Y-116.25
X154.5Y-82.75
X154.5Y-96.25
X154.5Y-103.25
X154.5Y-109.5
X154.5Y-123.0
X154.5Y-129.75
X155.0Y-62.5
X155.25Y-151.25
X157.75Y-62.5
X159.0Y-43.25
X159.5Y-152.75
X160.5Y-62.5
X160.5Y-144.25
X161.5Y-148.5
X161.75Y-145.25
X173.5Y-121.75
X173.75Y-129.0
X173.75Y-131.75
X173.75Y-134.75
X173.75Y-137.75
X173.75Y-140.5
X176.5Y-140.5
X176.75Y-129.0
X179.5Y-129.0
X179.5Y-140.5
X182.5Y-129.0
X182.5Y-140.5
X185.25Y-129.0
X185.25Y-131.75
X185.25Y-134.75
X185.25Y-137.75
X185.25Y-140.5
T3
X134.75Y-119.37
X134.75Y-124.25
T4
X102.5Y-112.0
X102.5Y-114.54
X102.5Y-117.08
X102.5Y-119.62
X102.5Y-124.63
X102.5Y-127.17
X102.5Y-129.71
X102.5Y-132.25
X106.5Y-112.0
X106.5Y-114.54
X106.5Y-117.08
X106.5Y-119.62
X106.5Y-122.16
X106.5Y-124.7
X106.5Y-127.24
X106.5Y-129.78
X106.5Y-132.32
X106.5Y-134.86
X106.5Y-137.4
X106.5Y-139.94
X106.5Y-142.48
X106.5Y-145.02
X120.5Y-54.25
X137.75Y-151.75
X140.29Y-151.75
X148.5Y-54.25
T5
X105.5Y-45.25
X105.5Y-149.25
X181.5Y-45.25
X181.5Y-149.25
T0
M30
